<?xml version="1.0" encoding="UTF-8"?>
<svg id="Capa_2" data-name="Capa 2" xmlns="http://www.w3.org/2000/svg" viewBox="0 0 400.01 383">
  <defs>
    <style>
      .cls-1 {
        fill: #f7f5f2;
      }
    </style>
  </defs>
  <g id="Layer_1" data-name="Layer 1">
    <g>
      <path class="cls-1" d="M198.24,0h2.87c9.76,1.1,20.1,6.42,23.58,16.16,4.06,11.21.05,23.32-4.93,33.53-6.8,12.69-13.62,25.83-24.23,35.8-4.05,3.08-9.32,6.54-14.59,4.59-10.62-3.3-19.47-10.31-28.42-16.63-10.54-7.64-21.21-16.48-26.12-28.92-3.28-7.7-2.84-17.08,1.92-24.07,5.13-8.13,15.24-13,24.79-11.17,9.28,1.66,16.86,7.76,24.25,13.21,2.86-5.21,4.91-10.91,8.51-15.68,2.91-3.92,7.51-6.43,12.37-6.82ZM188.91,18.88c-2.59,5.57-5.54,10.97-9.14,15.95-5.73-3.74-11.1-8.01-16.76-11.85-5-3.19-10.8-6.35-16.94-5.22-9.22,1.63-15.83,11.67-13.41,20.78,3,11.91,12.43,20.67,21.45,28.34,9.25,7.49,18.08,15.83,28.88,21.1,2.09.92,5.16,2.09,6.79-.21,7.72-7.77,12.51-17.81,17.65-27.35,4.79-10.72,11.09-21.38,11.31-33.44.19-5.88-2.34-12.3-7.78-15.13-4.17-2.26-9.08-4.1-13.87-3.12-4.33,1.65-6.19,6.33-8.18,10.15Z"/>
      <path class="cls-1" d="M313.87,38.84c8.23.08,15.78,4.35,22.52,8.71,10.44,7.25,19.67,17.32,23.47,29.65-2.65-1.31-3.93-4.12-5.76-6.28-7.17-9.46-16-17.65-26.11-23.88-4.58-2.95-9.62-5.11-14.12-8.2Z"/>
      <path class="cls-1" d="M300.68,51.75c7.82,1.43,14.43,6.3,21.25,10.09,5.47,3.68,11.86,6.67,15.77,12.14-8.23-2.07-15.43-6.88-22.67-11.13-4.98-3.39-10.65-6.21-14.35-11.1Z"/>
      <path class="cls-1" d="M191.01,109.07c27.28-18.82,61.93-25.8,94.54-20.9,28.85,4.6,55.97,19.04,76.14,40.13,18.68,19.9,32.01,45.3,35.54,72.52.35,9.62,2.98,19,2.77,28.66v9.55c-1.86,28.05-12.89,55.4-30.84,77.03-18.81,22.75-45.21,39.38-74.22,45.34-25.91,5.89-53.4,3.39-78.06-6.37-13.29,13.58-31.15,22.34-49.83,25.5-7.4,1.36-14.93,1.97-22.43,2.47h-8.2c-28.05-.91-55.61-10.67-78.2-27.26-25.6-18.67-44.55-46.21-52.9-76.77-3.23-11.51-4.9-23.43-5.32-35.38v-9.63c1.02-16.81,4.49-33.53,11.07-49.07,12.12-29.38,34.58-54.26,62.36-69.62,35.62-19.31,80.28-23,117.58-6.2ZM253.64,94.87c-21.37,1.98-42.12,9.69-59.66,22.04-20.36,14.15-36.52,34.31-45.77,57.33-11.93,28.49-13.21,61.32-3.82,90.72,10.77,35.88,37.99,66.47,72.39,81.32,38.6,17.36,85.94,13.22,120.96-10.51,22.63-15.05,40.48-37.21,50.16-62.62,8.37-20.88,10.81-43.78,9.02-66.09-2.65-12.68-6.62-25.09-12.08-36.85-12.06-24.75-31.41-46.1-55.57-59.48-22.78-12.91-49.55-18.79-75.63-15.86ZM78.61,120.68c-25.02,14.2-45.67,36.27-57.41,62.6-11.13,24.42-14.95,52.14-10.54,78.63,4.26,27.56,17.33,53.64,36.82,73.58,18.67,19.29,43.17,32.86,69.42,38.47,20.44,4.3,41.89,3.91,62.18-1.06,13.61-3.34,25.64-10.77,37.4-18.11-14.39-5.96-27.92-14.13-39.46-24.62-6.56,4.19-13.76,7.52-21.55,8.52-25.45,4.15-52.08-3.41-72.94-18.2-14.75-10.65-26.59-25.83-31.54-43.49-7.25-24.96-8.03-52.73,2.45-76.91,16.3-38.18,60.25-62.74,101.28-55.29,9.32-13.54,21.15-25.29,34.55-34.8-8.69-2.34-17.47-4.47-26.43-5.5-28.87-3.74-58.73,2.24-84.23,16.18ZM101.33,159.49c-19.03,10.42-34.79,27.45-41.97,48.09-7.77,21.88-6.5,46.13-.12,68.18,5.11,17.86,17.85,32.76,33.26,42.74,19.55,12.4,43.34,18.72,66.44,15.62,5.86-.41,11.19-3.03,16.83-4.43-10.07-9.18-18.88-19.78-26.01-31.39-15.38-25.76-22.62-56.43-19.69-86.34,1.81-23.23,10.23-45.69,22.96-65.11-17.92-.1-36.01,3.86-51.7,12.64Z"/>
      <path class="cls-1" d="M253.48,130.64c21.3-3.19,43.87,1.18,61.94,13.09,23.79,15.04,40.41,41.9,40.87,70.31,6.02,33.88-8.3,70.57-35.77,91.32-17.09,13-38.99,19.89-60.46,17.79-29.06-2.45-57.73-17.72-73.38-42.77-7.65-11.75-10.82-25.74-12.76-39.45-2.91-21.48-.06-44.2,10.61-63.29,13.98-25.31,40.55-42.63,68.95-47ZM240.47,141.9c8.69,7.35,15.7,16.48,21.7,26.09,13.11,21.91,20.14,47.5,19.57,73.06-.62,26.4-9.44,52.72-25.74,73.6,19.51,3.16,40.02-1.27,56.6-11.97,18.9-11.91,32.43-31.39,38.47-52.76,3.44-11.52,4.39-23.61,4.55-35.57-2.68-12.44-6.59-24.81-13.39-35.65-10.78-17.86-28.2-31.58-48.07-37.89-17.4-5.47-36.51-4.97-53.69,1.09ZM189.95,185.92c-8.59,18.37-9.97,39.44-6.44,59.23,1.56,8.47,3.43,17.05,7.42,24.76,5.36,11.13,13.86,20.59,23.82,27.82,8.44-15.64,14.48-32.79,15.68-50.63,1.95-23.7-4.44-47.98-17.97-67.56-2.71-4.33-6.41-8.04-8.47-12.77,7.52,2.93,12.8,9.47,17.77,15.54,14.18,18.87,19.94,43.42,17.26,66.74-2.18,18.41-9.1,36.72-21.84,50.45,10.79,6.95,22.76,12.34,35.46,14.55,8.61-16.76,15.98-34.43,18.67-53.21,4.94-31.02-1.51-63.31-16.15-90.93-5.06-9.46-11.19-18.28-17.53-26.92-20.52,7.6-38.25,23.09-47.68,42.93Z"/>
    </g>
  </g>
</svg>