<?xml version="1.0" encoding="UTF-8"?>
<svg id="Capa_2" data-name="Capa 2" xmlns="http://www.w3.org/2000/svg" viewBox="0 0 400 400.8">
  <defs>
    <style>
      .cls-1 {
        fill: #f7f5f2;
      }
    </style>
  </defs>
  <g id="Layer_1" data-name="Layer 1">
    <path class="cls-1" d="M352.8,0h6.33c9.95.96,19.8,4.76,27.1,11.73,8.06,7.72,13.04,18.5,13.77,29.64v4.32c-.79,11.76-6.4,23.22-15.39,30.88-21.33,21.17-42.47,42.53-63.8,63.69,1.27,12.6,2.7,25.17,3.97,37.76,5.35-7.08,15.6-9.75,23.82-6.57,4.94,1.88,9.57,5.12,12.14,9.85,4.12,6.99,3.68,16.11-.27,23.08-3.04,5.8-8.89,9.21-13.4,13.74-5.43,5.39-11.17,10.47-17.38,14.96,1.19,11.85,2.17,23.72,3.31,35.58,2.69-2.87,4.63-6.59,8.22-8.48,5.27-2.75,11.54-4.2,17.38-2.54,7.99,2.3,14.27,9.39,15.91,17.51,1.46,7.68-1.47,15.96-7.27,21.16-9.55,8.9-19.26,17.66-29.69,25.52.74,14.75,2.46,29.43,3.35,44.18.06,4.28-.09,9.29-3.52,12.38-6.46,6.21-12.96,12.39-19.43,18.59-5.37,5.07-14.62,5.13-19.93-.04-3.35-3.34-4.49-8.09-5.83-12.46-17.33-55.45-34.18-111.05-51.12-166.63-15.39,14.67-30.4,29.72-45.75,44.42-5.88,5.92-12.03,11.6-17.76,17.65,1.22,23.71,3.35,47.39,4.49,71.12.3,6.05,1.39,12.08.87,18.14-.06,2.55-2.02,4.38-3.61,6.13-5.15,5.2-10.33,10.39-15.78,15.29-2.91,2.62-5.59,5.96-9.58,6.9-3.78.48-8.42-.81-9.94-4.66-2.27-6.46-4.17-13.05-6.2-19.59-8.1-27.54-16.55-54.98-24.71-82.5,11.16,32.07,22.09,64.21,32.69,96.46.59,1.66,1.08,3.44,2.2,4.85,2.08,2.06,5.98,2.41,8.03.11,4.68-4.71,8.92-9.85,13.74-14.43,2.24-2.37,4.91-4.4,6.69-7.15.52-3.9.05-7.85-.3-11.74-2.63-24.93-5.22-49.86-7.89-74.79-.18-3.18-1.62-7.09,1.4-9.39,21.38-21.96,42.82-43.85,64.26-65.76,1.88-1.79,3.41-4.31,6.07-5.02,2.25-.83,4.4.57,6.41,1.42,8.73,27.31,17.84,54.51,26.71,81.78,8.36,25.21,16.4,50.53,25.03,75.65,2.52,8.09,4.77,16.28,7.86,24.17,6.51-6.07,12.68-12.48,18.94-18.8-6.82-76.07-13.36-152.16-20.09-228.23-.6-3.3.84-6.54,3.38-8.64,7.46-6.89,14.65-14.08,21.82-21.28,14.49-14.49,29.03-28.92,43.22-43.7,6.44-5.9,11.32-14.26,10.43-23.27-.34-13.69-12.01-25.93-25.64-26.95-8.79-.84-17.3,3.5-23.3,9.68-14.3,14.38-28.74,28.63-42.94,43.11-7.05,7.61-14.79,14.52-22.04,21.93-1.96,1.84-3.84,4.35-6.76,4.46-3.38.1-6.73-.45-10.08-.69-70.33-6.18-140.65-12.35-210.98-18.51-3.34-.27-6.68-.78-10.04-.78-3.32,2.55-5.95,5.87-9.01,8.72-3.23,3.44-6.95,6.44-9.81,10.21,57.9,19.69,116.22,38.17,174.36,57.18,3.33,1.29,8.37,1.55,9.32,5.78,1,2.2-1.32,3.66-2.53,5.15-23.22,22.76-46.59,45.37-69.78,68.15-1.17,1.15-2.91,1.02-4.41.91-27.02-2.74-54-5.88-81.06-8.31-2.93-.23-5.87-.61-8.81-.32-2.4,1.71-3.79,4.45-5.99,6.4-4.54,4.16-8.85,8.56-13.44,12.66-2.07,1.84-4.39,4.3-3.52,7.34.43,2.51,2.76,3.98,5.04,4.63,32.69,10.76,65.26,21.9,97.78,33.15-17.77-5.17-35.44-10.68-53.18-15.95-15.59-4.72-31.27-9.16-46.76-14.17-4.4-1.32-7.35-6.12-6.82-10.63.58-3.15,2.95-5.53,5.22-7.61,6.14-5.53,12.26-11.11,17.81-17.24,3.25-3.51,8.35-2.66,12.6-2.34,27.12,1.31,54.2,3.46,81.29,5.3,20.65-21.26,41.36-42.47,62.06-63.69-57.37-17.54-114.79-34.93-172.17-52.45-5.45-1.36-9.21-6.34-10.11-11.74v-3.03c.43-6.86,6.16-11.25,10.51-15.86,4.87-4.76,9.01-10.3,14.47-14.43,3.63-2.87,8.58-2.43,12.92-2.35,13.76,1.09,27.51,2.18,41.26,3.23,8.17-10.34,17.18-19.95,26.24-29.5,6.17-6.96,16.79-9.62,25.47-6.26,11.64,4.53,16.44,19.97,11.27,30.89-1.71,4.13-5.74,6.44-9.16,8.98,12.02,1.01,24.02,2.52,36.07,3.01,1.85-1.46,2.95-3.71,4.42-5.54,4.47-6.41,10.26-11.7,15.29-17.65,2.55-2.85,4.81-6.18,8.35-7.92,7.34-3.99,16.71-3.19,23.67,1.27,6.95,4.24,10.65,12.88,9.8,20.86-1.03,5.14-2.86,10.45-6.89,14.03,12.02.87,24.02,2.14,36.05,3.1,21.47-21.99,43.17-43.77,65.08-65.33,7.26-7.78,17.48-12.53,27.98-13.87ZM111.37,50.38c-5.87,5.08-11.52,10.41-17.64,15.18,8.66.66,17.29,1.76,25.97,2.29,3.1-3.89,6.4-7.63,10-11.06.42-2.28,1.24-4.55,1.01-6.89-.9-4.33-5.36-7.77-9.81-6.92-4.34.53-6.48,4.83-9.53,7.4ZM204.13,55.24c-6.59,6.04-13.41,11.82-20.31,17.5,8.55.88,17.11,1.57,25.66,2.47,2.44-4.03,6.5-7.06,8-11.63,1.66-6.85-7.92-13.49-13.35-8.34ZM324.87,190.18c.71,8.69,1.57,17.38,2.4,26.06,3.7-4.35,7.59-8.53,11.44-12.74,2.91-3.6,7.32-6.55,7.86-11.51.09-4.59-3.84-9.31-8.67-8.89-5.17.36-8.96,4.35-13.03,7.08ZM332,280.73c.97,8.53,1.71,17.08,2.44,25.63,4.8-6.47,10.61-12.06,15.9-18.11,2.41-2.74,6.02-5.21,5.99-9.26.67-4.67-3.63-9.15-8.27-8.92-6.34,1.84-10.59,7.28-16.06,10.66Z"/>
  </g>
</svg>