<?xml version="1.0" encoding="UTF-8"?>
<svg id="Capa_2" data-name="Capa 2" xmlns="http://www.w3.org/2000/svg" viewBox="0 0 159.74 139.15">
  <defs>
    <style>
      .cls-1 {
        fill: #a9a9a9;
      }
    </style>
  </defs>
  <g id="Layer_1" data-name="Layer 1">
    <g>
      <path class="cls-1" d="M52.47,9.48C54.28,3.85,60.01-.28,65.96.01c9.54.02,19.09-.03,28.64.02,5.67.02,10.95,4.12,12.69,9.47,1.18,3.48.56,7.21.78,10.81,11.23-.04,22.46-.07,33.69,0,9.3.17,17.56,8.24,17.95,17.53.08,5.35.02,10.71.02,16.05-21.84,6.24-43.68,12.5-65.52,18.73-.1-2.21.27-4.6-.87-6.61-1.21-2.35-3.77-3.99-6.43-3.92-4.68-.02-9.37-.02-14.04,0-2.68-.08-5.24,1.59-6.45,3.94-1.13,2.01-.77,4.38-.86,6.59C43.7,66.4,21.86,60.14.02,53.9c0-5.36-.05-10.72.02-16.08.4-9.26,8.63-17.3,17.89-17.5,11.24-.08,22.49-.09,33.73,0,.29-3.61-.39-7.35.82-10.84ZM58.69,11.59c-.79,2.82-.32,5.79-.43,8.68,14.41,0,28.8,0,43.21,0-.03-2.44.13-4.89-.11-7.32-.45-3.64-3.89-6.59-7.56-6.44-9.3,0-18.6,0-27.91,0-3.18-.1-6.21,2.09-7.21,5.09Z"/>
      <path class="cls-1" d="M.03,60.48c21.85,6.25,43.72,12.45,65.56,18.78,0,3.2-.5,7.02,2.21,9.35,3.2,3.21,8.09,1.74,12.11,2.07,3.99-.32,8.84,1.12,12.03-2.04,2.73-2.33,2.24-6.18,2.24-9.38,21.84-6.32,43.7-12.52,65.56-18.77,0,20.3.02,40.62,0,60.92-.27,9.32-8.52,17.6-17.87,17.72-41.05.05-82.11.02-123.15.02C9.05,139.44.3,131.02.03,121.43,0,101.12,0,80.8.03,60.48Z"/>
      <path class="cls-1" d="M71.94,68.58c5.28-.31,10.6-.33,15.88.02-.04,5.12.33,10.34-.17,15.4-2.42.91-5.22.16-7.79.39-2.66-.26-5.57.63-8.03-.59.17-5.08-.05-10.16.12-15.23Z"/>
    </g>
  </g>
</svg>