<?xml version="1.0" encoding="UTF-8"?>
<svg id="Capa_2" data-name="Capa 2" xmlns="http://www.w3.org/2000/svg" viewBox="0 0 551.32 97.57">
  <defs>
    <style>
      .cls-1 {
        fill: #a9a9a9;
      }
    </style>
  </defs>
  <g id="Layer_1" data-name="Layer 1">
    <g>
      <g>
        <path class="cls-1" d="M525.13,78.32c-7,6.78-16.86,10.56-26.49,10.52-1.25,0-2.39-.11-3.64-.25-11.98-1.41-22.69-8.71-28.38-19.38-2.95-5.55-4.3-11.69-4.21-17.98.1-6.63,1.93-13.11,5.41-18.73,1.71-2.76,3.79-5.14,6.03-7.49l13.67-13.61,11.65-11.4,11.57,11.31-8.36,8.48-15.95,15.83c-1.49,1.46-2.89,2.88-4.12,4.56-4.61,6.28-5.22,14.78-1.55,21.65,3.65,6.84,10.85,11.11,18.63,10.86,5.7-.19,11.01-2.65,14.86-6.83l25.52-25.5,11.54,11.78-26.19,26.19Z"/>
        <path class="cls-1" d="M531.19,31.86l-26.14,26.07c-3.57,3.56-9.52,2.79-12.39-1.17-2.56-3.53-2.04-8.3,1.22-11.19l25.52-25.54-8.28-8.73,17.43-.07,6.67.04h4.24c.36-.01.55.37.52.71l-.13,13.48-.18,14.6-8.49-8.2Z"/>
      </g>
      <g>
        <path class="cls-1" d="M0,80.19V17.47h47.4v11.65H14.43v39.43h34.14v11.65H0ZM13.35,54.02v-11.38h30.2v11.38H13.35Z"/>
        <path class="cls-1" d="M59.14,80.19V31.98h13.35v13.35l-2.51-4.03c1.73-3.23,4.21-5.7,7.44-7.44,3.23-1.73,6.9-2.6,11.02-2.6,3.82,0,7.24.76,10.26,2.28,3.02,1.52,5.39,3.85,7.12,6.99,1.73,3.14,2.6,7.15,2.6,12.05v27.6h-13.98v-25.45c0-3.88-.85-6.75-2.55-8.6-1.7-1.85-4.11-2.78-7.21-2.78-2.21,0-4.2.48-5.96,1.43-1.76.96-3.14,2.36-4.12,4.21-.99,1.85-1.48,4.3-1.48,7.35v23.83h-13.98Z"/>
        <path class="cls-1" d="M121.06,80.19V13.7h13.98v66.49h-13.98Z"/>
        <path class="cls-1" d="M162.9,80.91c-3.7,0-6.9-.64-9.59-1.93-2.69-1.28-4.76-3.03-6.23-5.24-1.46-2.21-2.2-4.69-2.2-7.44s.7-5.3,2.11-7.48c1.4-2.18,3.63-3.87,6.68-5.06,3.05-1.19,7.05-1.79,12.01-1.79h12.72v8.06h-11.29c-3.29,0-5.54.54-6.77,1.61-1.23,1.08-1.84,2.42-1.84,4.03,0,1.79.7,3.21,2.11,4.26,1.4,1.05,3.3,1.57,5.69,1.57s4.52-.54,6.41-1.61,3.21-2.72,3.99-4.93l2.15,6.54c-1.02,2.99-2.87,5.3-5.56,6.94-2.69,1.64-6.15,2.46-10.39,2.46ZM177.6,80.19v-9.41l-.9-2.06v-16.85c0-2.99-.91-5.32-2.73-6.99-1.82-1.67-4.61-2.51-8.38-2.51-2.57,0-5.09.4-7.57,1.21-2.48.81-4.61,1.9-6.41,3.27l-4.93-9.77c2.63-1.91,5.79-3.36,9.5-4.35,3.7-.99,7.47-1.48,11.29-1.48,7.35,0,13.05,1.73,17.11,5.2,4.06,3.46,6.09,8.87,6.09,16.22v27.51h-13.08Z"/>
        <path class="cls-1" d="M226.97,80.91c-5.2,0-9.81-1.06-13.84-3.18-4.03-2.12-7.2-5.06-9.5-8.83-2.3-3.76-3.45-8.03-3.45-12.81s1.15-9.11,3.45-12.81c2.3-3.7,5.47-6.63,9.5-8.78,4.03-2.15,8.65-3.23,13.84-3.23s9.51,1.06,13.31,3.18c3.79,2.12,6.53,5.12,8.2,9l-10.75,5.91c-1.31-2.27-2.9-3.93-4.75-4.97-1.85-1.04-3.88-1.57-6.09-1.57-2.33,0-4.45.52-6.36,1.57-1.91,1.05-3.44,2.55-4.57,4.53-1.14,1.97-1.7,4.36-1.7,7.17s.57,5.21,1.7,7.21c1.13,2,2.66,3.53,4.57,4.57,1.91,1.05,4.03,1.57,6.36,1.57,2.21,0,4.24-.52,6.09-1.57,1.85-1.04,3.43-2.73,4.75-5.06l10.75,5.91c-1.67,3.82-4.41,6.81-8.2,8.96-3.79,2.15-8.23,3.23-13.31,3.23Z"/>
        <path class="cls-1" d="M279.92,80.91c-5.5,0-10.3-1.08-14.43-3.23-4.12-2.15-7.32-5.09-9.59-8.83-2.27-3.73-3.4-7.99-3.4-12.77s1.09-9.05,3.27-12.81c2.18-3.76,5.23-6.7,9.14-8.83,3.91-2.12,8.32-3.18,13.22-3.18s8.97,1.02,12.77,3.05c3.79,2.03,6.79,4.9,9.01,8.6,2.21,3.7,3.32,8.15,3.32,13.35,0,.54-.03,1.15-.09,1.84-.06.69-.12,1.33-.18,1.93h-39.16v-8.15h31.81l-5.47,2.42c.06-2.51-.42-4.69-1.43-6.54-1.02-1.85-2.42-3.3-4.21-4.35-1.79-1.04-3.88-1.57-6.27-1.57s-4.5.52-6.32,1.57c-1.82,1.05-3.24,2.51-4.26,4.39-1.02,1.88-1.52,4.11-1.52,6.68v2.15c0,2.69.6,5.02,1.79,6.99,1.19,1.97,2.84,3.48,4.93,4.53,2.09,1.05,4.6,1.57,7.53,1.57,2.51,0,4.73-.39,6.68-1.16,1.94-.78,3.72-1.94,5.33-3.49l7.44,8.06c-2.21,2.51-4.99,4.44-8.33,5.78-3.35,1.34-7.2,2.02-11.56,2.02Z"/>
        <path class="cls-1" d="M324.82,80.19l-20.25-48.21h14.34l16.85,41.49h-7.17l17.56-41.49h13.35l-20.34,48.21h-14.34Z"/>
        <path class="cls-1" d="M372.22,25.26c-2.63,0-4.75-.75-6.36-2.24-1.61-1.49-2.42-3.34-2.42-5.56s.81-4.06,2.42-5.56c1.61-1.49,3.73-2.24,6.36-2.24s4.67.7,6.32,2.11c1.64,1.4,2.46,3.21,2.46,5.42,0,2.33-.81,4.26-2.42,5.78s-3.73,2.29-6.36,2.29ZM365.23,80.19V31.98h13.98v48.21h-13.98Z"/>
        <path class="cls-1" d="M392.2,97.57V31.98h13.35v9.86l-.27,14.34.9,14.25v27.15h-13.98ZM420.6,80.91c-4,0-7.53-.9-10.57-2.69-3.05-1.79-5.42-4.53-7.12-8.2-1.7-3.67-2.55-8.32-2.55-13.93s.81-10.33,2.42-13.98c1.61-3.64,3.96-6.36,7.03-8.15,3.08-1.79,6.68-2.69,10.8-2.69,4.6,0,8.71,1.03,12.32,3.09,3.61,2.06,6.48,4.94,8.6,8.65,2.12,3.7,3.18,8.06,3.18,13.08s-1.06,9.45-3.18,13.13c-2.12,3.67-4.99,6.54-8.6,8.6-3.62,2.06-7.72,3.09-12.32,3.09ZM418.27,69.44c2.33,0,4.4-.54,6.23-1.61,1.82-1.08,3.28-2.61,4.39-4.61,1.1-2,1.66-4.38,1.66-7.12s-.55-5.2-1.66-7.17c-1.11-1.97-2.57-3.48-4.39-4.53-1.82-1.04-3.9-1.57-6.23-1.57s-4.42.52-6.27,1.57c-1.85,1.05-3.33,2.55-4.44,4.53-1.11,1.97-1.66,4.36-1.66,7.17s.55,5.12,1.66,7.12c1.1,2,2.58,3.54,4.44,4.61,1.85,1.08,3.94,1.61,6.27,1.61Z"/>
      </g>
    </g>
  </g>
</svg>