<?xml version="1.0" encoding="UTF-8"?>
<svg id="Capa_2" data-name="Capa 2" xmlns="http://www.w3.org/2000/svg" viewBox="0 0 328.21 34.22">
  <defs>
    <style>
      .cls-1 {
        fill: #fff;
      }
    </style>
  </defs>
  <g id="Layer_1" data-name="Layer 1">
    <g>
      <path class="cls-1" d="M163.43,33.99V7.71c-2.67,0-9.17.12-18.1,1.24V1.82s9.36-1.43,20.33-1.3l6.51.06v33.42h-8.74Z"/>
      <path class="cls-1" d="M28.46,34.16c-18.8,0-28.46-2.44-28.46-2.44V.25h8.71v25.7c4.45.56,10.91,1.07,19.75,1.07,10.47.06,17.05-.63,19.62-.94V.25h8.78v31.47s-9.28,2.44-28.4,2.44Z"/>
      <path class="cls-1" d="M126.05,33.91V8.21c-4.45-.56-10.91-1.07-19.68-1.07-10.41-.06-17.11.69-19.68,1v25.76h-8.71V2.51s9.28-2.51,28.4-2.51,28.46,2.51,28.46,2.51v31.4h-8.78Z"/>
      <path class="cls-1" d="M222.02,34.16c-18.37,0-28.08-2.44-28.08-2.44V2.7s9.53-2.44,28.08-2.44,28.08,2.44,28.08,2.44v7.15s-10.53-2.38-28.08-2.44c-10.28,0-16.8.63-19.43.94l.06,17.74c2.44.31,8.65.94,19.24.94,18.05,0,28.21-2.51,28.21-2.51v7.21s-9.84,2.44-28.08,2.44Z"/>
      <path class="cls-1" d="M300.12,34.22c-18.49-.06-28.08-2.44-28.08-2.44V2.82s9.09-2.44,28.08-2.44,28.08,2.44,28.08,2.44v29.02s-9.78,2.38-28.08,2.38ZM300.06,7.52c-10.28-.06-16.86.63-19.37.94v17.74c2.76.31,9.78,1,19.5,1,8.71,0,14.92-.44,19.24-.94l.06-17.74v.06c-4.39-.56-10.78-1.07-19.43-1.07Z"/>
    </g>
  </g>
</svg>