<?xml version="1.0" encoding="UTF-8"?>
<svg id="Capa_2" data-name="Capa 2" xmlns="http://www.w3.org/2000/svg" viewBox="0 0 147.47 147.47">
  <defs>
    <style>
      .cls-1 {
        fill: #a9a9a9;
      }
    </style>
  </defs>
  <g id="Layer_1" data-name="Layer 1">
    <g>
      <path class="cls-1" d="M0,0c21.85,0,43.69,0,65.54,0v65.54H0c0-21.85,0-43.7,0-65.55ZM24.58,24.57v16.41h16.38v-16.41h-16.38Z"/>
      <path class="cls-1" d="M81.93,0c21.85,0,43.69,0,65.54,0,0,21.85,0,43.7,0,65.55h-65.54c0-21.85,0-43.69,0-65.54ZM106.51,24.57v16.41h16.38v-16.41h-16.38Z"/>
      <path class="cls-1" d="M0,81.92h65.54v65.54c-21.85,0-43.69,0-65.54,0,0-21.85,0-43.7,0-65.55ZM24.58,106.49c0,5.47,0,10.94,0,16.41,5.46,0,10.92,0,16.38,0v-16.41h-16.38Z"/>
      <path class="cls-1" d="M81.93,81.92c8.18,0,16.36-.01,24.54-.02.01,5.46.02,10.92.03,16.39h16.38c0-5.45,0-10.91,0-16.36,8.19,0,16.38,0,24.58,0,0,5.46,0,10.92,0,16.37-8.19,0-16.38,0-24.58,0,0,5.47,0,10.95,0,16.42-2.73,0-5.46,0-8.19,0,0,5.46-.02,10.91,0,16.37h16.37c0-5.46.01-10.92.02-16.38,5.46,0,10.91,0,16.37.01v32.75c-10.92,0-21.85,0-32.77,0,0-5.46,0-10.92,0-16.37-5.46,0-10.92,0-16.38,0,0,5.46,0,10.92,0,16.38-5.46,0-10.92,0-16.38,0,.01-8.19.02-16.38.03-24.57,5.45,0,10.9,0,16.35,0,0-2.73,0-5.46,0-8.19,2.73,0,5.46,0,8.19,0v-8.22c-8.19,0-16.39,0-24.58,0,0-8.19,0-16.37,0-24.56Z"/>
    </g>
  </g>
</svg>