<?xml version="1.0" encoding="UTF-8"?>
<svg id="Capa_2" data-name="Capa 2" xmlns="http://www.w3.org/2000/svg" viewBox="0 0 164.96 164.84">
  <defs>
    <style>
      .cls-1 {
        fill: #a9a9a9;
      }
    </style>
  </defs>
  <g id="Layer_1" data-name="Layer 1">
    <g>
      <path class="cls-1" d="M116.37,145.33c-12.98,12.59-31.28,19.59-49.15,19.52-2.32-.01-4.44-.2-6.75-.47-22.23-2.62-42.11-16.15-52.66-35.97C2.33,118.12-.16,106.73,0,95.04c.18-12.3,3.57-24.32,10.04-34.75,3.18-5.12,7.03-9.54,11.18-13.9l25.36-25.25L68.21,0l21.47,20.99-15.5,15.74-29.59,29.37c-2.76,2.72-5.36,5.35-7.64,8.45-8.56,11.66-9.68,27.43-2.88,40.16,6.78,12.69,20.13,20.62,34.56,20.15,10.58-.34,20.42-4.92,27.57-12.68l47.35-47.32,21.41,21.86-48.59,48.59Z"/>
      <path class="cls-1" d="M127.62,59.12l-48.49,48.38c-6.63,6.61-17.67,5.18-23-2.17-4.74-6.54-3.78-15.41,2.26-20.77l47.36-47.38-15.37-16.21,32.35-.14,12.38.08,7.86-.02c.66,0,1.01.71.97,1.34l-.24,25.02-.33,27.09-15.75-15.22Z"/>
    </g>
  </g>
</svg>