<?xml version="1.0" encoding="UTF-8"?>
<svg id="Capa_2" data-name="Capa 2" xmlns="http://www.w3.org/2000/svg" viewBox="0 0 181.29 127.18">
  <defs>
    <style>
      .cls-1 {
        fill: #bf6505;
      }
    </style>
  </defs>
  <g id="Layer_1" data-name="Layer 1">
    <g>
      <rect class="cls-1" y="114.13" width="38.73" height="13.04"/>
      <rect class="cls-1" y="97.83" width="38.73" height="13.04"/>
      <rect class="cls-1" y="81.52" width="38.73" height="13.04"/>
      <rect class="cls-1" y="65.22" width="38.73" height="13.04"/>
      <rect class="cls-1" y="48.91" width="38.73" height="13.04"/>
      <rect class="cls-1" x="47.52" y="114.13" width="38.73" height="13.04"/>
      <rect class="cls-1" x="47.52" y="97.83" width="38.73" height="13.04"/>
      <rect class="cls-1" x="47.52" y="81.52" width="38.73" height="13.04"/>
      <rect class="cls-1" x="47.52" y="65.22" width="38.73" height="13.04"/>
      <rect class="cls-1" x="47.52" y="48.91" width="38.73" height="13.04"/>
      <rect class="cls-1" x="47.52" y="32.61" width="38.73" height="13.04"/>
      <rect class="cls-1" x="47.52" y="16.3" width="38.73" height="13.04"/>
      <rect class="cls-1" x="47.52" width="38.73" height="13.04"/>
      <rect class="cls-1" x="95.04" y="114.13" width="38.73" height="13.04"/>
      <rect class="cls-1" x="95.04" y="97.83" width="38.73" height="13.04"/>
      <rect class="cls-1" x="95.04" y="81.52" width="38.73" height="13.04"/>
      <rect class="cls-1" x="95.04" y="65.22" width="38.73" height="13.04"/>
      <rect class="cls-1" x="142.57" y="114.13" width="38.73" height="13.04"/>
      <rect class="cls-1" x="142.57" y="97.83" width="38.73" height="13.04"/>
      <rect class="cls-1" x="142.57" y="81.52" width="38.73" height="13.04"/>
      <rect class="cls-1" x="142.57" y="65.22" width="38.73" height="13.04"/>
      <rect class="cls-1" x="142.57" y="48.91" width="38.73" height="13.04"/>
    </g>
  </g>
</svg>