<?xml version="1.0" encoding="UTF-8"?>
<svg id="Capa_2" data-name="Capa 2" xmlns="http://www.w3.org/2000/svg" viewBox="0 0 198.55 210.8">
  <defs>
    <style>
      .cls-1 {
        fill: #ababab;
      }
    </style>
  </defs>
  <g id="Layer_1" data-name="Layer 1">
    <path class="cls-1" d="M179.01,3.21c3.38-.85,6.79-1.65,9.97-3.11,1.94-.19,3.9-.08,5.84-.04,1.48,1.58,3.67,3.09,3.69,5.48,0,50.56-.02,101.12.02,151.68.18,3.7-1.68,7.11-3.58,10.16-2.3,3.32-5.04,6.41-8.42,8.67-3.08,2.08-6.27,4.04-9.74,5.39-4.09,1.66-8.45,2.48-12.77,3.25-4.03.09-8.07.11-12.11,0-4.1-.75-8.27-1.4-12.15-3.01-3.87-1.5-7.56-3.46-10.87-5.96-4.16-3.42-7.95-7.49-10.12-12.49-1.38-3.31-2.44-6.88-2.22-10.51-.22-3.31.78-6.53,1.88-9.61,1.99-5.22,5.88-9.39,10.03-12.99,4.25-3.35,9.27-5.57,14.35-7.33,2.25-.87,4.68-1.07,7.02-1.64,2.38-.66,4.87-.4,7.31-.46,2.41.03,4.82-.06,7.22.09,4.45.93,8.97,1.75,13.11,3.69,2.08.82,3.97,2.02,5.92,3.1.73.46,1.61.46,2.45.48-.04-37.03,0-74.07-.02-111.1.09-1-1.15-2.03-2.11-1.68-6.95,2.72-14.32,4.11-21.47,6.17-11.73,2.96-23.35,6.33-35.06,9.38-13.12,3.4-26.15,7.12-39.27,10.49-1.92.5-4.15.77-5.5,2.38-.09,42.32.01,84.66-.02,126.98-.05,2.09.14,4.2-.16,6.29-.36,1.25-.31,2.55-.33,3.84-.41,5.08-2.25,9.99-5.2,14.14-3.79,5.04-8.84,9.11-14.58,11.72-3.72,1.94-7.84,2.83-11.82,4.05-5.29.17-10.59.04-15.88.07-1.76-.05-3.56.17-5.26-.37-3.5-1.16-7.1-2.05-10.39-3.76-4.19-2.08-8.15-4.73-11.43-8.08-3.96-4.43-7.64-9.88-7.33-16.08.18-4.56-.63-9.39,1.3-13.69,2.46-5.48,6.54-10.2,11.51-13.56,6.3-4.22,13.57-7.15,21.16-7.78,3.12-.29,6.28-1,9.42-.42,3.21.42,6.47.51,9.61,1.39,5.13,1.26,10.11,3.31,14.39,6.43.57.31,1.28.12,1.91.11,0-39.32-.02-78.66.01-117.98.58-2.75,2.76-5.15,5.52-5.84,9.37-2.36,18.63-5.1,27.98-7.51,6.79-1.78,13.56-3.61,20.37-5.33,9.16-2.69,18.4-5.07,27.64-7.46,4.27-1.2,8.56-2.36,12.87-3.43,5.05-1.56,10.22-2.71,15.29-4.19Z"/>
  </g>
</svg>