<?xml version="1.0" encoding="UTF-8"?>
<svg id="Capa_2" data-name="Capa 2" xmlns="http://www.w3.org/2000/svg" viewBox="0 0 647.73 352.65">
  <defs>
    <style>
      .cls-1 {
        fill: #01403d;
      }
    </style>
  </defs>
  <g id="Layer_1" data-name="Layer 1">
    <g>
      <path class="cls-1" d="M284.51.49c87.55-2.34,176.17,3.25,260.86,26.86,19.67,5.97,39.09,13.1,57.22,22.84,12.72,6.98,25.08,15.4,33.74,27.26,6.02,8.12,10.26,17.78,11.05,27.93.85,7.3-.05,14.62-.42,21.92,0,10.03-1.13,20-1.28,30.03-.88,12.13-.89,24.3-2.23,36.39-2.34,16.99-10.8,32.78-22.85,44.85-19.44,20.25-45.82,31.24-70.67,43.16-19.59,8.74-39.72,16.61-58,27.99-15.49,9.57-29.45,21.83-46.39,28.93-17.58,8.13-37.02,11.1-56.19,12.41-36.62,2.34-73.36,1.69-110.01.64-20.94-1.24-42.46-2.38-62.08-10.51-23.27-10.09-41.35-28.83-64.22-39.64-15.9-7.5-32.61-13.09-48.69-20.18-22.49-9.56-45.1-19.53-64.96-33.96-8.31-6.28-16.47-12.97-22.85-21.27-9.35-10.82-14.37-24.89-15.42-39.05C.1,162.54.27,137.95,0,113.38c.04-8.06-.18-16.36,2.51-24.08,2.12-6.83,6.04-12.92,10.53-18.41,9.64-11.32,22.27-19.61,35.48-26.21,10.9-5.34,22.16-9.96,33.73-13.64,31.75-10.85,64.82-17.25,97.99-21.86C214.76,4.04,249.64,1.6,284.51.49ZM157.84,110.52c-29.93,6.77-59.12,17.31-85.84,32.48-3.07,1.92-6.51,3.43-8.94,6.2,20.35,9.11,42.1,15.09,64.23,17.74,24.17,2.89,48.66-2.21,71-11.41,10.47-4.19,20.86-8.98,32.05-10.93,8.57-1.7,17.34-1.8,26.04-2.19,49.01,0,98.02,0,147.04,0,12.25.37,24.79.44,36.5,4.55,13.5,4.73,26.56,10.86,40.56,14.08,14.92,3.89,30.45,4.85,45.79,3.7,16.71-1.54,33.31-4.76,49.17-10.29,2.74-.98,5.6-1.91,7.8-3.91-8.67-4.82-17.43-9.46-26.31-13.9-37.68-18.12-78.95-27.07-120.01-33.65-53.05-8.24-106.96-10.41-160.57-7.97-39.84,1.79-79.69,6.11-118.51,15.5ZM237.74,168.9c-5.25,1.55-9.12,6.87-8.37,12.4.12,46.02-.04,92.06.06,138.08.09,5.17,3.7,9.67,8.09,12.08,4.95,2.32,10.56,1.25,15.81,2.02,9.02.29,18.05-.07,27.04.85,13.36-.37,26.67.94,40.03.67,12.64-.15,25.3.4,37.92-.56,6.02-.32,12.08.28,18.08-.49,6.65-.72,13.36.11,20.01-.69,6.86-.67,14.22.64,20.72-2.12,4.76-2.35,7.84-7.45,7.84-12.75.03-20.01.03-40.03.11-60.04,1.26-22.97-.25-46.01,1.24-68.96-.1-4.99.96-10.53-1.99-14.93-2.73-4.82-8.78-7.01-14.1-6.15-7.26.96-14.61.07-21.89.87-12.98.62-25.99-.24-38.97.67-27.67.7-55.34-.16-83.01-.42-4.69.14-9.33-.78-14.01-.62-4.87.18-9.85-1.58-14.61.09Z"/>
      <g>
        <path d="M257.69,182.36h39.5v39.5h-39.5v-39.5ZM263.34,188c0,9.4,0,18.81,0,28.21h28.21v-28.21c-9.4,0-18.81,0-28.21,0Z"/>
        <path d="M308.48,182.36c1.88,0,3.76,0,5.64,0,0,1.88,0,3.76,0,5.64-1.88,0-3.76,0-5.64,0,0-1.88,0-3.76,0-5.64Z"/>
        <path d="M319.76,182.36c5.64,0,11.28,0,16.93,0,0,3.76,0,7.53,0,11.29-1.88,0-3.76,0-5.64,0,0-1.88,0-3.76,0-5.64-3.76,0-7.52,0-11.28,0v-5.64Z"/>
        <path d="M359.26,182.36h39.5v39.5h-39.5v-39.5ZM364.9,188c0,9.4,0,18.81,0,28.21h28.21v-28.21c-9.4,0-18.81,0-28.21,0Z"/>
        <path d="M302.83,188c1.88,0,3.76,0,5.64,0,0,1.88,0,3.76,0,5.64,1.88,0,3.76,0,5.64,0,0,1.88,0,3.76,0,5.64-1.88,0-3.76,0-5.64,0,0,1.88,0,3.76,0,5.64-1.88,0-3.76,0-5.64,0,0-5.64,0-11.29,0-16.93Z"/>
        <path d="M347.98,188h5.64c0,3.76,0,7.52,0,11.28-3.76,0-7.53,0-11.29,0v-5.64c1.88,0,3.76,0,5.64,0,0-1.88,0-3.76,0-5.64Z"/>
        <path d="M268.98,193.64c5.64,0,11.29,0,16.93,0,0,5.64,0,11.29,0,16.93-5.64,0-11.29,0-16.93,0,0-5.64,0-11.29,0-16.93Z"/>
        <path d="M325.41,193.64c1.88,0,3.76,0,5.64,0,0,1.88,0,3.76,0,5.64,1.88,0,3.76,0,5.64,0,0,1.88,0,3.76,0,5.64-3.76,0-7.52,0-11.28,0,0,1.88,0,3.76,0,5.64-1.88,0-3.76,0-5.64,0,0-1.88,0-3.76,0-5.64-1.88,0-3.76,0-5.64,0v-5.64c3.76,0,7.52,0,11.28,0,0-1.88,0-3.76,0-5.64Z"/>
        <path d="M370.55,193.64c5.64,0,11.29,0,16.93,0,0,5.64,0,11.29,0,16.93-5.64,0-11.29,0-16.93,0,0-5.64,0-11.29,0-16.93Z"/>
        <path d="M308.48,204.93c1.88,0,3.76,0,5.64,0,0,1.88,0,3.76,0,5.64-1.88,0-3.76,0-5.64,0,0-1.88,0-3.76,0-5.64Z"/>
        <path d="M336.69,204.93c1.88,0,3.76,0,5.64,0,0,1.88,0,3.76,0,5.64-1.88,0-3.76,0-5.64,0v-5.64Z"/>
        <path d="M347.98,204.93c1.88,0,3.76,0,5.64,0,0,7.52,0,15.05,0,22.57h-16.93c0-3.76,0-7.53,0-11.29,1.88,0,3.76,0,5.64,0,0,1.88,0,3.76,0,5.64,1.88,0,3.76,0,5.64,0,0-5.64,0-11.29,0-16.93Z"/>
        <path d="M325.41,210.57c3.76,0,7.52,0,11.29,0,0,1.88,0,3.76,0,5.64-1.88,0-3.76,0-5.64,0,0,1.88,0,3.76,0,5.64-1.88,0-3.76,0-5.64,0,0-3.76,0-7.52,0-11.29Z"/>
        <path d="M302.83,216.22h5.64c0,5.64,0,11.29,0,16.93-1.88,0-3.76,0-5.64,0,0-5.64,0-11.29,0-16.93Z"/>
        <path d="M314.12,216.22h5.64c0,1.88,0,3.76,0,5.64-1.88,0-3.76,0-5.64,0,0-1.88,0-3.76,0-5.64Z"/>
        <path d="M319.76,221.86c1.88,0,3.76,0,5.64,0,0,1.88,0,3.76,0,5.64-1.88,0-3.76,0-5.64,0,0-1.88,0-3.76,0-5.64Z"/>
        <path d="M257.69,227.5h5.64c0,3.76,0,7.52,0,11.29-1.88,0-3.76,0-5.64,0,0-3.76,0-7.52,0-11.29Z"/>
        <path d="M291.55,227.5c1.88,0,3.76,0,5.64,0,0,1.88,0,3.76,0,5.64-1.88,0-3.76,0-5.64,0,0-1.88,0-3.76,0-5.64Z"/>
        <path d="M331.05,227.5c1.88,0,3.76,0,5.64,0,0,1.88,0,3.76,0,5.64,3.76,0,7.52,0,11.28,0,0,3.76,0,7.52,0,11.29-5.64,0-11.29,0-16.93,0,0-1.88,0-3.76,0-5.64-1.88,0-3.76,0-5.64,0,0-1.88,0-3.76,0-5.64,1.88,0,3.76,0,5.64,0,0-1.88,0-3.76,0-5.64Z"/>
        <path d="M353.62,227.5c3.76,0,7.53,0,11.29,0,0,1.88,0,3.76,0,5.64-3.76,0-7.52,0-11.28,0,0-1.88,0-3.76,0-5.64Z"/>
        <path d="M376.19,227.5c5.64,0,11.28,0,16.93,0,0,3.76,0,7.52,0,11.28,1.88,0,3.76,0,5.64,0,0,5.64,0,11.29,0,16.93-1.88,0-3.76,0-5.64,0,0-3.76,0-7.52,0-11.28-1.88,0-3.76-.01-5.63-.01,0-1.88-.01-3.76-.01-5.64h-5.63c0,3.76,0,7.52,0,11.29-1.88,0-3.76,0-5.64,0,0-3.76,0-7.53,0-11.29-1.88,0-3.76,0-5.63,0,0,1.88-.01,3.76-.01,5.64-1.88,0-3.76,0-5.64,0,0-3.76,0-7.53,0-11.29,3.76,0,7.52,0,11.28,0,0-1.88,0-3.76,0-5.64Z"/>
        <path d="M268.98,233.14h5.64c0,1.88,0,3.76,0,5.64-1.88,0-3.76,0-5.64,0v-5.64Z"/>
        <path d="M280.26,233.15c3.76,0,7.52,0,11.28,0,0,1.88,0,3.76,0,5.64,1.88,0,3.76,0,5.64,0,0,1.88,0,3.76,0,5.64-3.76,0-7.52,0-11.28,0,0,1.88,0,3.76,0,5.64-1.88,0-3.76,0-5.64,0,0,1.88,0,3.76,0,5.64-3.76,0-7.52,0-11.28,0v-5.64c1.88,0,3.76,0,5.64,0,0-1.88,0-3.76,0-5.64,1.88,0,3.76,0,5.64,0,0-3.76,0-7.52,0-11.28Z"/>
        <path d="M297.19,233.14c1.88,0,3.76,0,5.64,0,0,1.88,0,3.76,0,5.64-1.88,0-3.76,0-5.64,0v-5.65Z"/>
        <path d="M314.12,233.14h5.64c0,1.88,0,3.76,0,5.64-1.88,0-3.76,0-5.64,0,0-1.88,0-3.76,0-5.64Z"/>
        <path d="M302.84,238.79c1.88,0,3.76,0,5.64,0,0,3.76,0,7.52,0,11.29-3.76,0-7.52,0-11.28,0,0-1.88,0-3.76,0-5.64,1.88,0,3.76,0,5.64,0,0-1.88,0-3.76,0-5.64Z"/>
        <path d="M319.76,238.79c1.88,0,3.76,0,5.64,0,0,1.88,0,3.76,0,5.64-1.88,0-3.76,0-5.64,0,0-1.88,0-3.76,0-5.64Z"/>
        <path d="M353.62,238.79h5.63c0,1.88,0,3.76.01,5.64,1.88,0,3.76,0,5.64,0,0,1.87,0,3.75,0,5.63,1.88,0,3.76,0,5.64.01,0,3.76,0,7.52,0,11.28,3.76,0,7.52,0,11.28,0,0,1.88,0,3.76.01,5.64,1.88,0,3.76,0,5.64,0,0,3.76,0,7.52,0,11.29-1.88,0-3.76,0-5.64,0,0-1.88,0-3.76,0-5.64-1.88,0-3.76,0-5.64,0,0-1.88,0-3.76,0-5.64-1.88,0-3.76,0-5.64,0v5.64c1.88,0,3.76,0,5.64,0v28.21c-3.76,0-7.52,0-11.28,0,0,1.88,0,3.76,0,5.64-3.76,0-7.52,0-11.28,0,0-1.88,0-3.76,0-5.64-1.88,0-3.76,0-5.64,0,0,1.88,0,3.76,0,5.64-1.88,0-3.76,0-5.64,0,0,5.64,0,11.28,0,16.93h-16.93c0-1.88,0-3.76,0-5.64,3.76,0,7.53,0,11.29,0v-5.64c-3.76,0-7.52,0-11.28,0,0,1.88,0,3.76,0,5.64-1.88,0-3.76,0-5.64,0,0-3.76,0-7.53,0-11.29,3.76,0,7.52,0,11.28,0v-5.63c-1.88,0-3.76-.01-5.64-.01,0-3.76,0-7.52,0-11.28,1.88,0,3.76,0,5.64,0,0,1.88,0,3.76.01,5.64,1.88,0,3.76,0,5.63,0,0,1.88,0,3.76,0,5.64,1.88,0,3.76,0,5.64,0,0-1.88,0-3.76,0-5.64-1.88,0-3.76,0-5.64,0,0-3.76,0-7.52,0-11.28,1.88,0,3.76,0,5.64,0,0,1.88,0,3.76,0,5.65,1.88,0,3.76,0,5.64,0,0-1.88,0-3.76,0-5.64-1.88,0-3.76,0-5.64,0,0-1.88,0-3.76,0-5.64-3.76,0-7.52,0-11.28,0,0-1.88,0-3.76,0-5.64,3.76,0,7.53,0,11.29,0,0-1.88,0-3.76,0-5.64-1.88,0-3.76,0-5.64,0v-5.64c1.88,0,3.76,0,5.64,0,0-3.76,0-7.52,0-11.29,1.88,0,3.76,0,5.64,0,0,1.88,0,3.76,0,5.64,1.88,0,3.76,0,5.64.01,0,1.87,0,3.75,0,5.63-1.88,0-3.76,0-5.64.01v5.64c3.76,0,7.52,0,11.28,0,0-1.88,0-3.76.01-5.63,1.88,0,3.76-.01,5.64-.01,0-1.88,0-3.76,0-5.63-1.88,0-3.76-.01-5.64-.01,0-1.88-.01-3.76-.01-5.63-3.76,0-7.52,0-11.28,0,0-1.88,0-3.76,0-5.64,1.88,0,3.76,0,5.64,0,0-1.88,0-3.76.01-5.64ZM353.62,278.28c0,5.64,0,11.29,0,16.93,5.64,0,11.29,0,16.93,0,0-5.64,0-11.29,0-16.93-5.64,0-11.29,0-16.93,0Z"/>
        <path d="M257.69,244.43h5.64v33.86c-1.88,0-3.76,0-5.64,0,0-11.29,0-22.57,0-33.86Z"/>
        <path d="M325.41,244.43h5.64c0,3.76,0,7.52,0,11.29-1.88,0-3.76,0-5.64,0,0-3.76,0-7.52,0-11.29Z"/>
        <path d="M285.9,250.07h11.29c0,1.88,0,3.76,0,5.64-3.76,0-7.53,0-11.29,0,0-1.88,0-3.76,0-5.64Z"/>
        <path d="M314.12,250.07h5.64c0,1.88,0,3.76,0,5.64-1.88,0-3.76,0-5.64,0,0-1.88,0-3.76,0-5.64Z"/>
        <path d="M297.19,255.71h5.64c0,1.88,0,3.76,0,5.64-1.88,0-3.76,0-5.64,0,0-1.88,0-3.76,0-5.64Z"/>
        <path d="M308.48,255.71c1.88,0,3.76,0,5.64,0,0,1.88,0,3.76,0,5.64,5.64,0,11.28,0,16.92,0,0,1.88,0,3.76,0,5.64-1.88,0-3.76,0-5.64,0,0,3.76,0,7.52,0,11.28-1.88,0-3.76,0-5.64,0,0,1.88,0,3.76,0,5.64,1.88,0,3.76,0,5.64,0,0,1.88,0,3.76,0,5.63-1.88,0-3.76,0-5.64,0,0,1.88-.01,3.76-.01,5.64-1.88,0-3.76,0-5.63,0,0-1.88,0-3.76,0-5.64-1.88,0-3.76,0-5.64,0,0-1.88,0-3.76,0-5.64,1.88,0,3.76,0,5.65,0,0-1.88,0-3.76,0-5.64h-5.64c0,1.88,0,3.76,0,5.64-1.88,0-3.76,0-5.64,0,0-3.76,0-7.52,0-11.28-1.88,0-3.76,0-5.64,0v-5.64c1.88,0,3.76,0,5.64,0,0-1.88,0-3.76,0-5.64,1.88,0,3.76,0,5.64,0,0-1.88,0-3.76,0-5.64ZM308.48,267v5.64c1.88,0,3.76,0,5.64,0,0-1.88,0-3.76,0-5.64h-5.64Z"/>
        <path d="M387.48,255.72c1.88,0,3.76,0,5.64,0,0,1.88,0,3.76,0,5.64,1.88,0,3.76,0,5.64,0,0,3.76,0,7.52,0,11.28-1.88,0-3.76,0-5.64,0,0-1.88,0-3.76,0-5.64-1.88,0-3.76,0-5.64,0,0-3.76,0-7.52,0-11.28Z"/>
        <path d="M268.98,261.36h5.64c0,1.88,0,3.76,0,5.64-1.88,0-3.76,0-5.64,0,0-1.88,0-3.76,0-5.64Z"/>
        <path d="M285.9,261.36c3.76,0,7.52,0,11.29,0,0,1.88,0,3.76,0,5.64-3.76,0-7.52,0-11.29,0,0-1.88,0-3.76,0-5.64Z"/>
        <path d="M274.62,267c3.76,0,7.52,0,11.28,0,0,1.88,0,3.76,0,5.64-1.88,0-3.76,0-5.64,0,0,1.88,0,3.76,0,5.64-3.76,0-7.52,0-11.28,0v-5.64c1.88,0,3.76,0,5.64,0,0-1.88,0-3.76,0-5.64Z"/>
        <path d="M285.91,272.64c3.76,0,7.52,0,11.29,0,0,1.88,0,3.76,0,5.64-3.76,0-7.53,0-11.29,0,0-1.88,0-3.76,0-5.64Z"/>
        <path d="M325.41,278.28c1.88,0,3.76,0,5.64,0,0,1.88,0,3.76,0,5.64-1.88,0-3.76,0-5.64,0v-5.65Z"/>
        <path d="M257.69,283.93h39.5v39.5h-39.5v-39.5ZM263.34,289.57c0,9.4,0,18.81,0,28.21h28.21v-28.21c-9.4,0-18.81,0-28.21,0Z"/>
        <path d="M359.26,283.93h5.64c0,1.88,0,3.76,0,5.64-1.88,0-3.76,0-5.64,0v-5.64Z"/>
        <path d="M393.12,283.93h5.64c0,1.88,0,3.76,0,5.64-1.88,0-3.76,0-5.64,0,0-1.88,0-3.76,0-5.64Z"/>
        <path d="M387.48,289.57c1.88,0,3.76,0,5.64,0,0,1.88,0,3.76,0,5.64,1.88,0,3.76,0,5.64,0v28.21c-1.88,0-3.76,0-5.64,0,0-5.64,0-11.28,0-16.93-1.88,0-3.76,0-5.64,0,0-1.88,0-3.76,0-5.64-1.88,0-3.76,0-5.64,0,0-1.88,0-3.76,0-5.64,1.88,0,3.76,0,5.64,0,0-1.88,0-3.76,0-5.64Z"/>
        <path d="M268.98,295.21c5.64,0,11.29,0,16.93,0,0,5.64,0,11.29,0,16.93-5.64,0-11.29,0-16.93,0,0-5.64,0-11.29,0-16.93Z"/>
        <path d="M308.48,295.21c1.88,0,3.76,0,5.64,0,0,1.88,0,3.76,0,5.64-1.88,0-3.76,0-5.64,0,0-1.88,0-3.77,0-5.65Z"/>
        <path d="M314.12,300.86c1.88,0,3.76,0,5.64,0,0,1.88,0,3.76,0,5.64-1.88,0-3.77,0-5.65,0,0-1.88,0-3.76,0-5.64Z"/>
        <path d="M308.48,306.5c1.88,0,3.76,0,5.64,0,0,3.76,0,7.52,0,11.29-1.88,0-3.76,0-5.64,0,0-3.76,0-7.53,0-11.29Z"/>
        <path d="M347.97,306.5c1.88,0,3.76,0,5.64,0,0,1.88,0,3.76,0,5.64,7.52,0,15.05,0,22.57,0,0,1.88,0,3.76,0,5.64-3.76,0-7.52,0-11.28,0,0,1.88,0,3.76,0,5.64-5.64,0-11.28,0-16.93,0,0-5.64,0-11.29,0-16.93Z"/>
        <path d="M376.19,306.5c3.76,0,7.53,0,11.29,0,0,1.88,0,3.76,0,5.64-3.76,0-7.52,0-11.29,0,0-1.88,0-3.76,0-5.64Z"/>
        <path d="M302.83,317.78c1.88,0,3.76,0,5.64,0,0,1.88,0,3.76,0,5.64-1.88,0-3.76,0-5.64,0v-5.64Z"/>
        <path d="M376.19,317.78c1.88,0,3.76,0,5.64,0,0,1.88,0,3.76,0,5.64-1.88,0-3.76,0-5.64,0,0-1.88,0-3.76,0-5.64Z"/>
      </g>
    </g>
  </g>
</svg>