<?xml version="1.0" encoding="UTF-8"?>
<svg id="Capa_2" data-name="Capa 2" xmlns="http://www.w3.org/2000/svg" viewBox="0 0 834.59 602.39">
  <defs>
    <style>
      .cls-1 {
        fill: #ed2027;
      }

      .cls-2 {
        fill: #020202;
      }

      .cls-3 {
        fill: #46677f;
      }

      .cls-4 {
        fill: #1d586a;
      }

      .cls-5 {
        fill: #414143;
      }

      .cls-6 {
        opacity: .58;
      }

      .cls-7 {
        fill: #04394b;
      }

      .cls-8 {
        fill: #211f20;
      }

      .cls-9 {
        fill: #8eafae;
      }
    </style>
  </defs>
  <g id="Layer_1" data-name="Layer 1">
    <g>
      <path class="cls-5" d="M263.79,8.13C269.61,2.84,277.45-.15,285.31,0,333.65.02,381.98,0,430.31,0c8.31-.06,16.5,3.45,22.33,9.34,9.16,8.99,12.05,23.66,6.74,35.39-9.65,21.64-19.32,43.28-28.99,64.91-4.16,9.42-13.11,16.58-23.27,18.4-8.41,1.36-16.99.46-25.47.7-15.83.02-31.65.06-47.48-.02-.79,19.32.35,38.68-.59,58-.39-19.32.07-38.65-.24-57.96-8.99-.34-18.14.87-27.01-1.09-9.61-2.25-17.85-9.32-21.73-18.37-9.67-21.67-19.4-43.32-29.02-65.01-5.36-12.21-1.75-27.41,8.21-36.17Z"/>
      <g>
        <path class="cls-2" d="M509.05,135.33c39.49-13.17,83.85-11.29,122,5.45,23.83,10.32,45.08,26.29,61.96,45.99,9.87,12.29,18.77,25.48,25.16,39.95,16.51,35.93,19.58,77.72,8.99,115.78-6.41,23.52-18.38,45.25-33.73,64.1-17.82,20.98-40.65,37.72-66.18,48.05-35.27,14.43-75.42,16.44-112,5.79-31.81-9.19-60.76-27.96-82.18-53.2-20.44-24.29-34.31-54.16-38.75-85.65-5.48-36.65,1.51-75.02,19.65-107.33,5.4-9.75,11.89-18.87,18.93-27.5,20.06-23.66,46.69-41.69,76.15-51.43ZM553.43,151.78c-27.88,1.66-55.17,11.76-77.53,28.49-24.49,18.1-43,44.14-52.05,73.22-11.6,36.76-7.8,78.14,10.59,112.05,14.94,27.96,39.3,50.72,68.17,63.81,35.37,16.27,77.33,17.33,113.53,3.02,31.22-12.17,57.93-35.48,74.17-64.8,17.42-30.97,22.68-68.45,14.69-103.05-7.49-33.33-27.34-63.63-54.73-84.01-27.47-20.73-62.5-31.18-96.84-28.73Z"/>
        <path class="cls-2" d="M334.17,128.73c15.83.08,31.65.04,47.48.02.02,19.34-.07,38.67.05,58.01-.02,5.73.28,11.75-2.11,17.11-3.27,7.61-10.78,13.07-18.96,14.14-9.39,1.32-19.23-3.59-23.89-11.84-3.52-5.82-3.39-12.88-3.16-19.44.94-19.32-.2-38.68.59-58Z"/>
      </g>
      <path class="cls-9" d="M553.43,151.78c34.34-2.45,69.37,8,96.84,28.73,27.39,20.38,47.24,50.68,54.73,84.01,7.99,34.6,2.73,72.08-14.69,103.05-16.24,29.32-42.95,52.63-74.17,64.8-36.2,14.31-78.16,13.25-113.53-3.02-28.87-13.09-53.23-35.85-68.17-63.81-18.39-33.91-22.19-75.29-10.59-112.05,9.05-29.08,27.56-55.12,52.05-73.22,22.36-16.73,49.65-26.83,77.53-28.49ZM452.46,227.76c-21.62,34.58-25.13,79.57-9.55,117.21,3.98,9.5,8.58,18.98,15.34,26.84-1.27-4.21-3.46-8.05-5.02-12.14-2.65-7.08-4.84-14.32-6.41-21.71-8.81-39.45.07-82.41,23.79-115.13,16.88-23.89,41.48-42.11,69.02-51.85,5.17-1.92,10.67-2.82,15.77-4.96-41.65,2.15-81.35,26.09-102.94,61.74ZM623.99,182.35c3.61,3.93,8.03,6.99,11.65,10.91,24.74,23.56,40.32,56.29,43.6,90.24,2.18,21.51-.85,43.46-8.29,63.72-5.7,16.2-14.93,30.97-25.94,44.07-4.67,5.49-10.47,9.9-14.94,15.55,11.16-5.66,20.43-14.43,28.97-23.45,25.48-27.92,37.72-67.4,32.31-104.83-3.15-22.43-12.12-44.06-26.05-61.93-9.88-13.14-22.64-23.9-36.66-32.38-1.48-.8-3.08-1.35-4.65-1.9ZM548.72,219.27c-18.07,3.23-34.84,13.07-46.51,27.22-9.46,11.31-15.63,25.34-17.5,39.97-2.72,19.25,2.2,39.42,13.3,55.37,8.53,12.25,20.54,22.1,34.33,27.87,17.36,7.32,37.34,8.14,55.23,2.21,26.99-8.58,48.18-32.83,53-60.75,3.38-17.98.15-37.09-8.87-52.99-7.39-13.16-18.63-24.12-32.01-31.11-15.48-8.23-33.75-10.94-50.97-7.79Z"/>
      <g>
        <path class="cls-3" d="M452.46,227.76c21.59-35.65,61.29-59.59,102.94-61.74-5.1,2.14-10.6,3.04-15.77,4.96-27.54,9.74-52.14,27.96-69.02,51.85-23.72,32.72-32.6,75.68-23.79,115.13,1.57,7.39,3.76,14.63,6.41,21.71,1.56,4.09,3.75,7.93,5.02,12.14-6.76-7.86-11.36-17.34-15.34-26.84-15.58-37.64-12.07-82.63,9.55-117.21Z"/>
        <path class="cls-3" d="M623.99,182.35c1.57.55,3.17,1.1,4.65,1.9,14.02,8.48,26.78,19.24,36.66,32.38,13.93,17.87,22.9,39.5,26.05,61.93,5.41,37.43-6.83,76.91-32.31,104.83-8.54,9.02-17.81,17.79-28.97,23.45,4.47-5.65,10.27-10.06,14.94-15.55,11.01-13.1,20.24-27.87,25.94-44.07,7.44-20.26,10.47-42.21,8.29-63.72-3.28-33.95-18.86-66.68-43.6-90.24-3.62-3.92-8.04-6.98-11.65-10.91Z"/>
      </g>
      <g>
        <path class="cls-8" d="M15.17,219.45c14.55-20.26,39.11-33.05,64.12-32.75,28.68-.51,57.36.11,86.05-.24,18.66.03,37.29.1,55.95.01,8.96.5,17.93-.46,26.9.2,19.38-.27,38.74-.07,58.13.04,9.08-.2,18.19-.56,27.26.02-.23,6.56-.36,13.62,3.16,19.44,4.66,8.25,14.5,13.16,23.89,11.84,8.18-1.07,15.69-6.53,18.96-14.14,2.39-5.36,2.09-11.38,2.11-17.11,9.51-.55,19.05-.31,28.57-.11,7.54-.39,15.09-.2,22.63.11-7.04,8.63-13.53,17.75-18.93,27.5-18.14,32.31-25.13,70.68-19.65,107.33,4.44,31.49,18.31,61.36,38.75,85.65-116.91,0-233.83-.01-350.74,0-22.29.76-44.71-8.22-60.08-24.42C8.25,368.46.17,348.6,0,328.55c.02-21,.02-42.01,0-63.02.13-16.43,5.45-32.81,15.17-46.08ZM133.56,274.94c-11.1,2.61-19.61,13.28-19.59,24.7-.34,11.19,7.39,21.99,18.16,25.15,8.98,2.91,19.43.35,26.05-6.39,7.24-7.19,9.69-18.76,5.61-28.18-4.43-11.68-18.2-18.55-30.23-15.28ZM209.68,275.09c-12.19,3.12-20.73,15.95-18.76,28.42,1.47,13.85,15.62,24.61,29.38,22.18,14.02-1.68,24.75-16.32,21.78-30.21-2.17-14.56-18.32-24.73-32.4-20.39ZM286.66,275.03c-13.43,3.15-22.22,18.27-18.44,31.51,2.8,11.88,14.89,20.58,27.06,19.36,11.65-.63,21.83-10.16,23.58-21.63,1.54-9.12-2.23-18.9-9.53-24.58-6.29-4.95-14.94-6.76-22.67-4.66Z"/>
        <path class="cls-8" d="M693.01,186.77c4.41-.48,8.84-.33,13.26-.17,11.32-.23,22.66-.26,33.98.1,14.65-.69,29.8-.3,43.58,5.3,17.1,6.62,31.74,19.35,40.66,35.37,6.84,12.19,10.3,26.22,10.09,40.19-.02,19.66-.02,39.31,0,58.97.17,14.18-3.44,28.43-10.55,40.72-13.53,23.95-40.18,39.82-67.73,39.95-21.11.03-42.22.1-63.32-.03l.45-.57c15.35-18.85,27.32-40.58,33.73-64.1,10.59-38.06,7.52-79.85-8.99-115.78-6.39-14.47-15.29-27.66-25.16-39.95Z"/>
      </g>
      <g class="cls-6">
        <path class="cls-7" d="M548.72,219.27c17.22-3.15,35.49-.44,50.97,7.79,13.38,6.99,24.62,17.95,32.01,31.11,9.02,15.9,12.25,35.01,8.87,52.99-4.82,27.92-26.01,52.17-53,60.75-17.89,5.93-37.87,5.11-55.23-2.21-13.79-5.77-25.8-15.62-34.33-27.87-11.1-15.95-16.02-36.12-13.3-55.37,1.87-14.63,8.04-28.66,17.5-39.97,11.67-14.15,28.44-23.99,46.51-27.22ZM559.58,259.06c-6.99.62-13.76,3.25-19.4,7.41-11.31,8.32-17.24,23.25-14.66,37.07,1.72,9.96,7.62,19.12,16.01,24.77,11.21,7.78,26.69,8.79,38.77,2.41,14.75-7.37,23.38-25.02,19.87-41.18-3.21-18.54-21.88-32.54-40.59-30.48Z"/>
      </g>
      <path class="cls-4" d="M559.58,259.06c18.71-2.06,37.38,11.94,40.59,30.48,3.51,16.16-5.12,33.81-19.87,41.18-12.08,6.38-27.56,5.37-38.77-2.41-8.39-5.65-14.29-14.81-16.01-24.77-2.58-13.82,3.35-28.75,14.66-37.07,5.64-4.16,12.41-6.79,19.4-7.41Z"/>
      <g>
        <path class="cls-1" d="M534.49,521.72c7.43-9.17,19.22-13.72,30.75-14.52,10.76-.68,22.21.05,31.69,5.69,8.25,5.07,13.94,13.74,16.45,22.98-8.38,1.79-16.71,3.84-25.13,5.48-1.1-3.18-2.43-6.45-5.07-8.66-6.87-6.39-19.01-5.43-24.83,1.91-4.6,5.55-4.9,13.13-5.17,20,.39,6.75.37,14.05,4.16,19.94,5.16,7.35,16.28,8.33,23.62,3.82,4.98-3.48,6.96-9.65,8.36-15.28,8.33,2.36,16.56,5.07,24.91,7.41-2.07,12.64-10.57,24.53-22.76,29.11-8.32,3.28-17.43,2.89-26.2,2.61-10.98-.51-22.32-4.58-29.38-13.34-7.8-8.82-11.34-20.69-11.28-32.33-.43-12.2,1.92-25.18,9.88-34.82Z"/>
        <path class="cls-1" d="M334.79,508.74c9.81-.85,19.69-.08,29.53-.38,8.32.4,16.66-.41,24.96.48,8.32.15,17.63,1.68,23.24,8.48,5.91,6.57,6.49,16.11,4.9,24.41-2.38,9.67-11.15,16.26-20.5,18.49,7.27,2.34,12.15,8.63,15.68,15.08,4.38,8.56,8.79,17.11,13.24,25.63-10.82.08-21.64.07-32.46,0-5.84-10.63-11.31-21.47-17.45-31.93-2.35-4.45-7.56-5.78-12.23-5.63-.03,12.53,0,25.05-.02,37.58-9.62.03-19.23.02-28.85.01-.04-30.74.05-61.49-.04-92.23ZM363.7,545.99c7.27-.12,14.9.75,21.75-2.21,5.84-3.18,5.3-13.28-1.18-15.37-6.66-1.99-13.71-.76-20.54-1.11-.08,6.23-.05,12.46-.03,18.69Z"/>
        <path class="cls-1" d="M434.71,508.63c8.17-.52,16.38-.19,24.58-.19,17.28.11,34.6-.56,51.85.37-.02,6.48-.02,12.97,0,19.46-15.88,0-31.75.01-47.63,0-.05,4.89-.04,9.78,0,14.68,14.77,0,29.55,0,44.32.01-.02,6.31.01,12.62-.03,18.94-14.77,0-29.54,0-44.32,0,0,6.03,0,12.06,0,18.09,16.4.02,32.8-.02,49.19.02,0,6.99,0,13.98-.01,20.97-25.98.02-51.97,0-77.95,0-.03-30.79-.01-61.57-.01-92.35Z"/>
        <path class="cls-1" d="M253.79,510.26c10.83-2.72,22.81-2.11,32.89,2.97,12.73,6.18,22.32,18.5,24.99,32.42,3,13.85-1.17,28.93-10.51,39.53-8.4,9.75-21.03,15.57-33.88,15.83-12.21.26-24.48-4.55-33.17-13.16-11.03-10.57-16.24-26.91-13.12-41.88,3.02-16.85,16.32-31.21,32.8-35.71Z"/>
      </g>
    </g>
  </g>
</svg>