<?xml version="1.0" encoding="UTF-8"?>
<svg id="Capa_2" data-name="Capa 2" xmlns="http://www.w3.org/2000/svg" viewBox="0 0 378.69 360.69">
  <defs>
    <style>
      .cls-1 {
        fill: #f7f5f2;
      }
    </style>
  </defs>
  <g id="Layer_1" data-name="Layer 1">
    <g>
      <path class="cls-1" d="M176.24,1.13c1.56-1.94,4.66-1.07,6.29.34,1.57,2.73,1.06,6.03.98,9.04-1.15,14.66-2.74,29.28-3.5,43.96-.43,3.65-.07,7.7-2.39,10.8-2.97-3.87-4.16-8.7-5.25-13.37-2.92-13.99-3.18-28.66.26-42.58.79-2.87,1.57-5.92,3.61-8.19Z"/>
      <path class="cls-1" d="M102.15,18.31c.63-1.84,2.38-3.07,4.26-3.35,3.67,1.02,6.03,4.3,8.55,6.93,11.68,13.82,21.45,29.15,30.27,44.93,2.04,3.96,4.46,7.95,4.72,12.52-3.94-1.5-6.71-4.77-9.62-7.66-12.29-12.88-23.5-26.83-33.16-41.79-2.1-3.63-4.73-7.27-5.02-11.58Z"/>
      <path class="cls-1" d="M235.93,19.78c2.01-2.28,5.39-5.92,8.51-3.23,3.12,1.92,1.04,6.03-.03,8.63-6.62,13.43-15.38,25.68-24.55,37.47-4,4.97-7.98,10.02-12.71,14.32-.92,1.02-2.26,1.35-3.57,1.48.75-5.16,3.1-9.87,5.31-14.54,7.62-15.49,16.19-30.65,27.04-44.13Z"/>
      <path class="cls-1" d="M310.21,75.73c6.31-2.68,13.79-2.96,20.01.11,6.19,2.8,11.05,8.62,12.18,15.38.78,3.94-.21,7.91-1.14,11.73-6.31,25.49-12.16,51.11-18.9,76.49-3.4,12.33-6.88,24.92-13.98,35.72-1.96,3.13-5.08,5.27-8.47,6.61,2.83,4.95,4.22,10.51,6.29,15.78,9.17,25.71,19.66,50.93,28.32,76.82,2.51,7.67,4.89,15.47,5.72,23.54,9.63-2.75,19.36-5.4,29.34-6.39,2.66-.09,5.69-.57,8,1.08,1.26,1.56,1.76,4.34-.18,5.62-3.08,2.39-6.97,3.32-10.59,4.56-19.22,5.76-38.7,10.6-58.14,15.52-5.09,1.05-10.22,2.99-15.48,2.21,1.55-1.97,3.47-3.6,5.65-4.82,10.76-6.42,22.44-11.13,34.2-15.39-5.87-11.23-10.03-23.24-14.41-35.11-7.12-20.2-13.68-40.68-17.88-61.71-1.2-7.06-2.67-14.28-1.65-21.46-6.88,2.15-13.38-2.38-17.64-7.37-2.76.19-5.1-1.44-7.31-2.85-7.65-5.25-14.86-11.1-22.06-16.93-21.57-17.68-42.83-35.72-64.04-53.83-4.57-3.72-7.89-9.5-6.99-15.54.41-3.9,3.47-6.96,6.96-8.41,40.99-12.98,81.53-27.37,122.19-41.36ZM192.46,128.19c6.25,6.87,13.52,12.7,20.43,18.88,21.58,19.05,43.46,37.83,63.67,58.34,2.26,2.6,5.23,5.14,5.49,8.81,3.33,1.88,6.55,4.24,10.4,4.93,4.47.84,9.01-1.65,11.45-5.34,5.88-9.72,8.54-20.91,10.96-31.89,5.95-27.42,11.27-54.98,17.22-82.4.66-2.8,1.21-5.88-.18-8.56-2.47-5.64-9.58-8.07-15.23-6.17-41.22,14.94-82.29,30.47-124.21,43.4Z"/>
      <path class="cls-1" d="M32.24,89.82c1.33-4.65,5.47-8.31,10.23-9.14,3.65-.7,7.37-.16,10.99.46,29.64,4.79,58.6,14.15,85.18,28.16,9.61,5.17,19.18,10.68,27.37,17.96,4.98-.69,9.12,3.76,10.66,8.1,2.1,7.06-1.34,14.23-5.22,19.99-10.86,15.22-22.8,29.7-35.94,43.02-9.79,9.65-20.2,18.91-32.29,25.61-8.38,4.62-18.06,7.87-27.72,6.11-4.41,20.03-9.87,39.81-16.01,59.38-4.33,12.8-8.11,25.88-14.19,38.01,11.41,2.25,22.85,5.38,33.1,11.01,2.34,1.41,5.88,3.65,4.14,6.85-1.53,3.59-6.18,2.02-9.1,1.6-18.28-4.69-36.41-10.05-54.89-13.97-6.22-1.55-12.73-2.33-18.55-5.15,2.28-2.26,5.66-2.2,8.62-2.6,9.5-.78,19.08-.3,28.51,1,1.5-10.49,4.81-20.59,7.88-30.7,7.19-22.84,15.51-45.34,25-67.32-4.47-3.08-7.15-7.95-9.61-12.64-4.9-10.3-8.42-21.19-11.66-32.1-6.98-24.63-12.3-49.72-16.23-75.01-.74-6.16-2.12-12.53-.27-18.63ZM42.36,91.06c-1.97,3.11-1,7.05-.63,10.48,3.98,23.9,9.57,47.52,16,70.88,2.76,9.59,5.64,19.16,9.24,28.47,2.18,5.34,4.22,10.85,7.7,15.52,1.37,1.78,3.85,2.07,5.93,2.24,6.34.19,12.32-2.46,17.77-5.43,11.6-6.66,21.59-15.7,31.2-24.92,12.24-12.09,23.61-25.03,34.45-38.39,2.66-3.4,5.34-7.14,5.81-11.55.11-3.96-3.1-6.8-4.6-10.2-4.44-1.78-8.44-4.44-12.65-6.66-31.93-17.76-67.8-27.59-103.97-31.72-2.07-.06-4.74-.47-6.25,1.28Z"/>
    </g>
  </g>
</svg>