<?xml version="1.0" encoding="UTF-8"?>
<svg id="Capa_2" data-name="Capa 2" xmlns="http://www.w3.org/2000/svg" viewBox="0 0 163.56 191.54">
  <defs>
    <style>
      .cls-1 {
        fill: #033a77;
      }
    </style>
  </defs>
  <g id="Layer_1" data-name="Layer 1">
    <g>
      <path class="cls-1" d="M96.04,11.95c-2.57-3.58-1.88-9.2,2.36-11.15,5-2.82,11.66,2.31,10.15,7.88-.7,3.96-4.73,5.95-8.46,5.76-4.21,7.02-8.16,14.19-12.35,21.23,5.33,2.13,9.74,6.25,11.75,11.68,11.76,1.55,23.8,3.25,34.52,8.66,4.23,2.22,8.41,5.26,10.39,9.77.96,2.49.65,5.23.73,7.85-.05,20.99-.01,41.98-.02,62.97.4,6.13-4.8,10.31-9.12,13.72-16.28,13.36-32.41,26.91-48.7,40.25-1.57,1.62-5.26,1.25-5.45-1.34-.43-8.22.21-16.49-.26-24.71-.31-2.62-2.91-4.3-5.39-4.29-13.32-.44-26.76-1.93-39.43-6.2-6.08-2.2-12.42-5.02-16.32-10.41-2.38-3.15-2.24-7.27-2.26-11.01.1-11.98-.17-23.96.2-35.92-.43-9.71-.3-19.44.27-29.14.93-4.77,5.02-8.14,9-10.51,11.05-6.4,23.98-7.92,36.38-9.82,1.89-5.38,6.41-9.33,11.54-11.55-1.23-2.22-2.44-4.45-3.64-6.67-3.28-.29-7.06-1.16-8.29-4.65-2.9-5.47,3.92-12.28,9.37-9.4,2.83,1.09,3.93,4.05,4.77,6.71l-2.13,4.92c1.75,2.66,3.19,5.5,4.94,8.16.5.08,1.5.23,1.99.31,4.87-7.45,9.05-15.36,13.46-23.1ZM56.49,65.04c-7.41,1.39-15.23,2.72-21.59,7.01-.35,21-.04,42.03-.15,63.05,6.74,3.86,14.41,5.65,22.01,6.89,15.75,2.42,31.84,2.52,47.62.33,8.4-1.29,16.98-2.94,24.42-7.26-.22-21.12.1-42.25-.15-63.37-6.32-3.29-13.24-5.25-20.24-6.41-17.14-2.85-34.75-2.89-51.92-.24Z"/>
      <path class="cls-1" d="M4.69,81.91c2.69-2.49,6.56-2.31,9.97-2.65-.09,16.08.03,32.16-.13,48.24-2.9-.21-6.04.06-8.61-1.56C2.32,123.86-.01,119.85.08,115.67c-.16-8.01-.02-16.03-.03-24.04-.08-3.75,1.59-7.48,4.64-9.72Z"/>
      <path class="cls-1" d="M148.94,79.33c3.19.23,6.71.2,9.39,2.23,3.31,2.2,5.09,6.12,5.17,10.04.23,7.68-.26,15.38-.02,23.07.36,4.72-2.27,9.53-6.55,11.61-2.46,1.25-5.32,1.06-7.98,1.3-.11-16.08-.05-32.16-.01-48.25Z"/>
      <path class="cls-1" d="M59.04,89.5c3.26-.18,6.04,2.22,7.47,4.98,2.95,5.59,2.89,12.68-.12,18.23-1.39,2.55-3.97,4.88-7.04,4.66-2.53.02-4.55-1.81-5.93-3.73-2.94-4.41-3.36-10.08-2.26-15.14.99-3.97,3.53-8.22,7.88-9Z"/>
      <path class="cls-1" d="M103.52,89.71c3.74-.39,6.49,2.9,7.86,6.01,2.21,5.44,2.09,11.98-.83,17.15-1.45,2.55-4.09,4.83-7.2,4.5-3.78-.31-6.21-3.85-7.4-7.12-1.74-5.08-1.58-10.97.99-15.75,1.38-2.37,3.58-4.89,6.58-4.79Z"/>
    </g>
  </g>
</svg>