<?xml version="1.0" encoding="UTF-8"?>
<svg id="Capa_2" data-name="Capa 2" xmlns="http://www.w3.org/2000/svg" viewBox="0 0 142.18 129.94">
  <defs>
    <style>
      .cls-1 {
        fill: #a9a9a9;
      }
    </style>
  </defs>
  <g id="Layer_1" data-name="Layer 1">
    <path class="cls-1" d="M12.04,11.84C15.22,4.75,22.76-.12,30.55.02c22.43-.04,44.87,0,67.3-.02,2.66,0,5.4.04,7.93.96,5.51,1.69,10.14,5.89,12.47,11.15,3.75,8.73,7.46,17.48,11.22,26.21.88,2,.49,4.23.58,6.35,0,3.97-.04,8.27-2.28,11.71-1.79,2.57-5.83,2.86-7.96.56-1.51-1.6-1.8-4.13-.84-6.09.71-1.57.65-3.31.71-5-4.47-.01-8.95,0-13.42,0-.07,1.67.03,3.58-1.16,4.92-1.76,2.28-5.49,2.6-7.56.57-1.55-1.35-1.84-3.56-1.86-5.5-4.44.01-8.87.02-13.31-.01.77,7.91-4.68,15.81-12.29,18.01-5.91,1.9-12.59.12-17.08-4.07-2.26,1.98-4.89,3.6-7.83,4.31-5.6,1.53-11.8-.32-16-4.25-2.56,1.96-5.33,3.74-8.55,4.34.09,11.68,0,23.35.04,35.03,13.82,0,27.63,0,41.45,0,2.73-.12,5.5,1.99,5.6,4.82.38,2.89-2.16,5.75-5.09,5.63-14.02.07-28.04-.02-42.06.04.16,5.16,4.66,9.89,9.9,9.81,14.99.02,29.98.02,44.96,0,2.39-.27,4.96.92,5.87,3.22,1.52,3.21-1.26,7.42-4.82,7.2-13.72.03-27.44,0-41.16.01-1.51.01-3.03.04-4.54-.12-3.69.29-7.37-.92-10.54-2.73-6.16-3.58-10.08-10.59-10.05-17.7-.01-15.46,0-30.91,0-46.37-3.84-1.84-7.09-5.01-8.71-8.98C-.25,50.02-.02,45.57.05,41.31c0-2.25,1.23-4.18,2.02-6.2,3.33-7.76,6.62-15.52,9.97-23.27ZM26.89,11.13c-2.56.95-4.6,3.05-5.6,5.57-2.67,6.25-5.37,12.49-7.98,18.77,4.28-.02,8.56-.03,12.84,0,3.13-8.32,6.31-16.63,9.27-25.02-2.84.14-5.83-.45-8.53.67ZM46.14,10.46c-3.04,8.36-6.19,16.67-9.29,25,3.99-.02,7.98,0,11.97-.01,2.09-8.33,4.15-16.67,6.29-25-2.99,0-5.98-.02-8.97.01ZM64.88,10.45c-2.11,8.34-4.18,16.69-6.29,25.03,4.43-.03,8.86-.03,13.29,0-1.8-8.34-3.6-16.68-5.37-25.03h-1.62ZM76.4,10.45c1.75,8.36,3.46,16.73,5.44,25.03,4.24-.06,8.48.01,12.72-.04-2.31-8.26-4.45-16.56-6.69-24.84-3.77-.35-7.66-.05-11.47-.15ZM97.43,10.46c2.28,8.32,4.47,16.66,6.7,24.99,4.24.01,8.5-.03,12.75.02-2.53-5.92-5.04-11.85-7.56-17.78-.92-2.42-2.42-4.74-4.78-5.96-2.12-1.31-4.69-1.37-7.11-1.27ZM10.47,45.86c.09,1.91.07,4.05,1.44,5.55,2.1,2.99,6.67,3.51,9.48,1.23,2.15-1.55,2.54-4.32,2.65-6.77-4.52-.04-9.04-.02-13.56-.02ZM34.33,45.87c-.47,3.46,1.46,7.15,4.96,8.09,4.69,1.47,9.4-3.44,8.35-8.1-4.44.02-8.87-.01-13.31.02ZM58.05,45.87c-.06,1.92.29,3.93,1.51,5.49,2,2.89,6.28,3.74,9.18,1.72,2.56-1.43,3.35-4.49,3.41-7.21-4.7.01-9.4,0-14.1.01Z"/>
    <path class="cls-1" d="M86.86,73.21c6.62-6.57,16.21-9.86,25.46-9.11,8.02.53,15.83,4.11,21.34,9.98,6.06,6.13,9.08,14.97,8.43,23.52-.78,10.39-7.37,20.2-16.74,24.74-5.01,2.97-11.02,4.08-16.8,3.91-9.82-.28-19.43-5.21-25.21-13.18-3.96-5.35-6.11-12.03-5.87-18.7.12-7.94,3.65-15.71,9.4-21.16ZM108.9,77.72c-3.08.37-6.46,1.1-8.54,3.61-2.73,3.1-2.69,8.38.45,11.18,2.32,1.9,5.27,2.75,8.1,3.57-.07,4.27,0,8.54-.05,12.81-2.91-.41-5.54-2.41-6.35-5.3-.5-2.06-3.97-2.05-4.56-.06-.16,2.2,1.33,4.08,2.81,5.55,2.19,2.02,5.26,2.52,8.09,2.95.03,1.2-.12,2.45.29,3.61.66.49,1.33.5,1.99,0,.43-1.16.23-2.43.29-3.64,2.61-.27,5.31-.83,7.4-2.52,3.99-2.74,4.98-9.05,1.75-12.72-2.27-2.7-5.92-3.36-9.17-4.11,0-3.89,0-7.77-.01-11.65,1.52.32,3.18.78,4.13,2.13.83.95,1.17,2.56,2.58,2.8,1.46.53,3.6-1.11,2.67-2.69-1.54-3.62-5.66-5.24-9.35-5.52-.01-1-.05-2-.17-2.99-.29-.16-.88-.48-1.17-.64-1.52.62-1.28,2.3-1.21,3.63Z"/>
    <path class="cls-1" d="M104.76,82.57c1.15-.98,2.65-1.36,4.1-1.65.06,3.76-.04,7.53.04,11.29-1.48-.5-3.05-.9-4.3-1.87-2.38-1.88-2.22-5.97.16-7.77Z"/>
    <path class="cls-1" d="M111.39,96.55c1.3.36,2.74.5,3.8,1.43,2.57.76,3.26,4.19,2.38,6.46-.88,2.63-3.56,4-6.13,4.46-.07-4.12.02-8.24-.05-12.36Z"/>
  </g>
</svg>