<?xml version="1.0" encoding="UTF-8"?>
<svg id="Capa_2" data-name="Capa 2" xmlns="http://www.w3.org/2000/svg" viewBox="0 0 92.51 39.81">
  <defs>
    <style>
      .cls-1 {
        fill: #a9a9a9;
      }
    </style>
  </defs>
  <g id="Layer_1" data-name="Layer 1">
    <g>
      <path class="cls-1" d="M.71.13c.79-.43,1.82.32,1.73,1.19-.01.91-1.18,1.49-1.91.94C-.25,1.77-.14.47.71.13Z"/>
      <path class="cls-1" d="M13.6.12c.78-.41,1.8.32,1.71,1.18,0,.9-1.15,1.49-1.88.97-.8-.47-.7-1.82.17-2.15Z"/>
      <path class="cls-1" d="M26.47.11c.86-.43,1.94.49,1.67,1.41-.15.85-1.32,1.24-1.96.67-.72-.53-.53-1.77.3-2.08Z"/>
      <path class="cls-1" d="M39.37.11c.92-.45,2.02.64,1.6,1.56-.27.82-1.45,1.08-2.02.43-.63-.58-.37-1.71.42-2Z"/>
      <path class="cls-1" d="M52.1.17c.78-.5,1.9.24,1.82,1.14-.02.86-1.08,1.46-1.82,1.01-.84-.41-.83-1.75,0-2.15Z"/>
      <path class="cls-1" d="M64.99.15c.91-.55,2.11.53,1.71,1.49-.24.82-1.4,1.11-1.99.49-.63-.54-.46-1.65.29-1.99Z"/>
      <path class="cls-1" d="M77.88.14c.78-.45,1.85.28,1.77,1.16-.01.92-1.2,1.51-1.93.94-.75-.48-.65-1.74.17-2.1Z"/>
      <path class="cls-1" d="M90.61.21c.77-.58,1.98.15,1.88,1.09,0,.92-1.18,1.5-1.91.96-.72-.44-.71-1.63.02-2.05Z"/>
      <path class="cls-1" d="M.69,12.58c.8-.43,1.87.3,1.75,1.2-.03.9-1.17,1.45-1.9.92-.78-.47-.69-1.77.15-2.13Z"/>
      <path class="cls-1" d="M13.58,12.57c.8-.41,1.85.33,1.72,1.22-.03.88-1.15,1.43-1.87.93-.81-.46-.72-1.81.15-2.15Z"/>
      <path class="cls-1" d="M26.48,12.55c.8-.37,1.82.37,1.68,1.25-.03.93-1.28,1.46-1.98.84-.73-.53-.55-1.79.3-2.09Z"/>
      <path class="cls-1" d="M39.2,12.63c.8-.52,1.95.21,1.85,1.15-.05.86-1.11,1.43-1.85.96-.8-.42-.8-1.7,0-2.12Z"/>
      <path class="cls-1" d="M52.1,12.61c.8-.48,1.94.26,1.82,1.18-.05.91-1.24,1.46-1.96.88-.71-.48-.63-1.69.14-2.06Z"/>
      <path class="cls-1" d="M64.98,12.6c.8-.47,1.89.25,1.8,1.16-.02.92-1.22,1.49-1.94.91-.74-.48-.65-1.7.15-2.08Z"/>
      <path class="cls-1" d="M77.87,12.59c.8-.44,1.87.29,1.77,1.19-.03.9-1.19,1.47-1.92.92-.77-.47-.68-1.75.15-2.11Z"/>
      <path class="cls-1" d="M90.73,12.59c.8-.44,1.89.29,1.76,1.2-.02.9-1.19,1.45-1.91.91-.76-.47-.68-1.76.14-2.12Z"/>
      <path class="cls-1" d="M.69,25.04c.81-.44,1.89.31,1.75,1.23-.05.88-1.17,1.42-1.89.9-.79-.46-.7-1.77.14-2.13Z"/>
      <path class="cls-1" d="M13.58,25.03c.81-.41,1.87.35,1.72,1.25-.06.87-1.15,1.4-1.87.9-.81-.46-.72-1.81.15-2.15Z"/>
      <path class="cls-1" d="M26.3,25.1c.73-.5,1.85.05,1.87.94.13.95-1.05,1.68-1.84,1.15-.78-.42-.79-1.66-.02-2.09Z"/>
      <path class="cls-1" d="M39.21,25.08c.75-.47,1.81.12,1.84,1,.07.91-1.02,1.62-1.82,1.14-.83-.4-.85-1.72-.03-2.14Z"/>
      <path class="cls-1" d="M52.08,25.07c.81-.51,1.97.27,1.82,1.21-.08.83-1.1,1.37-1.83.93-.82-.41-.82-1.74,0-2.14Z"/>
      <path class="cls-1" d="M64.97,25.06c.93-.56,2.16.52,1.72,1.51-.26.85-1.5,1.08-2.05.4-.56-.55-.36-1.57.34-1.9Z"/>
      <path class="cls-1" d="M77.86,25.05c.81-.46,1.91.3,1.78,1.22-.06.89-1.2,1.43-1.92.88-.75-.47-.67-1.73.14-2.1Z"/>
      <path class="cls-1" d="M90.74,25.04c.81-.43,1.89.31,1.75,1.23-.04.88-1.16,1.41-1.88.91-.8-.46-.72-1.78.13-2.14Z"/>
      <path class="cls-1" d="M.93,37.4c.91-.26,1.82.77,1.42,1.63-.28.86-1.57,1.04-2.1.31-.56-.65-.17-1.79.67-1.95Z"/>
      <path class="cls-1" d="M52.31,37.42c.87-.31,1.86.62,1.55,1.51-.22.83-1.36,1.16-1.99.58-.71-.57-.45-1.87.44-2.09Z"/>
      <path class="cls-1" d="M65.21,37.41c.91-.3,1.88.74,1.47,1.62-.29.88-1.62,1.04-2.13.27-.53-.64-.14-1.71.66-1.9Z"/>
      <path class="cls-1" d="M78.09,37.41c.87-.28,1.8.64,1.51,1.52-.21.88-1.47,1.19-2.07.51-.64-.62-.31-1.83.56-2.03Z"/>
      <path class="cls-1" d="M91,37.39c.84-.21,1.7.64,1.47,1.48-.17.89-1.42,1.24-2.04.59-.7-.62-.35-1.92.58-2.08Z"/>
      <path class="cls-1" d="M13.41,37.56c.74-.54,1.91.07,1.89.98.09.94-1.07,1.6-1.85,1.1-.76-.41-.79-1.63-.05-2.08Z"/>
      <path class="cls-1" d="M26.3,37.55c.74-.51,1.88.09,1.87.99.09.92-1.02,1.57-1.8,1.13-.82-.39-.86-1.68-.06-2.12Z"/>
      <path class="cls-1" d="M39.19,37.53c.82-.54,2.02.27,1.84,1.23-.1.88-1.24,1.35-1.94.82-.71-.47-.66-1.64.1-2.05Z"/>
    </g>
  </g>
</svg>