<?xml version="1.0" encoding="UTF-8"?>
<svg id="Capa_2" data-name="Capa 2" xmlns="http://www.w3.org/2000/svg" viewBox="0 0 370.74 298.71">
  <defs>
    <style>
      .cls-1 {
        fill: #606060;
      }

      .cls-2 {
        fill: #969696;
      }

      .cls-3 {
        fill: #01403d;
      }
    </style>
  </defs>
  <g id="Layer_1" data-name="Layer 1">
    <g>
      <path class="cls-3" d="M158.99,1.64c13.05-1.35,26.25-2.39,39.34-.95,25.24,1.59,50.02,8.88,72.43,20.56-1.15,3.47-1.95,7.03-3.13,10.48-27.32-14.23-58.16-21.63-88.96-20.93-16.79.51-33.56,3.03-49.6,8.11-27.05,8.33-51.98,23.27-72.25,43C26.58,91.01,7.11,131.03,2.91,172.79c-.95,7.57-1.06,15.22-1.05,22.85-1-.06-1.45-.59-1.36-1.59-1.72-23.15.99-46.66,8.39-68.69C23.44,80.71,56.39,42.69,97.97,21.07c19.07-9.8,39.77-16.47,61.02-19.43Z"/>
      <path class="cls-1" d="M142.33,22.64c14.98-3.73,30.45-5.51,45.88-5.3,0,.55,0,1.65,0,2.19-2.1,0-4.18-.03-6.28,0-4.49.14-9.01.27-13.45.96.43,2.96.77,5.92.99,8.9-.76.09-2.25.28-3.01.38-.67-2.94-.78-5.97-.96-8.97-5.01.1-9.83,1.54-14.77,2.12.57,2.98,1.1,5.97,1.72,8.95-.99.17-1.99.34-2.98.5-.66-2.88-1.33-5.76-1.9-8.66-4.88.94-9.63,2.4-14.38,3.82.83,2.96,2.06,5.82,2.6,8.86-.93.21-1.86.43-2.79.65-1.08-2.8-1.84-5.71-2.92-8.51-4.69,1.65-9.34,3.4-13.9,5.36,1.23,2.77,2.78,5.45,3.4,8.45-.62.24-1.88.72-2.51.95-1.36-2.66-2.52-5.43-3.71-8.18-4,1.97-7.98,3.97-11.92,6.04-1.86.96-3.67,2.01-5.44,3.14-3.74,2.38-7.42,4.83-11.11,7.29,1.56,2.62,3.77,4.83,5,7.64-.52.37-1.57,1.11-2.09,1.48-2.09-2.14-3.65-4.71-5.46-7.07-4.11,2.82-7.89,6.06-11.63,9.33,2.02,2.18,4,4.41,5.99,6.61-.73.68-1.45,1.36-2.18,2.03-2.23-2.02-4.11-4.37-6.14-6.6-3.59,3.45-7.3,6.82-10.49,10.65,2.16,1.92,4.3,3.85,6.49,5.74-.6.81-1.19,1.62-1.8,2.44-2.47-1.73-4.53-3.97-6.89-5.86-3.29,3.7-6.37,7.6-9.4,11.51,2.43,1.79,4.89,3.54,7.33,5.3-.64.84-1.27,1.68-1.91,2.52-2.42-1.72-4.82-3.47-7.19-5.25-2.67,3.53-4.98,7.31-7.38,11.03-1.15,1.79-2.2,3.65-3.18,5.55-2,3.97-4.34,7.79-5.9,11.98,2.65,1.16,5.3,2.3,7.89,3.58-.28.94-.55,1.88-.84,2.82-2.9-1-5.62-2.42-8.48-3.5-2.01,4.53-3.73,9.19-5.35,13.87,2.9.88,5.8,1.77,8.61,2.93-.33.88-.65,1.77-.98,2.66-2.92-.76-5.77-1.77-8.69-2.58-1.32,4.75-2.65,9.5-3.82,14.3,2.98.71,5.98,1.32,8.96,2.02-.28,1.02-.58,2.06-.87,3.08-2.85-.76-5.71-1.44-8.62-1.91-1.25,4.78-1.69,9.71-2.32,14.6,2.94.31,5.86.74,8.8,1.12-.04.72-.12,2.17-.16,2.89-3.03-.17-6.05-.43-9.06-.79-.53,4.41-.54,8.87-.62,13.3-.03,2.11-.06,4.23-.07,6.35-.54.02-1.61.05-2.14.06-.37-15.55,1.34-31.15,5.2-46.22,7.67-30.87,24.23-59.39,46.93-81.65,22-21.7,49.83-37.52,79.87-44.92Z"/>
      <path class="cls-3" d="M286.51,30.48c27.12,17.53,49.28,42.42,64.11,71.06-3.59,0-7.2.02-10.79-.04-13.61-23.85-32.9-44.36-55.63-59.71.75-3.78,1.43-7.57,2.31-11.32Z"/>
      <path class="cls-3" d="M73.3,109.04c.57-2.06,1.96-4.63,4.5-4.26,22.05-.02,44.11.02,66.17-.02,4.55-.11,9.35,1.7,12.07,5.49,2.7,3.7,3.44,8.39,3.68,12.85-14.75,11.54-29.57,22.97-44.3,34.5-5.71.22-11.44-.34-17.11.52-3.63.61-6.7,3.18-8.25,6.47-2.4,4.82-3.64,10.1-5.35,15.19,18.99.15,37.99-.21,56.97.18.95,2.32-.35,4.61-.99,6.82-1.06,2.88-1.65,6.01-3.52,8.53-4,.8-8.08.28-12.12.43-25.74.02-51.48-.04-77.22.03-1.54,0-3.06-.23-4.58-.44-.02-1.31,0-2.62.5-3.85,2.34-6.85,4.57-13.74,6.92-20.59,2.65-7.24,5.75-14.67,11.51-20.03,4.53-4.09,10.43-6.35,16.39-7.37,11.59-2.3,23.46-1.44,35.2-1.73,7.47-1.07,11.95-9.3,11.12-16.38.09-2.81-2.6-5.15-5.37-4.89-15.5-.06-31,.02-46.5,0-.91-.07-2.65.13-2.51-1.31.23-3.53,1.88-6.76,2.79-10.14Z"/>
      <path class="cls-3" d="M185.17,108.34c2.44-1.88,5.28-3.66,8.49-3.57,12.17,0,24.34-.02,36.5.02.26,1.13.54,2.31.12,3.44-5.74,17.75-11.7,35.44-17.31,53.24,2.84-.07,5.67-.06,8.52,0,.79,4.18-1.76,8.09-2.83,12.03-1.79,4.05-7,2.14-10.42,2.52-1.99,5.55-3.58,11.23-5.58,16.77-.59,1.84-2.31,3.2-4.3,2.88-5.53-.44-11.06.39-16.58-.11-5.39-.45-10.88.98-16.18-.4.89-6.57,3.79-12.7,5.71-19.03-19.36-.28-38.71.03-58.08-.09-2.34.18-2-2.47-1.47-3.96,1.24-3.89,2.07-8.4,5.6-10.94,22.6-17.6,45.23-35.17,67.83-52.79ZM139.13,161.39c12.31.06,24.63,0,36.94.03,4.18-13.11,8.6-26.15,12.66-39.3-16.48,13.15-33.08,26.17-49.6,39.27Z"/>
      <path class="cls-3" d="M275.91,107.77c.51-1.52,1.8-3.1,3.57-2.99,26.81-.06,53.62.02,80.44-.04,1.24-.02,2.47.21,3.69.45-.24,4.81-2.21,9.56-5.07,13.41-19.77,24.88-39.46,49.81-59.24,74.67-2.04,3.29-6.3,2.32-9.54,2.46-8.91-.27-17.87.46-26.75-.41-1.53-1.28.17-3.1.87-4.35,18.21-23.52,36.51-46.99,54.74-70.5-14.86-.07-29.73.1-44.58-.04-2,.27-1.54-2.37-1.21-3.57,1.02-3.03,1.97-6.09,3.07-9.1Z"/>
      <path class="cls-3" d="M353.28,130.39c2.16-2.66,4.2-5.41,6.47-7.98,4.1,12.03,7.55,24.34,9.19,36.96,3.95,27.88,1.43,56.7-7.62,83.39-4.11,11.88-9.24,23.55-16.06,34.13-.65.04-1.94.13-2.59.17,11.57-21.74,18.7-45.84,20.71-70.39.85-14.22.71-28.55-1.51-42.64-1.78-11.46-4.67-22.74-8.59-33.65Z"/>
      <path class="cls-2" d="M190.12,263.98c1.13-1.5,2.37-3.5,4.52-3.35,2.04-.17,3.6,1.51,3.87,3.42-2.79.06-5.6.07-8.39-.06Z"/>
      <path class="cls-2" d="M273.56,23.11c.46-1.48,1.03-3.47,2.89-3.6,2.63-.13,5.33-.29,7.94.2.52.76.66,1.62.43,2.54-11.54,56.76-23.06,113.53-34.59,170.29-.33,1.15-.69,3-2.25,2.88-7.81.21-15.63,0-23.44.06-.23-1.03-.23-2.06,0-3.07,16.39-56.41,32.68-112.86,49.01-169.29Z"/>
      <path class="cls-3" d="M181.94,19.55c2.1-.04,4.18-.02,6.28,0-.03,6.75.09,13.51-.04,20.25-1.37,1.45-3.92.49-5.73.61l-.73-.66c-.02-6.72-.36-13.49.21-20.2Z"/>
      <path class="cls-3" d="M96.02,44.29c1.77-1.13,3.58-2.18,5.44-3.14,3.44,5.99,7.17,11.84,10.22,18.03-1.81,1.07-3.62,2.16-5.56,2.99-3.21-6.05-6.95-11.81-10.1-17.88Z"/>
      <path class="cls-3" d="M33.99,108.64c.99-1.9,2.03-3.76,3.18-5.55,5.95,3.53,12.02,6.86,17.93,10.45-1.06,1.83-2.1,3.66-3.2,5.47-6.01-3.38-12-6.81-17.91-10.37Z"/>
      <path class="cls-3" d="M12.53,189.02c6.86-.12,13.72-.13,20.58.02.09,2.14.09,4.28-.07,6.41-6.86-.17-13.72.06-20.58-.07.02-2.12.04-4.24.07-6.35Z"/>
      <path class="cls-2" d="M164.86,216.77h42.56c4.65,0,8.16,1.51,10.53,4.53,2.37,3.02,3.06,6.87,2.08,11.54l-4.58,21.84c-.98,4.68-3.28,8.49-6.9,11.43-3.7,2.94-7.83,4.41-12.41,4.41h-23.64l-5.81,27.73h-18.92l17.09-81.49ZM176.28,252.54h18.24c1.58,0,2.52-.75,2.84-2.26l2.78-13.24c.32-1.51-.31-2.26-1.89-2.26h-18.24l-3.73,17.77Z"/>
      <path class="cls-2" d="M126.04,244.05l1.57-7.47c.32-1.51-.35-2.26-2-2.26h-17c-1.58,0-2.52.76-2.84,2.26l-8.76,41.76c-.33,1.58.29,2.38,1.87,2.38h17c1.65,0,2.63-.75,2.95-2.26l2.04-9.73h-12.95l3.58-17.09h31.86l-6.53,31.12c-.98,4.68-3.29,8.53-6.92,11.54-3.54,2.94-7.68,4.41-12.41,4.41h-27.81c-4.73,0-8.25-1.47-10.56-4.41-2.37-3.02-3.06-6.87-2.08-11.54l10.59-50.48c.98-4.68,3.29-8.53,6.92-11.54,3.63-3.02,7.78-4.53,12.43-4.53h27.81c4.65,0,8.16,1.51,10.53,4.53,2.37,3.02,3.06,6.87,2.08,11.54l-2.47,11.77h-18.92Z"/>
      <path class="cls-2" d="M266.16,242.69l1.64-6.22c.22-.68.15-1.19-.19-1.53-.34-.34-.93-.51-1.75-.51h-15.09c-1.58,0-2.51.68-2.79,2.04l-1.61,7.7c-.22,1.06.42,1.74,1.94,2.04l20.04,4.3c10.33,2.26,14.6,7.7,12.8,16.3l-3.35,15.96c-.98,4.68-3.29,8.53-6.92,11.54-3.54,2.94-7.68,4.41-12.41,4.41h-26.57c-4.73,0-8.25-1.47-10.56-4.41-2.37-3.02-3.06-6.87-2.08-11.54l2.35-11.2h18.24l-1.49,7.13c-.28,1.36.4,2.04,2.05,2.04h16.33c1.58,0,2.51-.68,2.79-2.04l1.78-8.49c.22-1.06-.42-1.73-1.94-2.04l-20.02-4.41c-10.33-2.26-14.6-7.7-12.8-16.3l3.18-15.17c.97-4.6,3.24-8.45,6.81-11.54,3.56-3.02,7.67-4.53,12.32-4.53h25.22c4.65,0,8.16,1.51,10.53,4.53,2.37,3.02,3.06,6.87,2.08,11.54l-2.18,10.41h-18.35Z"/>
      <rect class="cls-2" x="69.23" y="228.61" width="31.38" height="5.85"/>
      <rect class="cls-2" x="57.17" y="245.7" width="31.38" height="5.85"/>
      <rect class="cls-2" x="56.32" y="278.04" width="31.38" height="5.85"/>
      <rect class="cls-2" x="43.6" y="261.87" width="41.24" height="5.85"/>
    </g>
  </g>
</svg>