<?xml version="1.0" encoding="UTF-8"?>
<svg id="Capa_2" data-name="Capa 2" xmlns="http://www.w3.org/2000/svg" viewBox="0 0 110.73 115.39">
  <defs>
    <style>
      .cls-1 {
        fill: #1d282e;
      }
    </style>
  </defs>
  <g id="Layer_1" data-name="Layer 1">
    <g>
      <path class="cls-1" d="M54,3.2c.64-1.21,1.07-2.72,2.51-3.2.45,1,.91,2.02,1.37,3.04,1.09.63,2.19,1.26,3.3,1.9-2.19.97-3.62,2.76-4.57,4.9-1.77.46-1.85-1.86-2.66-2.87-1.18-.63-2.73-1.01-2.89-2.57.97-.4,1.96-.8,2.94-1.2Z"/>
      <path class="cls-1" d="M32.42,5.44c1.38-1.2,4.28-1.18,3.32,1.34-4.42,13.68-3.62,28.99,2.54,42.02,8.22,17.92,26.08,31.11,45.73,33.24,8.42,1.09,16.96-.06,25.06-2.44,1.75-.92,2.05,1.74,1.2,2.68-5.95,12.62-16.63,22.96-29.49,28.42-15.26,6.65-33.46,6.22-48.37-1.21-11.85-5.82-21.61-15.79-27.12-27.79-6.97-14.88-7.03-32.75-.34-47.74,5.45-12.34,15.36-22.6,27.47-28.52Z"/>
      <path class="cls-1" d="M90.87,31.48c.49-1.17,1.06-2.32,2.05-3.15.58,1.06,1.16,2.13,1.74,3.21,1.14.63,2.45,1.15,3.03,2.46-1,.48-1.99.97-2.98,1.46-.57,1.17-1.16,2.34-1.75,3.51-.96-1.03-1.64-2.24-2.27-3.46-1.06-.52-2.12-1.04-3.16-1.56.73-1.27,2.09-1.83,3.34-2.47Z"/>
      <path class="cls-1" d="M60.31,31.21c1.54.03,1.6,1.94,2.54,2.83.67.71,3.44,1.36,2.02,2.6-2.39.7-2.64,3.52-4.72,4.52-.51-2.53-2.63-3.64-4.37-5.15,1.65-1.46,3.58-2.64,4.53-4.8Z"/>
      <path class="cls-1" d="M97.22,60.08c2.16-.99,3.77-2.65,4.79-4.79,1,2.09,2.39,3.99,4.76,4.63-1.06,2.36-4.02,3.29-4.76,6.01-.55-2.85-4.03-3.54-4.79-5.85Z"/>
    </g>
  </g>
</svg>