<?xml version="1.0" encoding="UTF-8"?>
<svg id="Capa_2" data-name="Capa 2" xmlns="http://www.w3.org/2000/svg" viewBox="0 0 512 512">
  <defs>
    <style>
      .cls-1 {
        fill: #fff;
      }

      .cls-2 {
        fill: #01403d;
      }
    </style>
  </defs>
  <g id="Layer_1" data-name="Layer 1">
    <g>
      <g>
        <path class="cls-2" d="M249.37,0h13.21c41.69,1.21,83.17,12.35,119.38,33.14,48.37,27.25,87.41,70.7,109.26,121.75,12.85,29.5,19.59,61.5,20.78,93.62v14.07c-1.12,36.71-9.84,73.22-26.13,106.18-16.83,34.09-41.24,64.44-71.1,87.99-30.26,24.05-66.04,41.15-103.83,49.32-15.58,3.56-31.54,5.15-47.48,5.93h-14c-45.09-1.26-89.82-14.42-128.13-38.28-50.67-31.35-89.93-80.78-108.48-137.44-7.9-23.74-12.01-48.65-12.85-73.63v-13.25c1.16-40.44,11.74-80.63,31.27-116.1,20.52-37.38,50.39-69.63,86.33-92.61C156.63,15.22,202.85,1.33,249.37,0ZM118.34,172.52c-4.83.04-8.6,4.72-8.19,9.41,0,49.37,0,98.73,0,148.1-.48,5,3.83,9.8,8.94,9.49,91.29.02,182.58.03,273.87-.01,5.08.29,9.35-4.5,8.89-9.48.02-48.02-.01-96.04,0-144.06-.07-3.36.5-7.13-1.72-9.98-1.77-2.62-5.03-3.7-8.08-3.53-91.24.04-182.48-.07-273.72.06Z"/>
        <path class="cls-2" d="M150.91,189.94c70.2,0,140.4-.03,210.6.02-35.07,23.19-70.17,46.33-105.28,69.46-35.09-23.18-70.21-46.32-105.32-69.48Z"/>
        <path class="cls-2" d="M127.09,195.4c41.53,27.33,83.01,54.74,124.52,82.11,2.9,1.9,6.88,1.71,9.69-.28,41.23-27.14,82.4-54.37,123.63-81.52-.01,42.12,0,84.23-.01,126.34-85.95.03-171.89.02-257.84.01,0-42.22-.02-84.44.01-126.66Z"/>
      </g>
      <path class="cls-1" d="M118.34,172.52c91.24-.13,182.48-.02,273.72-.06,3.05-.17,6.31.91,8.08,3.53,2.22,2.85,1.65,6.62,1.72,9.98-.02,48.02.01,96.04,0,144.06.46,4.98-3.81,9.77-8.89,9.48-91.29.04-182.58.03-273.87.01-5.11.31-9.42-4.49-8.94-9.49,0-49.37,0-98.73,0-148.1-.41-4.69,3.36-9.37,8.19-9.41ZM150.91,189.94c35.11,23.16,70.23,46.3,105.32,69.48,35.11-23.13,70.21-46.27,105.28-69.46-70.2-.05-140.4-.02-210.6-.02ZM127.09,195.4c-.03,42.22-.01,84.44-.01,126.66,85.95,0,171.89.02,257.84-.01.01-42.11,0-84.22.01-126.34-41.23,27.15-82.4,54.38-123.63,81.52-2.81,1.99-6.79,2.18-9.69.28-41.51-27.37-82.99-54.78-124.52-82.11Z"/>
    </g>
  </g>
</svg>