<?xml version="1.0" encoding="UTF-8"?>
<svg id="Capa_2" data-name="Capa 2" xmlns="http://www.w3.org/2000/svg" viewBox="0 0 375.8 333.01">
  <defs>
    <style>
      .cls-1 {
        fill: #f7f5f2;
      }
    </style>
  </defs>
  <g id="Layer_1" data-name="Layer 1">
    <path class="cls-1" d="M138.04,1.49C157.6-.48,177.3.12,196.93,0c17.26.3,34.53.48,51.76,1.46,11.87.85,21.83,12.28,20.64,24.2-1.35,8.51-2.25,17.09-3.68,25.59,23.75.06,47.49-.96,71.23-1.52,18.86-1.52,35.74,15.59,36.6,33.96,1.04,39.01,1.14,78.03,1.66,117.05.38,31.68.83,63.36.58,95.03-.39,8.3-3.85,16.31-9.15,22.64-7.38,8.72-18.7,13.78-30.08,13.83-25.84.56-51.68.61-77.52.63-71.36.34-142.72-.05-214.07-.12-11.08-.2-22.58-2.73-31.53-9.57-8.2-6.17-12.9-16.27-13.32-26.43-.16-37.68.03-75.36.6-113.04,1.02-33.32.79-66.66,1.63-99.98.33-11.15,6.29-21.96,15.62-28.09,7.59-5.23,16.98-6.66,26.01-6.28,25.7.54,51.41,1.09,77.1,2.05.34-9.92-2.68-19.63-2.72-29.54.37-10.5,9.51-19.28,19.75-20.39ZM124.62,24.9c-.96,8.12-1.18,16.36-2.99,24.37.11,1.53,1.84,2.59,3.3,2.17,23.62.41,47.23,1.8,70.85,1.72-5.29.55-10.6.85-15.92.97-36.28,1.15-72.57,2.12-108.86,2.56-11.06.22-22.14.11-33.2.71-7.02.31-14.12,3.05-18.94,8.29-5.14,5.3-7.58,12.78-7.57,20.09.24,16.93.55,33.87.72,50.81,16.39-6.56,35.6-6.47,51.8.63-.39-4.98-1.34-10.5,1.4-15.01,2.07-3.77,6.32-6.21,10.62-6.07,6.43.31,12.69,1.99,19.03,2.96,6.01-.86,11.92-2.53,18-2.95,4.8-.32,9.8,2.42,11.73,6.9,2.62,4.87.79,10.51.6,15.7,8.4-2.37,17-4.04,25.69-4.87,32.55-3.34,65.78-2.85,97.84,4.15-.52-4.93-1.13-10.17.65-14.92,2.27-4.6,7.3-7.71,12.45-7.63,6.09.37,12.01,2,18.04,2.81,5.38-.72,10.65-2.14,16.06-2.7,5.25-.73,10.78,2.12,13.37,6.72,2.6,4.55,1.31,9.94,1.6,14.9,16.59-7.23,35.94-6.55,52.83-.71-.03-16.91.48-33.82.77-50.73,0-9.42-5.03-18.62-12.91-23.76-5.97-4.29-13.57-4.83-20.68-4.67-37.32-1.56-74.68-2.1-112.02-3.13-6.39-.24-12.82-.13-19.16-1.07,21.38.11,42.76-.69,64.14-.99-.92-8.53-2.83-16.94-3.49-25.5-.54-7.19-7.22-13.54-14.53-13.05-32.96,1.41-65.97,1.11-98.93.06-3.38-.03-6.7-.82-10.08-.8-6.12.73-11.35,5.95-12.21,12.04ZM264.71,121.08c-3.12.16-6,2.59-6.7,5.62,2.01,11.74,5.58,23.18,7.13,35.01.27.99.3,2.94,1.81,2.72,8.63.17,17.28.1,25.91.03,1.63.3,1.59-1.58,1.85-2.63,1.79-11.83,5.14-23.37,7.18-35.14-.45-1.92-1.82-3.42-2.88-5.01-6.44-.59-12.78-1.92-19.15-2.99-5.04.8-10.05,1.91-15.15,2.39ZM92.11,119.88c-4.68,1.14-9.5,1.45-14.22,2.32-2.98.52-5.51,3.62-4.5,6.68,2.41,12.04,4.62,24.13,7.32,36.11.3.22.9.68,1.2.91,9,.17,18.05.24,27.05-.04,1.43-2.74,1.19-6.12,1.92-9.11,1.39-9.45,4.08-18.63,5.99-27.96,1-4.13-3.1-7.06-6.84-6.87-6.04-.14-11.91-3.16-17.92-2.04ZM125.21,139.7c-.21,8.41-1.44,16.75-1.42,25.16-.59,7.14-6.59,13.42-13.83,13.84-9.01.44-18.05.05-27.07.2-4.76.22-9.8-1.7-12.6-5.68-2.61-3.64-3.32-8.18-3.9-12.51-.79-6.51-1.54-13.04-1.52-19.61-16.52,7.25-36.01,7.27-52.76.77.97,50.97,1.65,101.95,1.38,152.93-.31,7.07,2.9,14.35,8.81,18.38,6.81,4.88,15.45,6.01,23.63,6.08,77.32-.02,154.64.29,231.96-.21,21.69-.16,43.38-.16,65.06-.97,4.27.12,7.95-2.5,10.98-5.24,5.06-4.6,8.22-11.26,8.3-18.13.06-50.64.59-101.29.06-151.93-16.75,5.6-35.74,6.22-52.12-.93-.12,7.67-1.53,15.27-1.42,22.94-.16,7.99-7.2,14.42-14.8,15.56-8.39.11-16.78-.02-25.17.05-8.21.18-16.83-6.17-17.26-14.74-.47-8.46-2.07-16.8-2.58-25.26-9.23,2.19-18.63,3.7-28.09,4.43-21.23,2.29-42.69,2.22-63.94.25-10.64-1.27-21.18-3.3-31.7-5.38Z"/>
  </g>
</svg>