<svg xmlns="http://www.w3.org/2000/svg" data-name="Capa 2" viewBox="0 0 91.8 64.74"><defs><clipPath id="a"><path d="M0 0h91.8v64.74H0z" fill="none"/></clipPath></defs><g fill="#40e8f3" clip-path="url(#a)" data-name="Layer 1"><path d="M1.25 41.89v-.01l-2.55-2.37v.06l2.5 2.33 2.18 24.67L-1.3 46.8v.2l4.71 19.89.05-.01-2.21-24.99zM-1.3 15v.05l3.85 1.68-3.85 4.25v.07l3.9-4.31.02-.03L-1.3 15z"/><path d="M-1.3 20.98v.07l3.86-4.27v5.88l-3.86.71v.04l3.89-.71.02-.01v-6.03l-3.91 4.32z"/><path d="m-1.3 23.41 3.79-.7-3.79 2.83v.06l3.9-2.91-.02-.04-3.88.72v.04zm0-20.45v.07l5.05-6.48V7.52L-1.3 9.38v.04l5.1-1.86V-3.58l-5.1 6.54z"/><path d="m6.69 27.5-4.13-4.82h.01l4.12-5.34V27.5Zm-4.08-4.83 4.03 4.7v-9.9l-4.03 5.2ZM-1.3 9.38v.04l5.05-1.84-1.18 9.11L-1.3 15v.05l3.88 1.69.02.02 1.2-9.22v-.03l-5.1 1.87zm13.1 39.53-.05-.03-10.6-7.01 9.27-.17v.02l1.37 7.19Zm-10.5-7 10.44 6.9-1.35-7.07-9.09.17Zm-2.6 4.89v.2l4.6 19.41-4.6-13.67v.15l4.71 14 .05-.01L-1.3 46.8zm5.54-57.08-.49 6.76-5.05 6.48v.07L3.79-3.5h.01l.49-6.78h-.05z"/><path d="M-1.3 37.49v.05l5.54.12-3.02 4.19-2.52-2.34v.06l2.51 2.34.02.01 3.1-4.3-5.63-.13z"/><path d="M-1.3 31.7v.07l5.53 5.84-5.53-.12v.05l5.64.12-5.64-5.96zm8-14.27-4.14-.69v-.02l1.19-9.18h.04l2.9 9.89Zm-4.09-.73 4.02.67-2.85-9.72-1.17 9.05Z"/><path d="M2.56 22.74v-6.05l4.15.69-4.15 5.35Zm.05-5.99v5.86l4.02-5.19-4.02-.67Zm.81 50.22L1.2 41.84l.04.03 10.56 6.98-8.38 18.12ZM1.25 41.93l2.2 24.86 8.29-17.93-10.49-6.93Zm9.19-.16-.05-.03-6.13-4.09v-.02l2.38-10.2h.04l3.76 14.34Zm-6.13-4.14 6.06 4.04-3.7-14.14-2.36 10.1Z"/><path d="m2.59 22.64-3.89 2.9v.06l3.88-2.89 4.04 4.71-7.92.47v.04l7.97-.47h.04l-4.12-4.82z"/><path d="M-1.3 27.89v.04l7.94-.47-2.37 10.13-5.57-5.89v.07l5.6 5.91 2.39-10.27-7.99.48z"/><path d="M25.22 63.69h-.03l-10.4-3.25.02-.03L25.4 44.87v.08l-.17 18.74Zm-10.36-3.28 10.31 3.21.17-18.6-10.48 15.39ZM1.18 41.91l3.1-4.31 6.2 4.13-9.3.17Zm3.11-4.24-3.02 4.2 9.06-.17-6.04-4.03Z"/><path d="m14.85 60.44-.04-.02 1.7-15.49h8.91L14.85 60.44Zm1.7-15.47-1.69 15.36 10.47-15.36h-8.78Z"/><path d="M16.54 44.98h-.03l-6.14-3.26v-.02l9.37-14.45.04.02-3.24 17.72Zm-6.1-3.27 6.07 3.2 3.2-17.54-9.28 14.34Zm8.51 27.76h-.04L3.37 66.9l.06-.03 11.41-6.47 4.11 9.07ZM3.5 66.87l15.37 2.53-4.05-8.95-11.31 6.42Zm3.14-39.38V17.38h.02l11.28-.51L6.63 27.49Zm.05-10.07v9.96l11.14-10.46-11.14.51ZM3.75 7.59V-3.55h.03L13.34.39l-9.59 7.2ZM3.8-3.48V7.49L13.25.4 3.8-3.48Z"/><path d="M11.74-10.28 13.27.36 3.8-3.53l2.3-6.75h-.05l-2.3 6.76v.02L13.29.42l.04.02-1.55-10.72h-.04zM92.03.42l-5.1-.51v-.05l11.05-1.19v.04L92.03.41Zm-4.88-.53 4.88.49 5.69-1.63L87.15-.11ZM29.49 32.58l-.05-.03-9.74-5.3 7.56-2.4 2.23 7.73Zm-9.67-5.31 9.6 5.22-2.19-7.58-7.41 2.36ZM3.38 66.94l.03-.06 8.36-18.08.02.06 3.07 11.58h-.02L3.39 66.95Zm8.38-18.01-8.28 17.9 11.32-6.42-3.04-11.48Z"/><path d="M18.9 69.47v-.03l-4.12-9.06.05.02 10.41 3.24-6.34 5.83Zm-4.03-9.01 4.05 8.94 6.24-5.73-10.29-3.2Zm80.11-46.91-.07-.03-17.9-8.86.04-.02 9.88-4.78v.02l8.04 13.67Zm-17.86-8.9 17.74 8.79L86.92-.08l-9.8 4.73ZM11.75 48.9v-.04l-1.38-7.19.04.02 6.15 3.25-.03.02-4.79 3.94Zm-1.31-7.14 1.34 7.06 4.71-3.86-6.05-3.19Z"/><path d="m14.81 60.43-3.06-11.58h.01l4.8-3.96v.06l-1.71 15.47h-.04Zm-3.02-11.56 3.03 11.43L16.5 45l-4.71 3.87ZM6.65 17.43v-.02L3.73 7.49l.05.03 14.17 9.39-11.31.51ZM3.81 7.59l2.87 9.79 11.13-.51-14-9.28Z"/><path d="M17.93 16.95 3.73 7.54l.03-.02L13.31.36l4.62 16.59ZM3.81 7.54l14.04 9.3L13.28.44l-9.47 7.1Z"/><path d="m6.61 27.46 11.3-10.61v.04l1.88 10.4h-.03l-13.15.17Zm11.26-10.52L6.72 27.41l13.01-.17-1.86-10.3Z"/><path d="M10.4 41.78v-.05L6.64 27.42h.03l13.14-.17-9.4 14.53ZM6.69 27.46l3.72 14.21 9.3-14.37-13.02.17Zm11.2-10.49-.02-.07L13.26.36l.04.02 8.86 3.41-4.28 13.19ZM13.33.44l4.56 16.38 4.22-13L13.33.44Z"/><path d="m25.37 45.02-.02-.07-5.63-17.74.05.03 9.71 5.28v.02l-4.11 12.48ZM19.8 27.31l5.57 17.56 4.05-12.33-9.63-5.24Z"/><path d="m39.17 40.07-9.77-7.54 8.05-3.77v.03l1.71 11.28Zm-9.68-7.53 9.62 7.42-1.69-11.14-7.93 3.71ZM25.4 44.97h-8.9v-.03l3.24-17.68h.04l5.62 17.71Zm-8.84-.04h8.78l-5.57-17.57-3.21 17.57Zm4.41-55.21 4.7 5.06L13.32.37l-1.54-10.65h-.04L13.28.43l12.44-5.62.03-.02-4.72-5.07h-.06z"/><path d="M39.13 40.1v-.08l-1.72-11.25 6.52.34-4.81 10.99Zm-1.66-11.28 1.68 11.12 4.72-10.78-6.4-.34ZM22.15 3.83 13.24.4l.05-.02 12.46-5.63-3.6 9.09ZM13.36.4l8.77 3.37 3.54-8.94L13.36.4Zm12.89 71.28h-.03l-7.35-2.23.03-.03 6.32-5.81v.04l1.03 8.03Zm-7.3-2.25 7.24 2.19-1.01-7.91-6.23 5.72Z"/><path d="M25.22 63.66h-.04l.17-18.75.03.02 6.82 3.58v.02l-6.98 15.13Zm.17-18.67-.17 18.56 6.92-15.02-6.75-3.54ZM19.74 27.3v-.03l-1.89-10.44 9.43 8.06-7.55 2.4Zm-1.82-10.35 1.85 10.28 7.42-2.36-9.27-7.92Zm40.63 4.4-8.73-5.48.03-.02 9.73-7.17v.05l-1.03 12.62Zm-8.65-5.48 8.61 5.4 1.01-12.5-9.62 7.09Z"/><path d="m27.25 24.92-.02-.02-9.35-7.99.02-.04L30 20.45l-2.75 4.47Zm-9.27-7.97 9.25 7.9 2.69-4.37-11.94-3.53Z"/><path d="M30 20.5h-.05l-12.1-3.59v-.02l4.28-13.15.02.05 7.84 16.71Zm-12.08-3.62 12 3.55-7.78-16.57-4.23 13.02Zm57.76-1.49v-.03l1.37-10.74h.03l17.93 8.89h-.08l-19.24 1.88Zm1.4-10.71-1.35 10.65 19.11-1.86-17.75-8.79ZM49.84 15.91 48.81 9.9l10.82-1.2-9.79 7.21Zm-.98-5.97 1.01 5.89 9.59-7.07-10.6 1.18Z"/><path d="m34.78 7.92-.06-.02-12.61-4.09v-.02l3.6-9.05.02.04 9.05 13.15ZM22.17 3.79l12.5 4.05-8.95-13-3.55 8.95Z"/><path d="M29.96 20.52 22.1 3.76l12.66 4.1-4.79 12.66ZM22.18 3.84l7.78 16.57L34.69 7.9 22.18 3.84Zm7.26 28.73v-.03l-2.23-7.7 10.3 3.95-.05.02-8.02 3.75Zm-2.17-7.65 2.19 7.58 7.92-3.71-10.11-3.88Z"/><path d="M37.43 28.82 27.2 24.9l2.75-4.47.02.02 7.48 8.33-.03.04Zm-10.16-3.95 10.09 3.87-7.4-8.24-2.69 4.37ZM26.2 71.69l-1.03-8.06h.02l12.83-1.54-11.83 9.6Zm-.97-8.02 1.01 7.93 11.64-9.45-12.65 1.52Z"/><path d="m25.16 63.68.02-.04 6.99-15.18.02.05 5.79 13.63h-.03l-12.79 1.54Zm7.01-15.1-6.93 15.05 12.68-1.52-5.75-13.53Z"/><path d="M32.18 48.55h-.02l-6.85-3.6.05-.02 13.85-4.96-7.04 8.58Zm-6.75-3.6 6.74 3.54 6.91-8.42-13.65 4.89Z"/><path d="M25.33 44.99v-.04l4.11-12.44.03.02 9.73 7.51h-.04L25.34 45Zm4.13-12.42L25.4 44.91l13.69-4.9-9.63-7.44Zm12.1 46.09-.04-.02-15.34-6.99.03-.02 11.76-9.55v.04l3.59 16.54Zm-15.3-7.02 15.23 6.94-3.55-16.41-11.68 9.48Z"/><path d="m46.83 43.97-.04-.02-7.67-3.92v-.02l4.8-10.95v.07l2.91 14.84Zm-7.66-3.96 7.59 3.88-2.87-14.68-4.72 10.8Zm9.68-30L42.51-5.4l8.73-.51-2.4 15.92ZM42.58-5.36l6.25 15.2 2.36-15.7-8.61.51Z"/><path d="m34.72 7.92-.02-.03-9.04-13.13h.04l16.87-.17-.02.04-7.84 13.29ZM25.75-5.19l8.97 13.03 7.78-13.2-16.75.17Zm11.69 34.02-7.52-8.38h.04l19.97-4.62-.05.06-12.43 12.94ZM30 20.48l7.44 8.28 12.34-12.85L30 20.48Z"/><path d="m49.89 15.91-.04-.02L34.72 7.9v-.04L48.86 9.9v.02l1.03 6ZM34.85 7.92l14.98 7.91-1.01-5.89-13.97-2.02Zm25.74 68.03-7.37-7.37h.03l8.88-5.31-1.54 12.68Zm-7.3-7.36 7.26 7.26 1.52-12.49-8.78 5.23Z"/><path d="M53.28 68.59h-.04l-1.87-12.08h.04l3.58 6.29-1.7 5.79Zm-1.85-11.96 1.84 11.85 1.67-5.67-3.5-6.17Zm-13.48 5.55-.02-.05-5.79-13.63h.02l14.67-4.61-.02.05-8.86 18.24ZM32.2 48.54l5.75 13.53 8.8-18.1-14.55 4.57Z"/><path d="m32.11 48.57.05-.06 6.98-8.52 7.72 3.94-.05.02-14.7 4.61Zm7.04-8.52-6.91 8.43 14.5-4.55-7.59-3.88ZM29.92 20.5l.02-.04 4.77-12.61h.02l15.19 8.03h-.06l-19.94 4.61Zm4.81-12.59-4.74 12.52 19.79-4.57-15.06-7.95Z"/><path d="M48.87 9.95h-.04L34.68 7.9l.02-.03 7.85-13.3.02.04 6.31 15.34ZM34.76 7.86 48.8 9.89 42.54-5.33 34.76 7.86Zm57.79 19.95-8.9-4.62.03-.02 11.27-9.73v.06l-2.4 14.31Zm-8.81-4.63 8.78 4.56 2.36-14.19-11.15 9.63Zm-39.82 5.98h-.02l-6.51-.34.03-.04 12.41-12.92.04.02-5.96 13.28Zm-6.43-.38 6.4.34 5.89-13.13-12.29 12.79Zm.42 33.39 8.89-18.3.02.05 4.6 12.6-13.51 5.64Zm8.88-18.18L38 62.08l13.36-5.58-4.56-12.51Zm11.69-22.65.03-.04 8.03-10.76v.06l1.37 9.72h-.02l-9.4 1.03Zm8.02-10.68-7.93 10.63 9.28-1.01-1.35-9.61Z"/><path d="M41.51 78.66v-.04l-3.59-16.54.04.02 15.34 6.48-.03.02-11.76 10.06Zm-3.53-16.5 3.55 16.41 11.68-9.98-15.23-6.43Z"/><path d="m53.29 68.62-.04-.02-15.35-6.48.05-.02 13.46-5.62 1.88 12.14Zm-15.28-6.5 15.22 6.42-1.86-12-13.36 5.58ZM59.53 8.74 51.18-5.91l7.37-1.54v.03l1.02 16.15h-.04ZM51.25-5.88l8.27 14.51L58.51-7.4l-7.25 1.52Zm32.44 29.1-8.04-7.87h.05l19.29-1.88-11.29 9.75Zm-7.94-7.84 7.94 7.77 11.15-9.63-19.09 1.86Z"/><path d="M48.81 9.95v-.03L51.2-5.96l.03.06 8.35 14.65-10.78 1.2Zm2.42-15.77L48.86 9.9l10.65-1.18-8.28-14.54Zm.14 62.36v-.02l-4.62-12.64.05.02 15.52 7.5-.04.02-10.91 5.11Zm-4.53-12.56 4.56 12.51 10.82-5.07-15.38-7.44Zm19.87-35.2-2.43-2.26 3.12-3.64-.69 5.9Zm-2.37-2.26 2.33 2.16.67-5.66-3 3.5ZM43.86 29.19l5.99-13.35h.02l8.71 5.48-14.72 7.87Zm6.01-13.28-5.91 13.18 14.53-7.77-8.62-5.41Z"/><path d="M59.53 8.77v-.03L58.51-7.41h.04l5.79 13.95h-.02l-4.79 2.23Zm-.97-16.06 1.01 15.98 4.71-2.19-5.72-13.8Z"/><path d="M64.3 6.56v-.03L58.5-7.41l.04-.02 8.85 10.39v.02l-3.1 3.6ZM58.61-7.3l5.71 13.77 3.02-3.53-8.73-10.25Zm-5.39 75.94 1.72-5.86h.02l7.21.52-.06.04-8.89 5.3Zm1.75-5.81-1.68 5.71 8.73-5.2-7.05-.5Z"/><path d="M62.12 63.34h-.02l-7.18-.51 7.38-11.49-.17 12.01ZM55 62.78l7.08.51.17-11.8L55 62.78ZM67.38 2.99l-.03-.03-8.87-10.4h.04l13.3-2.74v.04L67.37 2.99Zm-8.81-10.4L67.36 2.9l4.4-13.02-13.19 2.71Zm7.92 18.06.18-1.94h2.47l-2.65 1.94Zm.22-1.9-.16 1.8L69 8.75h-2.29Z"/><path d="m54.96 62.85-.02-.03-3.58-6.31h.02l10.95-5.15-.04.07-7.33 11.42Zm-3.54-6.33 3.54 6.24 7.25-11.29-10.79 5.06Zm35.69-15.45h-.02l-9.56-4.96.04-.02 15.02-8.36-.03.06-5.45 13.29Zm-9.49-4.96 9.46 4.9 5.41-13.18-14.87 8.28Z"/><path d="m75.55 48.06-.03-.04-5.97-7.5 8.06-4.46-2.06 12Zm-5.93-7.52 5.9 7.42 2.02-11.81-7.93 4.38Zm-22.84 3.43v-.04l-2.9-14.82h.02l21.49-2.05-.05.05-18.56 16.86Zm-2.85-14.81 2.88 14.73 18.45-16.76-21.33 2.03Z"/><path d="M43.91 29.16v-.04l14.62-7.83 6.85 5.83-21.48 2.05Zm14.62-7.82L44.02 29.1l21.26-2.02-6.75-5.74ZM69.1 8.75h-2.44v-.03l.68-5.78h.04l1.71 5.81Zm-2.38-.04h2.32l-1.66-5.64-.66 5.64Z"/><path d="M58.5 21.39 59.53 8.7l7.03 1.89-.02.03L58.5 21.4Zm1.07-12.63-1.01 12.48 7.92-10.62-6.91-1.85Z"/><path d="M66.57 10.64h-.05l-7.03-1.9 4.84-2.25v.02l2.25 4.13Zm-6.95-1.91 6.86 1.84-2.17-4.02-4.68 2.18Z"/><path d="m66.54 10.68-2.25-4.15.04-.03 2.39 2.22-.18 1.96ZM64.4 6.63l2.11 3.89.16-1.78-2.27-2.11Zm.94 20.5-.02-.02-6.84-5.82 9.44-1.03-2.58 6.87Zm-6.76-5.8 6.74 5.73 2.53-6.74-9.26 1.01Zm1.96 54.6v-.04l1.54-12.65 6.17 10.11h-.03l-7.69 2.57Zm1.57-12.55-1.52 12.48 7.59-2.53-6.07-9.95Z"/><path d="m68.23 73.41-6.17-10.1 8.91-4.45v.05l-2.74 14.51Zm-6.1-10.09 6.08 9.96 2.7-14.35-8.78 4.39ZM94.9 13.5 86.88-.14h.04l5.12.52V.4l2.89 13.09-.04.02ZM86.97-.08l7.9 13.44L92.01.42l-5.04-.5ZM70.25 15.43v-.06L69.04 8.7l3.97 1.55v.02l-2.76 5.16ZM69.1 8.77l1.17 6.53 2.68-5.02-3.85-1.51Z"/><path d="m70.24 15.38-3.76-4.78h.02l2.58-1.91v.04l1.2 6.63-.04.02Zm-3.69-4.77 3.67 4.67-1.17-6.5-2.5 1.83Zm-4.27 40.83h-.02l-15.54-7.52h.07l22.84-3.42-.03.04-7.32 10.9Zm-15.41-7.5 15.39 7.44 7.27-10.82-22.66 3.38Z"/><path d="m46.72 43.96.06-.05 18.56-16.86v.03l4.27 13.46h-.03l-22.86 3.42Zm18.6-16.82L46.87 43.9l22.68-3.39-4.23-13.37Zm2.55-6.77v-.07l-1.38-9.78 3.8 4.84-2.41 5.01Zm-1.32-9.69 1.34 9.53 2.34-4.85-3.68-4.68Zm-4.47 52.67.17-11.99 8.74 7.54-8.91 4.45Zm.21-11.89-.17 11.82 8.78-4.39-8.61-7.43Zm10.7-41.17-3.98-1.56 8.04-4.1.03.03-4.09 5.63Zm-3.86-1.56 3.85 1.51 4.01-5.52-7.86 4.01Z"/><path d="M69.06 8.76v-.03l-1.72-5.82h.04l9.76 1.72-8.08 4.12ZM67.4 2.98l1.68 5.72 7.91-4.04-9.59-1.68Zm.43 17.37.03-.06 2.39-4.95h.02l3.61 1.9-.04.02-6.01 3.09Zm2.44-4.96-2.34 4.85 5.85-3.01-3.51-1.84Zm-8.05 36.06 7.36-10.96.02.02 5.97 7.51-13.36 3.43Zm7.36-10.88-7.26 10.81L75.49 48l-5.91-7.43Z"/><path d="m70.95 58.93-.02-.02-8.71-7.51h.04l13.31-3.42-.02.04-4.6 10.91Zm-8.63-7.51 8.62 7.43 4.56-10.81-13.18 3.38ZM77.1 4.68l-9.76-1.71v-.03l4.45-13.16.02.06 5.28 14.83Zm-9.7-1.75 9.63 1.69-5.24-14.69L67.4 2.94Zm8.34 12.46h-5.52l2.76-5.17 2.76 5.17Zm-5.44-.05h5.36l-2.68-5.03-2.68 5.03Z"/><path d="M73.84 17.26h-.02l-3.57-1.88v-.04h5.51l-1.92 1.92Zm-3.49-1.87 3.47 1.82 1.82-1.82h-5.29Zm7.24 20.73h-.04l2.21-12.1h.01l3.96-.86-.02.04-6.12 12.92Zm2.21-12.07-2.18 11.89 6.03-12.72-3.85.84ZM68.19 73.4v-.06l2.74-14.51 5.48 8.57h-.02l-8.21 6Zm2.76-14.45-2.7 14.34 8.1-5.91-5.4-8.44Z"/><path d="m75.72 15.44-.03-.06-2.73-5.11 4.08-5.62.04.02-1.37 10.78Zm-2.71-5.18 2.68 5.02 1.34-10.55-4.02 5.53Z"/><path d="m79.77 24.05-5.97-6.82v-.02l1.91-1.89 4.1 8.7-.04.02Zm-5.91-6.82 5.83 6.66-4-8.5-1.83 1.83Zm-4.29 23.33v-.03l-4.28-13.5 12.33 9.08-.03.02-8.02 4.43Zm-4.2-13.4 4.22 13.34 7.94-4.39-12.16-8.95Zm17.14 43.33-6.18-3.09.03-.02 11.73-8.16.03.03-5.62 11.24Zm-6.08-3.1 6.07 3.03 5.56-11.12-11.63 8.09Z"/><path d="m77.59 36.15-12.31-9.06h.05l14.49-3.08v.03L77.6 36.15Zm-12.21-9.04 12.17 8.96 2.2-12-14.37 3.04Z"/><path d="M79.85 24.08 67.82 20.3l6.02-3.09h.01l6 6.88Zm-11.91-3.79 11.77 3.7-5.89-6.73-5.89 3.03Z"/><path d="m65.29 27.13 2.57-6.86h.02l11.99 3.77-.09.02-14.49 3.07Zm2.6-6.81-2.53 6.74 14.33-3.03-11.8-3.71Zm9.63 15.84.03-.06 6.13-12.94 8.9 4.62-.04.02-15.03 8.37Zm6.19-12.94-6.08 12.84 14.86-8.28-8.78-4.56Z"/><path d="M79.77 24.06v-.02l-4.09-8.67.04-.03 8.02 7.85h-.04l-3.93.86Zm-3.99-8.59 4.02 8.54 3.85-.84-7.87-7.7Zm9.93 65.2-3.23-10.21 5.62-11.23h.04l-2.38 21.44h-.04Zm-3.18-10.21 3.2 10.09 2.35-21.19-5.55 11.1ZM70.9 58.93l.02-.05 4.61-10.92.02.03 5.97 7.17h-.03L70.9 58.93Zm4.64-10.88-4.56 10.8 10.46-3.71-5.91-7.09Z"/><path d="m76.39 67.44-.02-.04-5.46-8.53h.03l10.59-3.77-.02.05-5.12 12.28Zm-5.41-8.53 5.4 8.44 5.07-12.16-10.47 3.71Z"/><path d="m76.33 67.46.03-.07 5.11-12.27 6.68 4.11-.03.02-11.8 8.21Zm5.17-12.27-5.06 12.15 11.64-8.1-6.58-4.05Z"/><path d="m88.14 59.28-.04-.02-6.65-4.09v-.02l5.62-14.11h.04l1.02 18.25Zm-6.63-4.14 6.58 4.05-1.01-18.05-5.57 14Z"/><path d="m87.12 41.05-.04-.02 5.45-13.27 3.63-1.39-.04.06-9.01 14.62Zm5.43-13.26-5.33 12.99 8.83-14.33-3.5 1.33ZM77.05 4.68v-.02l-5.3-14.86.06.04L86.97-.11l-9.92 4.79Zm-5.21-14.77 5.24 14.71 9.8-4.73-15.04-9.97Z"/><path d="M88.14 59.24h-.04l-1.02-18.21 9.01-14.63.04.02-7.99 32.82Zm-1.02-18.2 1.01 18.03 7.92-32.53-8.93 14.49Z"/><path d="M75.5 48.06v-.05l2.05-11.93 9.59 4.96-.04.02-11.61 7Zm2.09-11.92-2.03 11.82 11.49-6.92-9.46-4.9Z"/><path d="m81.49 55.2-5.99-7.19h.02l11.62-7.02-.02.06-5.63 14.15Zm-5.92-7.18 5.91 7.09 5.57-14.01-11.48 6.92Z"/><path d="M1.22 41.21c-.39 0-.68.29-.68.68s.29.68.68.68.68-.29.68-.68-.29-.68-.68-.68ZM2.58 17.4c.39 0 .68-.29.68-.68s-.29-.68-.68-.68-.68.29-.68.68.29.68.68.68Zm.68 5.27c0-.39-.29-.68-.68-.68s-.68.29-.68.68.29.68.68.68.68-.29.68-.68Zm.51-14.45c.39 0 .68-.29.68-.68s-.29-.68-.68-.68-.68.29-.68.68.29.68.68.68Zm.51 28.74c-.39 0-.68.29-.68.68s.29.68.68.68.68-.29.68-.68-.29-.68-.68-.68Zm2.39-18.88c.39 0 .68-.29.68-.68s-.29-.68-.68-.68-.68.29-.68.68.29.68.68.68Zm.68 9.36c0-.39-.29-.68-.68-.68s-.68.29-.68.68.29.68.68.68.68-.29.68-.68Zm3.06 13.6c-.39 0-.68.29-.68.68s.29.68.68.68.68-.29.68-.68-.29-.68-.68-.68Zm1.36 7.14c-.39 0-.68.29-.68.68s.29.68.68.68.68-.29.68-.68-.29-.68-.68-.68ZM13.3-.28c-.39 0-.68.29-.68.68s.29.68.68.68.68-.29.68-.68-.29-.68-.68-.68Zm2.21 60.7c0-.39-.29-.68-.68-.68s-.68.29-.68.68.29.68.68.68.68-.29.68-.68Zm1.02-16.15c-.39 0-.68.29-.68.68s.29.68.68.68.68-.29.68-.68-.29-.68-.68-.68Zm2.04-27.38c0-.39-.29-.68-.68-.68s-.68.29-.68.68.29.68.68.68.68-.29.68-.68Zm1.19 9.69c-.39 0-.68.29-.68.68s.29.68.68.68.68-.29.68-.68-.29-.68-.68-.68Zm2.38-23.46c-.39 0-.68.29-.68.68s.29.68.68.68.68-.29.68-.68-.29-.68-.68-.68Zm3.06 59.85c-.39 0-.68.29-.68.68s.29.68.68.68.68-.29.68-.68-.29-.68-.68-.68Zm.17-17.34c.39 0 .68-.29.68-.68s-.29-.68-.68-.68-.68.29-.68.68.29.68.68.68Zm1.87-21.43c-.39 0-.68.29-.68.68s.29.68.68.68.68-.29.68-.68-.29-.68-.68-.68Zm2.21 7.66c-.39 0-.68.29-.68.68s.29.68.68.68.68-.29.68-.68-.29-.68-.68-.68Zm.51-12.08c-.39 0-.68.29-.68.68s.29.68.68.68.68-.29.68-.68-.29-.68-.68-.68Zm2.21 28.06c-.39 0-.68.29-.68.68s.29.68.68.68.68-.29.68-.68-.29-.68-.68-.68ZM34.72 7.2c-.39 0-.68.29-.68.68s.29.68.68.68.68-.29.68-.68-.29-.68-.68-.68Zm3.4 21.6c0-.39-.29-.68-.68-.68s-.68.29-.68.68.29.68.68.68.68-.29.68-.68Zm-.17 32.64c-.39 0-.68.29-.68.68s.29.68.68.68.68-.29.68-.68-.29-.68-.68-.68Zm1.19-22.1c-.39 0-.68.29-.68.68s.29.68.68.68.68-.29.68-.68-.29-.68-.68-.68Zm4.76-10.88c-.39 0-.68.29-.68.68s.29.68.68.68.68-.29.68-.68-.29-.68-.68-.68Zm3.58 15.47c0-.39-.29-.68-.68-.68s-.68.29-.68.68.29.68.68.68.68-.29.68-.68Zm2.04-34.01c0-.39-.29-.68-.68-.68s-.68.29-.68.68.29.68.68.68.68-.29.68-.68Zm.34 5.27c-.39 0-.68.29-.68.68s.29.68.68.68.68-.29.68-.68-.29-.68-.68-.68Zm1.53 40.64c-.39 0-.68.29-.68.68s.29.68.68.68.68-.29.68-.68-.29-.68-.68-.68Zm3.57 6.29c-.39 0-.68.29-.68.68s.29.68.68.68.68-.29.68-.68-.29-.68-.68-.68Zm3.57-41.49c-.39 0-.68.29-.68.68s.29.68.68.68.68-.29.68-.68-.29-.68-.68-.68Zm1.7-11.9c0-.39-.29-.68-.68-.68s-.68.29-.68.68.29.68.68.68.68-.29.68-.68Zm1.87 53.9c-.39 0-.68.29-.68.68s.29.68.68.68.68-.29.68-.68-.29-.68-.68-.68Zm.17-11.9c-.39 0-.68.29-.68.68s.29.68.68.68.68-.29.68-.68-.29-.68-.68-.68ZM64.31 7.2c.39 0 .68-.29.68-.68s-.29-.68-.68-.68-.68.29-.68.68.29.68.68.68Zm1.02 19.21c-.39 0-.68.29-.68.68s.29.68.68.68.68-.29.68-.68-.29-.68-.68-.68Zm1.19-16.49c-.39 0-.68.29-.68.68s.29.68.68.68.68-.29.68-.68-.29-.68-.68-.68Zm.17-.51c.39 0 .68-.29.68-.68s-.29-.68-.68-.68-.68.29-.68.68.29.68.68.68Zm.68-5.78c.39 0 .68-.29.68-.68s-.29-.68-.68-.68-.68.29-.68.68.29.68.68.68Zm1.19 16.66c0-.39-.29-.68-.68-.68s-.68.29-.68.68.29.68.68.68.68-.29.68-.68Zm.51-10.88c.39 0 .68-.29.68-.68s-.29-.68-.68-.68-.68.29-.68.68.29.68.68.68Zm.51 30.44c-.39 0-.68.29-.68.68s.29.68.68.68.68-.29.68-.68-.29-.68-.68-.68Zm.68-23.81c.39 0 .68-.29.68-.68s-.29-.68-.68-.68-.68.29-.68.68.29.68.68.68Zm.68 42.17c-.39 0-.68.29-.68.68s.29.68.68.68.68-.29.68-.68-.29-.68-.68-.68Zm2.72-47.95c0-.39-.29-.68-.68-.68s-.68.29-.68.68.29.68.68.68.68-.29.68-.68Zm.17 6.29c-.39 0-.68.29-.68.68s.29.68.68.68.68-.29.68-.68-.29-.68-.68-.68Zm2.38 31.46c0-.39-.29-.68-.68-.68s-.68.29-.68.68.29.68.68.68.68-.29.68-.68Zm-.51-31.97c.39 0 .68-.29.68-.68s-.29-.68-.68-.68-.68.29-.68.68.29.68.68.68Zm1.36-10.71c.39 0 .68-.29.68-.68s-.29-.68-.68-.68-.68.29-.68.68.29.68.68.68Zm-.17 30.78c0 .39.29.68.68.68s.68-.29.68-.68-.29-.68-.68-.68-.68.29-.68.68Zm2.89-12.76c-.39 0-.68.29-.68.68s.29.68.68.68.68-.29.68-.68-.29-.68-.68-.68Zm2.38 31.8c0-.39-.29-.68-.68-.68s-.68.29-.68.68.29.68.68.68.68-.29.68-.68Zm1.53-32.65c-.39 0-.68.29-.68.68s.29.68.68.68.68-.29.68-.68-.29-.68-.68-.68ZM86.93.57c.39 0 .68-.29.68-.68s-.29-.68-.68-.68-.68.29-.68.68.29.68.68.68Zm.85 40.47c0-.39-.29-.68-.68-.68s-.68.29-.68.68.29.68.68.68.68-.29.68-.68Zm.34 17.51c-.39 0-.68.29-.68.68s.29.68.68.68.68-.29.68-.68-.29-.68-.68-.68ZM92.71.4c0-.39-.29-.68-.68-.68s-.68.29-.68.68.29.68.68.68.68-.29.68-.68Z"/><g opacity=".4"><path d="m57.48 66.22-9.97-5.95 5.24-1.5 4.74 7.42-.03.03Zm-9.87-5.93 9.81 5.86-4.69-7.32-5.13 1.46Z"/><path d="M50.07 71.72v-.03l-2.54-11.45.04.02 9.95 5.94-.02.02-7.43 5.5Zm-2.48-11.4 2.5 11.33 7.36-5.45-9.86-5.89Zm5.15-1.5-22.82-7.71-12.3-11.56.02-.03 35.11 19.26-.02.04Zm-22.8-7.74 22.6 7.63-34.78-19.08 12.18 11.45ZM-1.3 38.19v.04l2.31 1.02-2.31 3.52v.07l2.36-3.59.01-.02-2.37-1.04z"/><path d="m47.57 60.3-4.44-.45v-.04l9.63-1.04v.04l-5.18 1.48Zm-4.26-.46 4.25.42 4.96-1.42-9.21.99Z"/><path d="m43.11 59.86-13.19-8.75.02-.04 22.82 7.7v.04l-9.64 1.04Zm-13.04-8.7 13.05 8.65 9.53-1.03-22.58-7.63Z"/><path d="m50.13 71.74-.06-.03-15.59-7.72.04-.02 8.61-4.16v.02l7.01 11.91Zm-15.56-7.75 15.46 7.66-6.92-11.78-8.54 4.12ZM3.58 48.28v-.01l-4.88-2.22v.04l4.84 2.2.88 6.88-5.72-7.67v.07l5.73 7.69.05.06-.9-7.04z"/><path d="M33.32 73.34v-.03l1.19-9.36h.02l15.62 7.75h-.07l-16.77 1.64Zm1.22-9.32-1.18 9.28 16.65-1.62-15.47-7.66ZM7.41 41.63l-6.37-2.37v-.04l16.6.3v.04L7.41 41.64Zm-6.25-2.36 6.26 2.33 10.04-2.04-16.29-.29Zm8.78 29.38L4.42 55.22l7.61-.45-2.09 13.87ZM4.48 55.26 9.92 68.5l2.06-13.68-7.5.44Z"/><path d="m1.05 39.2-2.35 3.57v.07l2.34-3.55 2.49 8.95-4.83-2.19v.04l4.85 2.21.04.02-2.54-9.12zM18.4 53.52 7.37 41.6l10.28-2.09v.02l.75 13.98ZM7.45 41.63l10.9 11.79-.74-13.85-10.16 2.06ZM-1.3 47.5v.07l5.71 7.65-5.71.06v.04l5.75-.06h.04L-1.3 47.5z"/><path d="M-1.3 55.28v.04l5.72-.06-5.72 9.7v.08l5.77-9.79.02-.03-5.79.06zm4.85-6.95v-.05L1.01 39.2l6.43 2.39v.02l-3.89 6.71Zm-2.48-9.05 2.5 8.95 3.82-6.61-6.31-2.35Z"/><path d="m4.47 55.24-.02-.04-5.75 9.76v.08l5.75-9.75L9.9 68.55l-11.2-1.62v.04L9.93 68.6h.03L4.47 55.24zm7.58-.38-.05-.04-8.46-6.53v-.02l3.88-6.7 4.63 13.29Zm-8.46-6.58 8.38 6.47-4.56-13.08-3.82 6.61Z"/><path d="m11.99 54.82-4.6-13.2.03-.02 10.99 11.88h-.03l-6.39 1.34ZM7.46 41.7l4.56 13.08 6.32-1.32L7.47 41.7Z"/><path d="M4.43 55.26v-.02l-.9-7.01.04.03 8.49 6.55-7.63.45Zm-.84-6.93.88 6.9 7.48-.44-8.36-6.46Z"/><path d="m19.25 67.55-7.27-12.76 6.42-1.34v.02l.89 14.08h-.04Zm-7.21-12.74 7.2 12.64-.88-13.97-6.32 1.32ZM-1.3 37.31v.04l18.53 2.16-16.18-.29-2.35-1.03v.04l2.33 1.03h.01l16.6.3v-.04L-1.3 37.31z"/><path d="M-1.3 35.06v.04l18.6 4.38-18.6-2.17v.04l18.93 2.21.01-.04-18.94-4.46zM9.91 68.6v-.03L12 54.73l.03.05 7.27 12.77-9.39 1.04Zm2.11-13.74-2.06 13.7 9.28-1.03-7.22-12.67ZM25.5 67.58l-2.12-1.97 2.72-3.17-.6 5.14Zm-2.06-1.97 2.03 1.89.58-4.93-2.61 3.05Z"/><path d="M19.25 67.57v-.03l-.89-14.07h.04l5.04 12.16h-.02l-4.17 1.95Zm-.85-13.99.88 13.93 4.1-1.91-4.98-12.02Z"/><path d="M23.41 65.65v-.03l-5.05-12.15.03-.02 7.72 9.05h-.01l-2.69 3.15Zm-4.97-12.07 4.98 12 2.63-3.07-7.61-8.93Z"/><path d="m26.09 62.54-.02-.03-7.73-9.06h.03l11.59-2.38v.03l-3.87 11.44Zm-7.68-9.06 7.66 8.99 3.83-11.34-11.49 2.36Z"/><path d="M27.59 67.56h-2.12v-.02l.6-5.04h.04l1.49 5.06Zm-2.08-.04h2.03l-1.45-4.92-.58 4.92Zm24.56 4.18-6.98-11.89h.04l4.46.45 2.52 11.42h-.04Zm-6.91-11.84 6.88 11.71-2.49-11.27-4.39-.44Zm-24.8-6.37v-.02l-.74-13.98 12.36 11.62h-.04l-11.58 2.38Zm-.7-13.9.74 13.85 11.5-2.36-12.23-11.5Z"/><path d="m30.98 68.9-3.46-1.35 7-3.58.03.03-3.56 4.9Zm-3.37-1.36 3.35 1.31 3.5-4.81-6.85 3.5Z"/><path d="M27.55 67.57v-.02l-1.5-5.07h.03l8.5 1.5-7.04 3.59Zm-1.44-5.04 1.47 4.98 6.89-3.52-8.35-1.46Z"/><path d="m34.56 64.01-8.5-1.49v-.02l3.88-11.46.02.05 4.6 12.92Zm-8.45-1.52 8.39 1.47-4.56-12.8-3.83 11.33Z"/><path d="m33.35 73.38-.03-.06-2.38-4.45 3.56-4.9h.04l-1.19 9.41Zm-2.36-4.5 2.33 4.38 1.17-9.2-3.5 4.82Z"/><path d="M34.51 64.01v-.02l-4.62-12.95.05.03 13.22 8.76L34.52 64Zm-4.54-12.86 4.56 12.81 8.54-4.12-13.11-8.69Z"/><path d="M1.04 39.84c.34 0 .59-.25.59-.59s-.25-.59-.59-.59-.59.25-.59.59.25.59.59.59Zm2.52 9.03c.34 0 .59-.25.59-.59s-.25-.59-.59-.59-.59.25-.59.59.25.59.59.59Zm.89 5.78c-.34 0-.59.25-.59.59s.25.59.59.59.59-.25.59-.59-.25-.59-.59-.59Zm3.56-13.04c0-.34-.25-.59-.59-.59s-.59.25-.59.59.25.59.59.59.59-.25.59-.59Zm4 13.78c.34 0 .59-.25.59-.59s-.25-.59-.59-.59-.59.25-.59.59.25.59.59.59Zm6.22-15.85c0-.34-.25-.59-.59-.59s-.59.25-.59.59.25.59.59.59.59-.25.59-.59Zm-.45 13.93c0 .34.25.59.59.59s.59-.25.59-.59-.25-.59-.59-.59-.59.25-.59.59Zm8.3 9.63c.34 0 .59-.25.59-.59s-.25-.59-.59-.59-.59.25-.59.59.25.59.59.59Zm3.85-12.6c-.34 0-.59.25-.59.59s.25.59.59.59.59-.25.59-.59-.25-.59-.59-.59Zm4.6 14.08c.34 0 .59-.25.59-.59s-.25-.59-.59-.59-.59.25-.59.59.25.59.59.59Zm8.59-4.15c.34 0 .59-.25.59-.59s-.25-.59-.59-.59-.59.25-.59.59.25.59.59.59Zm5.04-.15c0-.34-.25-.59-.59-.59s-.59.25-.59.59.25.59.59.59.59-.25.59-.59Zm4.59-2.07c-.34 0-.59.25-.59.59s.25.59.59.59.59-.25.59-.59-.25-.59-.59-.59Z"/></g><g opacity=".44"><path d="M80.05 12.55 75.94-4.78l2.84 2.63 1.3 14.7h-.03ZM75.99-4.7l4.04 17.07-1.28-14.5-2.76-2.57Zm11.19 25.57-4.65-3.44h4.75l-.1 3.44Zm-4.57-3.41 4.54 3.36.1-3.36h-4.64Z"/><path d="m84.98 1.98-.03-.02-6.23-4.12 5.45-.1.81 4.24Zm-6.17-4.11 6.13 4.06-.79-4.16-5.34.1Zm1.24 14.68-6.7-19.89h.02l2.6 2.59 4.1 17.29h-.03ZM73.4-7.29l6.58 19.56-4.03-17-2.56-2.56Z"/><path d="M80.06 12.6 78.75-2.17l.02.02 6.21 4.1-4.92 10.65ZM78.78-2.12l1.29 14.61 4.87-10.54-6.16-4.08Zm14.09 12.78h-.02l-6.11-1.91v-.02l6.23-9.12v.04l-.1 11.01Zm-6.09-1.92 6.06 1.89.1-10.93-6.16 9.04Z"/><path d="M86.77 8.76h-.02l1-9.12h5.24l-6.21 9.12Zm1-9.09-.99 9.03 6.15-9.03h-5.16Z"/><path d="M89.18 14.06h-.03l-9.13-1.51.03-.02 6.71-3.81 2.41 5.33Zm-9.07-1.52 9.03 1.49-2.38-5.26-6.65 3.77Z"/><path d="m82.56 17.46-2.51-4.93h.03l9.13 1.51-.04.02-6.61 3.4Zm-2.47-4.9 2.48 4.86 6.55-3.37-9.03-1.49Z"/><path d="m80.04 12.58.02-.04 4.91-10.63v.04l1.81 6.81-6.73 3.82Zm4.92-10.59L80.1 12.51l6.65-3.77-1.79-6.75Z"/><path d="M89.16 14.07v-.02l-2.42-5.32h.03l6.12 1.91-3.73 3.43Zm-2.37-5.3 2.38 5.25 3.67-3.37-6.04-1.88Zm-1.83-6.79v-.02l-.81-4.23h.02l3.62 1.92h-.02l-2.82 2.33Zm-.78-4.2.79 4.15 2.77-2.27-3.56-1.88Z"/><path d="m86.75 8.75-1.8-6.8 2.82-2.33v.03l-1 9.1h-.03Zm-1.77-6.79 1.78 6.72.99-8.99-2.77 2.27Zm2.29 15.5h-4.7v-.03l6.63-3.42-1.92 3.44Zm-4.65-.03h4.63l1.87-3.35-6.51 3.35Z"/><path d="M92.87 20.76h-.02l-5.62-3.32h.03l6.22-2.11-.6 5.44Zm-5.57-3.31 5.55 3.27.59-5.36-6.15 2.08Z"/><path d="m87.23 17.47 1.92-3.44h.01l4.34 1.31h-.04l-6.23 2.12Zm1.94-3.41-1.88 3.36 6.12-2.07-4.25-1.28Z"/><path d="m87.15 20.85.1-3.44h.02l5.64 3.33-5.76.1Zm.13-3.38-.1 3.36 5.63-.1-5.54-3.26Zm6.2-2.11h-.02l-4.32-1.31.02-.02 3.72-3.42v.03l.61 4.72Zm-4.29-1.32 4.25 1.29-.59-4.65-3.66 3.36Z"/><path d="m96.55 26.85-9.43-6.02 5.75-.1 3.7 6.1-.02.02Zm-9.34-6 9.31 5.94-3.66-6.04-5.64.1Z"/><path d="M80.07 12.15c-.23 0-.4.17-.4.4s.17.4.4.4.4-.17.4-.4-.17-.4-.4-.4Zm2.5 4.89c-.23 0-.4.17-.4.4s.17.4.4.4.4-.17.4-.4-.17-.4-.4-.4Zm2.39-15.49c-.23 0-.4.17-.4.4s.17.4.4.4.4-.17.4-.4-.17-.4-.4-.4Zm2.2 7.2c0-.23-.17-.4-.4-.4s-.4.17-.4.4.17.4.4.4.4-.17.4-.4Zm0 11.69c-.23 0-.4.17-.4.4s.17.4.4.4.4-.17.4-.4-.17-.4-.4-.4Zm.1-3.4c-.23 0-.4.17-.4.4s.17.4.4.4.4-.17.4-.4-.17-.4-.4-.4Zm.5-17.79c-.23 0-.4.17-.4.4s.17.4.4.4.4-.17.4-.4-.17-.4-.4-.4Zm1.4 14.39c-.23 0-.4.17-.4.4s.17.4.4.4.4-.17.4-.4-.17-.4-.4-.4Z"/></g><g opacity=".7"><path d="M32.3 47.41 18.38 36.29l3.85.33L32.3 47.4l-.02.02ZM18.47 36.32l13.7 10.95-9.94-10.63-3.76-.32Zm24.57 13.25-5.78.16L41 46.8l2.03 2.77Zm-5.7.13 5.65-.15L41 46.84l-3.66 2.86ZM14.8 35.86h-.03l-1.44-5.72h.03l1.15 2.27.29 3.45Zm-1.41-5.61 1.37 5.45-.28-3.29-1.09-2.16Z"/><path d="M14.8 35.86h-.02l-7.79-9.63.02-.02 6.36 3.91 1.44 5.73Zm-7.75-9.59 7.71 9.53-1.42-5.66-6.29-3.87Z"/><path d="m13.36 30.15-6.4-3.94h.03l6.78-1.75v.02l-.41 5.67Zm-6.34-3.92 6.31 3.88.4-5.61-6.71 1.72Zm11.45 10.09-3.7-.45-.29-3.5 3.99 3.95Zm-3.67-.47 3.6.44-3.88-3.85.29 3.41Z"/><path d="m13.33 30.17.41-5.72 2.18 2.79-2.59 2.93Zm.43-5.65-.4 5.57 2.53-2.85-2.13-2.72Z"/><path d="m14.5 32.44-1.17-2.32 2.56-2.9h.02l-1.42 5.21Zm-1.14-2.31 1.13 2.24 1.39-5.08-2.52 2.84Zm-6.38-3.86V14.65L11 19.8l-4.02 6.47Zm.01-11.54v11.45l3.97-6.37-3.97-5.08Z"/><path d="m19.55 27.99-3.66-.74-.02-3.97 3.68 4.7Zm-3.63-.76 3.57.72-3.59-4.59.02 3.87Zm-2.15-2.74h-.02l-6.79 1.75 4.02-6.47v.02l2.79 4.7ZM7.02 26.2l6.71-1.72-2.75-4.65-3.96 6.37Zm22.65 9.85h-.03l-7.45.6 4.23-3.44 3.24 2.84Zm-7.39.56 7.33-.58-3.18-2.79-4.15 3.37Zm10.02 10.8L14.77 35.87v-.02l3.66.45 13.88 11.1-.02.02ZM14.84 35.88l17.24 11.35-13.65-10.91-3.59-.44Z"/><path d="M7 26.22h-.03L.04 4.37h.02l6.93 10.31L7 26.22ZM.09 4.46l6.89 21.68V14.7L.09 4.46Z"/><path d="M6.99 14.68h-.02L.03 4.36l3.16-.55 3.8 10.87ZM.07 4.38l6.86 10.21L3.17 3.84l-3.1.54Zm22.18 32.26h-.02l-3.84-.33 3.73-2.79.12 3.12Zm-3.78-.34 3.75.32-.12-3.04-3.63 2.72Z"/><path d="m22.15 33.54-3.72 2.78-3.97-3.94 7.69 1.16Zm-3.72 2.75 3.65-2.73-7.55-1.13 3.9 3.86Zm-2.52-12.97-2.17 1.18-2.77-4.69.02-.02 4.93 3.53Zm-2.15 1.15 2.11-1.15-4.84-3.47 2.73 4.62Z"/><path d="m15.92 27.28-2.19-2.8 2.17-1.18.02 3.98Zm-2.15-2.79 2.12 2.71-.02-3.86-2.1 1.14Zm18.57 22.96L22.21 36.62h.03l7.42-.59 2.68 11.42ZM22.27 36.64l10.02 10.71-2.66-11.3-7.37.59Zm4.19-3.4h-.04l-4.32.33-2.59-5.59.02-.02 6.93 5.28Zm-4.34.3 4.27-.32-6.83-5.2 2.57 5.53Z"/><path d="m14.47 32.45 1.43-5.22 3.65.73-.02.02-5.06 4.47Zm1.45-5.19-1.4 5.11 4.97-4.39-3.57-.72Z"/><path d="m22.14 33.57-7.67-1.15.02-.02 5.04-4.45 2.61 5.62Zm-7.62-1.17 7.57 1.14-2.57-5.55-4.99 4.41Zm26.72 5.63h-.02l-5.99 2.27v-.02l-.73-11.03.03.04 6.71 8.74Zm-5.98 2.23 5.94-2.25-6.66-8.67.72 10.92ZM3.2 3.84l-3.17.55.65-5.25 2.52 4.7Zm-3.13.51 3.09-.54L.69-.78.07 4.35Z"/><path d="m22.22 36.66-.12-3.12 4.37-.33-4.24 3.45Zm-.09-3.1.12 3.04 4.14-3.36-4.26.32Zm13.13 6.72h-.02l-4.82-7.78 4.12-3.23.72 11.01Zm-4.81-7.77 4.78 7.72-.72-10.9-4.06 3.18Z"/><path d="M30.45 32.51h-.02l-4.02.73-.9-10.09h.03l4.92 9.37Zm-4.01.7 3.97-.71-4.87-9.28.9 10Zm13.99 9.77h-.02l-8.12 4.45v-.04l2.95-7.13 5.19 2.71Zm-8.09 4.39 8.03-4.39-5.12-2.68-2.91 7.07ZM19.53 28l-3.66-4.68 5.04-4.33L19.52 28Zm-3.62-4.68 3.61 4.61 1.37-8.88-4.97 4.27Zm-4.93-3.49-4.03-5.15h.02l5.85-1.65-1.84 6.8ZM7 14.69l3.97 5.08 1.81-6.71L7 14.69Z"/><path d="M12.83 13.05h-.02L6.97 14.7 3.16 3.83h.02l9.64 9.22Zm-5.85 1.62 5.79-1.63-9.56-9.16 3.78 10.79Zm24.97 7.41h-.03l-6.43 1.08 2.63-3.85 3.83 2.77Zm-6.4 1.05 6.33-1.06-3.76-2.71-2.58 3.77ZM37.3 49.74h-.01l-5.01-2.33h.02l8.12-4.46-.02.04-3.11 6.75Zm-4.96-2.34 4.95 2.3 3.08-6.69-8.03 4.39Z"/><path d="M32.31 47.44v-.04L29.62 36l.03.02 5.61 4.25-2.95 7.17Zm-2.65-11.37 2.65 11.28 2.91-7.07-5.57-4.22Z"/><path d="M40.41 43h-.02l-5.18-2.72h.03L41.23 38l-.83 5Zm-5.13-2.72 5.11 2.67.81-4.91-5.92 2.24Zm-5.63-4.22h-.02l-3.24-2.85h.03l4.02-.73v.02l-.8 3.56Zm-3.19-2.83 3.18 2.78.78-3.49-3.96.71Z"/><path d="m35.24 40.29-5.61-4.25.79-3.58.02.03 4.82 7.78-.02.02Zm-5.58-4.26 5.54 4.2-4.76-7.69-.78 3.49ZM15.89 23.34l-4.94-3.55h.04l9.96-.79-5.05 4.33Zm-4.87-3.53 4.87 3.49 4.97-4.27-9.84.77Z"/><path d="m20.94 19.03-9.98.79v-.02l1.83-6.77 8.14 6.01Zm-9.94.76 9.87-.78-8.05-5.94-1.81 6.72Zm30.01 27.04-3.71 2.9-.02-.02 3.12-6.78.61 3.9Zm-3.68 2.84 3.65-2.86-.59-3.79-3.06 6.65ZM3.18 3.85.66-.83h.02l7.55-2.09-5.05 6.77ZM.7-.81 3.18 3.8l4.99-6.67L.7-.81Z"/><path d="m19.5 28 1.39-9 .02.02 4.63 4.14h-.01l-6.03 4.85Zm1.41-8.95-1.37 8.89 5.96-4.79-4.59-4.1Z"/><path d="m26.44 33.25-.02-.02-6.92-5.27h.01l6.02-4.85.91 10.13Zm-6.9-5.28 6.87 5.23-.9-10.02-5.97 4.79Zm1.39-8.91-.04-.03-8.12-5.99h.03l5.34-1.64 2.79 7.66Zm-8.1-6.01 8.04 5.93-2.75-7.55-5.29 1.62Z"/><path d="m34.55 29.34-.03-.02-9.03-6.17h.03l6.41-1.08 2.62 7.27Zm-8.99-6.19 8.94 6.11-2.59-7.17-6.35 1.06Zm21.9 22.83h-.02l-6.47.86.02-.02 3.6-5.49 2.87 4.66Zm-6.44.83 6.39-.84-2.83-4.59-3.56 5.43Z"/><path d="m39.15 22.04-7.25.05 2.36-4.66h.01l4.88 4.62Zm-7.21.02 7.14-.05-4.81-4.54-2.33 4.59Zm9.05 24.8-.61-3.89 4.23-1.64-.02.04-3.61 5.5Zm-.58-3.87.59 3.8 3.55-5.41-4.14 1.61Z"/><path d="m43.01 49.58-2.04-2.77h.02l6.49-.86-4.47 3.63Zm-1.99-2.75 1.99 2.71 4.38-3.55-6.37.84ZM16.55 5.97h-.04L3.15 3.84l5.04-6.75h.01l8.34 8.89ZM3.2 3.82l13.28 2.12L8.2-2.87l-5 6.69ZM34.55 29.3l-4.12 3.22-4.91-9.37.02-.02 9.02 6.17Zm-4.12 3.18 4.07-3.18-8.94-6.11 4.88 9.29Z"/><path d="M12.8 13.07 3.14 3.81l13.4 2.14v.02l-3.73 7.11ZM3.22 3.85l9.58 9.18 3.7-7.06L3.22 3.85Zm35.92 18.22-.03-.03-4.86-4.59 3.14-2.2 1.75 6.83Zm-4.86-4.62 4.81 4.54-1.72-6.7-3.08 2.16Z"/><path d="m18.14 11.43-5.37 1.64v-.03l3.74-7.12 1.62 5.51Zm-5.31 1.6 5.28-1.61L16.51 6l-3.68 7.04Zm31.78 28.33h-.02L40.38 43v-.02l.83-4.98.02.02 3.38 3.35Zm-4.19 1.6 4.14-1.61-3.33-3.3-.81 4.91Z"/><path d="M41.23 38.02h-.02l-6.71-8.73h.02l4.45-.82 2.25 9.54Zm-6.68-8.71 6.64 8.65-2.24-9.46-4.41.8Zm-9.03-6.14h-.01l-4.65-4.16 7.29.32-2.62 3.84Zm-4.58-4.13 4.58 4.09 2.58-3.78-7.16-.31Zm20.4-12.68-6.03.63v-.02L37.23.12l.02.02 4.1 6.21Zm-5.99.6 5.94-.62L37.24.19l-1.89 6.77Zm18.76 41.55-11.14 1.07 4.47-3.62 6.67 2.53v.03Zm-11.05 1.03 10.99-1.06-6.61-2.5-4.38 3.56Z"/><path d="M28.14 19.35h-.02l-7.22-.31v-.03l6.89-2.73.34 3.07Zm-7.18-.34 7.14.31-.34-3-6.81 2.69Zm35.45 23.65h-.02l-8.95 3.33v-.02l6.75-6.95 2.21 3.64Zm-8.92 3.28 8.88-3.29-2.17-3.59-6.7 6.88Z"/><path d="M27.81 16.3h-.03l-6.9 2.73-2.79-7.65.03.02 9.68 4.9Zm-6.9 2.7 6.84-2.7-9.6-4.85 2.76 7.56ZM16.53 5.99l-8.36-8.9 8.03.48.33 8.42Zm-8.3-8.87 8.27 8.8-.33-8.32-7.94-.48ZM47.44 46l-2.86-4.65h.02l9.65-2.33-6.8 6.98Zm-2.83-4.64 2.83 4.59 6.71-6.89-9.55 2.3Z"/><path d="M54.11 48.51h-.01l-6.7-2.54h.03l8.98-3.34v.03l-2.3 5.86Zm-6.63-2.54 6.62 2.51 2.26-5.8-8.89 3.3ZM35.34 7l-2.65-2.41L37.26.11 35.34 7Zm-2.62-2.41 2.6 2.36L37.2.2l-4.48 4.39Zm-7.25 4.16h-.04l-7.32 2.69-1.62-5.5h.02l8.95 2.82Zm-7.34 2.65 7.25-2.65-8.85-2.78 1.6 5.43Z"/><path d="m27.8 16.33-9.71-4.91 7.35-2.68 2.37 7.59Zm-9.64-4.91 9.6 4.85-2.34-7.51-7.26 2.65ZM31.92 22.1h-.01l-3.82-2.77 6.2-1.9v.03l-2.37 4.64Zm-3.77-2.76 3.76 2.72 2.32-4.58-6.08 1.87Z"/><path d="m34.27 17.46-6.15 1.89-.35-3.07h.02l6.48 1.15v.03Zm-6.14 1.86 6.07-1.86-6.41-1.14.34 3Zm16.46 22.06-3.39-3.36 5.38-5.37-2 8.73Zm-3.35-3.36 3.34 3.3 1.97-8.59-5.31 5.28Z"/><path d="M41.21 38.05v-.02l-2.27-9.56h.03l7.62 4.23h-.01l-5.37 5.36Zm-2.22-9.53L41.23 38l5.32-5.3-7.56-4.18Z"/><path d="M38.98 28.5h-.01l-4.47.82.02-.03 4.62-7.31-.15 6.52Zm-4.43.78 4.4-.8.15-6.4-4.55 7.2Z"/><path d="M34.52 29.33v-.03l-2.62-7.24h.02l7.22-.05v.02l-4.62 7.29Zm-2.58-7.24 2.59 7.18 4.56-7.23-7.15.05Zm22.28 16.96h-.03l-9.63 2.33v-.02l1.99-8.68h.02l7.65 6.37Zm-9.62 2.28 9.56-2.3-7.59-6.31-1.97 8.61Z"/><path d="M44.1 21.08h-.03l-4.97.97-1.75-6.82.03.03 6.72 5.82Zm-4.98.94 4.92-.95-6.64-5.76 1.72 6.71Zm-6.38-17.4L24.22-.22l3.86-3.4 4.66 8.24ZM24.27-.22l8.4 4.77-4.59-8.13-3.81 3.36Z"/><path d="M16.5 5.98v-.03l-.33-8.39 8.11 2.21-.02.02-7.75 6.19Zm-.3-8.38.33 8.33 7.69-6.14-8.02-2.18Z"/><path d="M25.45 8.77h-.02l-8.94-2.81.02-.02 7.75-6.19v.02l1.19 8.99Zm-8.91-2.82 8.87 2.78-1.17-8.92-7.69 6.14Zm17.73 11.52-6.52-1.15v-.02l7.59-9.37v.04l-1.07 10.49Zm-6.46-1.18 6.44 1.14 1.06-10.42-7.5 9.28Z"/><path d="M35.36 6.98h-.03l-9.9 1.79v-.02l7.27-4.17 2.65 2.41ZM25.5 8.73l9.8-1.76-2.6-2.36-7.2 4.12ZM62.05 30.9l-6.08-.74v-.02l2.2-5.67 3.88 6.43Zm-6.04-.77 5.99.73-3.82-6.33-2.17 5.6Z"/><path d="M56.01 30.14h-.02l-5.24-4.9v-.02l3.95 1.62 1.31 3.3Zm-5.19-4.87 5.14 4.82-1.28-3.23-3.86-1.59Zm12.39 13.72-.04.02-6.81 3.67v-.03l1.61-4.3 5.24.64Zm-6.8 3.63L63.12 39l-5.14-.63-1.58 4.25Zm-9.82-9.9h-.03l-7.62-4.23 5.13-7.46v.03l2.51 11.65Zm-7.61-4.23 7.56 4.18-2.48-11.57-5.08 7.38Z"/><path d="M38.95 28.54v-.04l.15-6.47 5-.97-.02.03-5.13 7.46Zm.18-6.5-.15 6.4 5.06-7.36-4.92.95Zm17.26 20.64v-.02l-2.22-3.63h.02l3.81-.68-1.61 4.34Zm-2.17-3.63 2.17 3.57 1.57-4.24-3.74.67ZM27.78 16.33v-.02l-2.36-7.56h.02l9.94-1.79-.02.03-7.56 9.35Zm-2.33-7.57 2.34 7.51 7.51-9.28-9.85 1.77Z"/><path d="M58 38.37h-.01l-3.8.68v-.02l1.8-8.89h.03l1.99 8.23Zm-3.79.65 3.75-.67-1.97-8.14-1.78 8.81ZM32.73 4.59h-.02l-7.29 4.19v-.02l-1.19-9h.02l8.48 4.83Zm-7.29 4.14 7.24-4.14-8.42-4.78 1.18 8.93Zm39.07 35.98-.04.02-10.39 3.8v-.03l2.3-5.86h.01l8.12 2.07Zm-10.38 3.76 10.29-3.76-8.02-2.04-2.27 5.81Zm-16.74-33.2-3.14 2.2v-.03l1.07-10.48h.03l2.05 8.3Zm-3.11 2.15 3.08-2.16-2.03-8.21-1.06 10.37Zm12.28 15.31-2.51-11.69.03.02 6.69 4.17-4.21 7.5ZM44.09 21.1l2.48 11.56 4.16-7.42-6.64-4.14ZM41.3 6.38v-.03l-.18-7.89.02.02 4.15 4-3.98 3.89Zm-.15-7.85.18 7.79 3.93-3.83-4.11-3.96Z"/><path d="M64.48 44.73h-.02l-8.11-2.07.03-.02 6.8-3.66V39l1.3 5.73Zm-8.06-2.08 8.02 2.04-1.29-5.67-6.74 3.63Zm-2.22-3.59h-.02l-7.65-6.37h.02L56 30.13v.02l-1.81 8.92Zm-7.6-6.36 7.59 6.31 1.79-8.85-9.38 2.54Z"/><path d="M56.02 30.15H56l-9.46 2.56.02-.03 4.2-7.48 5.27 4.94Zm-9.42 2.52 9.37-2.54-5.21-4.88-4.16 7.42Zm24.66-6.06h-.03l-6.61.34v-.02l1.63-5.73.02.02 4.99 5.4Zm-6.6.31 6.54-.33-4.93-5.34-1.61 5.67ZM37.23.17l-9.17-3.76 2.85-3.38h.01L37.24.15l-.02.02ZM28.1-3.6 37.18.12l-6.27-7.05L28.1-3.6Z"/><path d="M32.7 4.61v-.02l-4.65-8.22.04.02L37.25.15l-4.56 4.46Zm-4.59-8.18 4.6 8.13 4.5-4.4-9.1-3.73Zm22.65 28.82h-.01l-6.71-4.19h.03l9.9-2.15v.02l-3.21 6.32Zm-6.65-4.17 6.64 4.14 3.17-6.26-9.81 2.13Zm-6.74-5.77-2.06-8.35h.02l6.01-.63-3.96 8.97Zm-2.02-8.33 2.03 8.24 3.91-8.86-5.95.62Z"/><path d="M37.23.18V.16l-6.34-7.11.02-.02 7.74 4.37L37.24.18ZM30.97-6.9 37.23.13l1.39-2.72-7.64-4.32Zm27 45.3-2-8.27 6.07.74v.02l-4.07 7.51Zm-1.96-8.24 1.97 8.16L62 30.89l-5.99-.73Z"/><path d="m63.19 39.01-5.23-.64v-.02l4.08-7.52v.04L63.19 39ZM58 38.35l5.15.63-1.14-8.06-4.02 7.43Zm-2.01-8.17-1.32-3.33 3.53-2.38-.02.04-2.2 5.67Zm-1.29-3.32 1.29 3.25 2.16-5.57-3.45 2.32Z"/><path d="M58.2 24.51h-.01l-3.51 2.37-.75-7.99 4.27 5.62Zm-3.5 2.32 3.46-2.33-4.19-5.52.73 7.85Z"/><path d="M54.7 26.87h-.02l-3.95-1.63 3.21-6.36v.05l.75 7.94Zm-3.93-1.64 3.9 1.61-.73-7.85-3.16 6.25ZM61.7 5.15h-.01l-6.22 1.17V6.3l3.94-9.31v.04l2.3 8.12Zm-6.19 1.14 6.15-1.16-2.27-8.06-3.89 9.22Zm7.65 32.74V39l-1.15-8.14.02.02 5.39 3.8h-.01l-4.25 4.36Zm-1.12-8.12 1.14 8.06 4.2-4.29-5.34-3.76Z"/><path d="M58.88 12.57h-.03l-5.48-1.32 2.12-4.98 3.39 6.3Zm-5.47-1.33 5.42 1.3-3.34-6.2-2.08 4.9Zm-9.33 9.86-.02-.02-6.71-5.81h.01l9.21-8.74v.04l-2.5 14.53Zm-6.68-5.83 6.67 5.78 2.47-14.44-9.14 8.67Z"/><path d="m37.39 15.28-.02-.02 3.94-8.93 5.28.21-9.2 8.73Zm3.93-8.91-3.91 8.85 9.11-8.64-5.2-.21Z"/><path d="M41.33 6.4 37.21.15l3.94-1.67v.02l.18 7.9ZM37.25.16 41.3 6.3l-.18-7.79L37.25.15Z"/><path d="M41.17-1.5h-.03L37.2.19l1.43-2.79h.01l2.53 1.11ZM37.26.13 41.1-1.5l-2.46-1.07-1.38 2.7Zm9.32 6.45h-.02l-5.27-.22 4-3.9 1.29 4.11Zm-5.23-.24 5.19.21-1.27-4.03-3.92 3.82Zm34.07 24.62-8.05 3.74.02-.03 3.84-8.09 4.19 4.38Zm-7.99 3.68 7.95-3.7-4.14-4.33-3.81 8.02Z"/><path d="M72.66 36.54h-.01l-5.29-1.87h.03l8.04-3.75-.02.03-2.75 5.59Zm-5.22-1.87 5.21 1.84 2.72-5.53-7.94 3.69Z"/><path d="M72.7 36.53h-.04l-9.53 2.5 4.27-4.37 5.3 1.87Zm-9.49 2.44 9.4-2.45-5.21-1.84-4.19 4.28Zm-1.18-8.06v-.02l-3.88-6.41 6.52 2.45-2.63 3.98Zm-3.82-6.38 3.82 6.33 2.6-3.92-6.42-2.41Z"/><path d="m67.43 34.71-5.42-3.82 2.63-3.99 2.78 7.81Zm-5.39-3.83 5.33 3.76-2.73-7.68-2.6 3.92Z"/><path d="m64.67 26.96-6.51-2.45 2.51-5.29v.02l4 7.71ZM58.2 24.5l6.42 2.41-3.95-7.62-2.47 5.21Zm17.23-.53h-.02l-4.18 2.65v-.02l-1.03-6.21.03.02 5.21 3.56Zm-4.18 2.6 4.13-2.6-5.15-3.52 1.02 6.13Zm-6.79 18.16v-.02l-1.3-5.72h.01l9.53-2.49-8.24 8.24Zm-1.27-5.72 1.29 5.68 8.14-8.13-9.43 2.46Zm-9.23-20.07h-.01l-9.92 2.15.03-.03 9.34-9.85v.03l.56 7.7Zm-9.85 2.11 9.82-2.13-.55-7.64-9.27 9.77Z"/><path d="M44.05 21.11v-.04l2.5-14.53h.02l6.85 4.7h-.01l-9.35 9.87Zm2.52-14.52L44.1 21.03l9.28-9.78-6.8-4.66ZM45.3 2.53l-.03-.03-4.18-4.03 3.51.86.69 3.2Zm-4.12-4.01 4.07 3.93-.67-3.09-3.4-.84Zm17 26.01-4.26-5.61 6.77.33-2.51 5.29Zm-4.21-5.58 4.2 5.53 2.47-5.21-6.68-.32Zm21.45 12.03-.02-.02-4.18-4.37h.01l4.19-2.65v7.04Zm-4.16-4.38 4.13 4.32V24l-4.13 2.6Z"/><path d="M45.27 2.53v-.04l-.69-3.16h.01l2.36-.43v.02l-1.67 3.61Zm-.66-3.17.67 3.09 1.62-3.51-2.29.42ZM67.4 34.71v-.03l-2.77-7.76h.02l6.61-.34-3.86 8.12Zm-2.74-7.77 2.74 7.69 3.81-8.03-6.55.33Zm-10.72-7.97-.56-7.74h.02l5.48 1.32-4.94 6.42Zm-.54-7.71.55 7.63 4.87-6.33-5.43-1.3Z"/><path d="M60.69 19.27h-.02l-6.75-.33.02-.02 4.93-6.4v.03l1.83 6.72Zm-6.72-.35 6.68.32-1.8-6.66-4.88 6.34ZM55.5 6.3h-.03L52.12-.09l1.52-1.84v.03l1.85 8.2ZM52.16-.08l3.3 6.29-1.82-8.07-1.48 1.78Z"/><path d="m64.65 26.97-.02-.03-3.99-7.71 5.64 1.98-1.63 5.76Zm-3.95-7.69 3.94 7.62 1.61-5.67-5.55-1.95Zm-7.3-8.01h-.01l-6.87-4.71 8.99-.26v.02l-2.11 4.96Zm-6.8-4.69 6.79 4.65 2.08-4.91-8.87.26Z"/><path d="m70.23 20.43-3.98.81v-.02l2.48-8.03h.03l1.47 7.24Zm-3.94.77 3.91-.79-1.45-7.16-2.45 7.96ZM55.51 6.32l-8.98.26.02-.02 5.59-6.67v.02l3.37 6.41Zm-8.92.23 8.88-.26-3.33-6.35-5.55 6.61Z"/><path d="m52.19-.09-6.94 2.61 1.67-3.61h.01l5.26 1ZM45.3 2.47l6.79-2.55-5.16-.98-1.63 3.53Z"/><path d="m46.55 6.59-1.29-4.11h.01l6.91-2.6-.03.04-5.6 6.67ZM45.29 2.5l1.27 4.04 5.54-6.6-6.81 2.56Zm10.2 3.85v-.04L53.63-1.9l5.79-1.08v.02l-3.94 9.32Zm-1.83-8.24 1.83 8.15 3.88-9.21-5.72 1.07Zm21.73 25.87-5.2-3.56-1.47-7.23h.02l6.66 10.77-.02.02Zm-5.17-3.57 5.13 3.51-6.58-10.66 1.45 7.15Zm-9.55-1.12v-.03l-1.83-6.72h.02l5.36 1.16v.02l-3.55 5.58Zm-1.8-6.72 1.8 6.65 3.5-5.51-5.3-1.14Z"/><path d="M66.29 21.24h-.02l-5.61-1.98 3.54-5.59v.03l2.09 7.54Zm-5.6-1.99 5.56 1.95-2.06-7.46-3.5 5.51Z"/><path d="m71.26 26.64-5.01-5.43 3.98-.81 1.03 6.24Zm-4.97-5.41 4.92 5.33-1.02-6.12-3.91.79Z"/><path d="M66.27 21.27v-.04l-2.09-7.53 4.58-.52v.02l-2.5 8.07Zm-2.06-7.55 2.05 7.46 2.46-7.96-4.51.51Z"/><path d="M68.77 13.2h-.03l-4.56.52-2.51-8.58h.02l7.08 8.06Zm-4.56.49 4.51-.51-7-7.99 2.49 8.5Z"/><path d="M61.7 5.14h-.03l-2.29-8.11 1.18-1.96v.04l1.13 10.03Zm-2.29-8.11 2.24 7.95-1.1-9.83-1.14 1.88Z"/><path d="M68.76 13.19h-.02l-7.06-8.04-1.12-10.04h.03l8.18 18.08ZM61.7 5.13l7 7.98-8.11-17.93 1.11 9.94Z"/><path d="M58.86 12.59v-.03l-3.39-6.27 6.24-1.17v.02l-2.85 7.44Zm-3.35-6.28 3.34 6.21 2.81-7.37-6.15 1.16Z"/><path d="m64.22 13.72-5.38-1.16 2.84-7.47v.04l2.53 8.59Zm-5.35-1.18 5.3 1.14-2.5-8.51-2.81 7.36Z"/><path d="M7.31 25.98a.39.39 0 0 0-.56-.07.39.39 0 0 0-.07.56c.14.18.38.21.56.07a.39.39 0 0 0 .07-.56Zm7.23 9.56a.39.39 0 0 0-.07.56c.14.18.38.21.56.07a.39.39 0 0 0 .07-.56.39.39 0 0 0-.56-.07Zm-.29-3.45a.39.39 0 0 0-.07.56c.14.18.38.21.56.07a.39.39 0 0 0 .07-.56.39.39 0 0 0-.56-.07Zm-.66-1.64a.39.39 0 0 0 .07-.56.39.39 0 0 0-.56-.07.39.39 0 0 0-.07.56c.14.18.38.21.56.07Zm4.6 5.54a.39.39 0 0 0-.07.56c.14.18.38.21.56.07a.39.39 0 0 0 .07-.56.39.39 0 0 0-.56-.07Zm3.8.32a.39.39 0 0 0-.07.56c.14.18.38.21.56.07a.39.39 0 0 0 .07-.56.39.39 0 0 0-.56-.07ZM14 24.8a.39.39 0 0 0 .07-.56.39.39 0 0 0-.56-.07.39.39 0 0 0-.07.56c.14.18.38.21.56.07Zm2.22 2.19a.39.39 0 0 0-.56-.07.39.39 0 0 0-.07.56c.14.18.38.21.56.07a.39.39 0 0 0 .07-.56Zm15.85 20.09a.39.39 0 0 0-.07.56c.14.18.38.21.56.07a.39.39 0 0 0 .07-.56.39.39 0 0 0-.56-.07ZM7.22 15a.39.39 0 0 0 .07-.56.39.39 0 0 0-.56-.07.39.39 0 0 0-.07.56c.14.18.38.21.56.07Zm4.01 5.12a.39.39 0 0 0 .07-.56.39.39 0 0 0-.56-.07.39.39 0 0 0-.07.56c.14.18.38.21.56.07Zm10.64 13.12a.39.39 0 0 0-.07.56c.14.18.38.21.56.07a.39.39 0 0 0 .07-.56.39.39 0 0 0-.56-.07ZM-.2 4.06a.39.39 0 0 0-.07.56c.14.18.38.21.56.07a.39.39 0 0 0 .07-.56.39.39 0 0 0-.56-.07Zm16.33 19.58a.39.39 0 0 0 .07-.56.39.39 0 0 0-.56-.07.39.39 0 0 0-.07.56c.14.18.38.21.56.07Zm3.71 4.08a.39.39 0 0 0-.56-.07.39.39 0 0 0-.07.56c.14.18.38.21.56.07a.39.39 0 0 0 .07-.56ZM37.05 49.4a.39.39 0 0 0-.07.56c.14.18.38.21.56.07a.39.39 0 0 0 .07-.56.39.39 0 0 0-.56-.07ZM3.49 3.58a.39.39 0 0 0-.56-.07.39.39 0 0 0-.07.56c.14.18.38.21.56.07a.39.39 0 0 0 .07-.56Zm22.69 29.33a.39.39 0 0 0-.07.56c.14.18.38.21.56.07a.39.39 0 0 0 .07-.56.39.39 0 0 0-.56-.07Zm3.22 2.81a.39.39 0 0 0-.07.56c.14.18.38.21.56.07a.39.39 0 0 0 .07-.56.39.39 0 0 0-.56-.07ZM12.55 12.73a.39.39 0 0 0-.07.56c.14.18.38.21.56.07a.39.39 0 0 0 .07-.56.39.39 0 0 0-.56-.07Zm23.01 27.31a.39.39 0 0 0-.56-.07.39.39 0 0 0-.07.56c.14.18.38.21.56.07a.39.39 0 0 0 .07-.56Zm7.21 9.21a.39.39 0 0 0-.07.56c.14.18.38.21.56.07a.39.39 0 0 0 .07-.56.39.39 0 0 0-.56-.07Zm-2.02-2.74a.39.39 0 0 0-.07.56c.14.18.38.21.56.07a.39.39 0 0 0 .07-.56.39.39 0 0 0-.56-.07ZM30.18 32.19a.39.39 0 0 0-.07.56c.14.18.38.21.56.07a.39.39 0 0 0 .07-.56.39.39 0 0 0-.56-.07Zm-8.97-13.41a.39.39 0 0 0-.56-.07.39.39 0 0 0-.07.56c.14.18.38.21.56.07a.39.39 0 0 0 .07-.56Zm18.94 23.88a.39.39 0 0 0-.07.56c.14.18.38.21.56.07a.39.39 0 0 0 .07-.56.39.39 0 0 0-.56-.07ZM25.28 22.83a.39.39 0 0 0-.07.56c.14.18.38.21.56.07a.39.39 0 0 0 .07-.56.39.39 0 0 0-.56-.07Zm-7.4-11.72a.39.39 0 0 0-.07.56c.14.18.38.21.56.07a.39.39 0 0 0 .07-.56.39.39 0 0 0-.56-.07Zm23.09 26.6a.39.39 0 0 0-.07.56c.14.18.38.21.56.07a.39.39 0 0 0 .07-.56.39.39 0 0 0-.56-.07Zm6.22 7.95a.39.39 0 0 0-.07.56c.14.18.38.21.56.07a.39.39 0 0 0 .07-.56.39.39 0 0 0-.56-.07ZM34.77 29.62c.18-.14.21-.38.07-.56s-.38-.21-.56-.07a.39.39 0 0 0-.07.56c.14.18.38.21.56.07ZM16.76 6.27c.18-.14.21-.38.07-.56s-.38-.21-.56-.07a.39.39 0 0 0-.07.56c.14.18.38.21.56.07Zm27.58 34.77a.39.39 0 0 0-.07.56c.14.18.38.21.56.07a.39.39 0 0 0 .07-.56.39.39 0 0 0-.56-.07ZM27.88 19.02a.39.39 0 0 0-.07.56c.14.18.38.21.56.07a.39.39 0 0 0 .07-.56.39.39 0 0 0-.56-.07Zm3.79 2.74a.39.39 0 0 0-.07.56c.14.18.38.21.56.07a.39.39 0 0 0 .07-.56.39.39 0 0 0-.56-.07Zm-4.13-5.77a.39.39 0 0 0-.07.56c.14.18.38.21.56.07a.39.39 0 0 0 .07-.56.39.39 0 0 0-.56-.07Zm26.32 32.19a.39.39 0 0 0-.07.56c.14.18.38.21.56.07a.39.39 0 0 0 .07-.56.39.39 0 0 0-.56-.07Zm-15.14-20a.39.39 0 0 0-.07.56c.14.18.38.21.56.07a.39.39 0 0 0 .07-.56.39.39 0 0 0-.56-.07ZM25.18 8.44a.39.39 0 0 0-.07.56c.14.18.38.21.56.07a.39.39 0 0 0 .07-.56.39.39 0 0 0-.56-.07Zm9.4 8.76a.39.39 0 0 0-.56-.07.39.39 0 0 0-.07.56c.14.18.38.21.56.07a.39.39 0 0 0 .07-.56Zm11.74 15.18a.39.39 0 0 0-.07.56c.14.18.38.21.56.07a.39.39 0 0 0 .07-.56.39.39 0 0 0-.56-.07Zm-7.45-10.66a.39.39 0 0 0-.07.56c.14.18.38.21.56.07a.39.39 0 0 0 .07-.56.39.39 0 0 0-.56-.07Zm17.27 20.62a.39.39 0 0 0-.07.56c.14.18.38.21.56.07a.39.39 0 0 0 .07-.56.39.39 0 0 0-.56-.07Zm-2.19-3.62a.39.39 0 0 0-.07.56c.14.18.38.21.56.07a.39.39 0 0 0 .07-.56.39.39 0 0 0-.56-.07ZM24-.53a.39.39 0 0 0-.07.56c.14.18.38.21.56.07a.39.39 0 0 0 .07-.56.39.39 0 0 0-.56-.07Zm13.13 15.48a.39.39 0 0 0-.07.56c.14.18.38.21.56.07a.39.39 0 0 0 .07-.56.39.39 0 0 0-.56-.07Zm7.26 5.87a.39.39 0 0 0-.56-.07.39.39 0 0 0-.07.56c.14.18.38.21.56.07a.39.39 0 0 0 .07-.56Zm13.34 17.23a.39.39 0 0 0-.07.56c.14.18.38.21.56.07a.39.39 0 0 0 .07-.56.39.39 0 0 0-.56-.07ZM33.02 4.34a.39.39 0 0 0-.56-.07.39.39 0 0 0-.07.56c.14.18.38.21.56.07a.39.39 0 0 0 .07-.56Zm31.2 40.05a.39.39 0 0 0-.07.56c.14.18.38.21.56.07a.39.39 0 0 0 .07-.56.39.39 0 0 0-.56-.07ZM35.08 6.66a.39.39 0 0 0-.07.56c.14.18.38.21.56.07a.39.39 0 0 0 .07-.56.39.39 0 0 0-.56-.07Zm15.43 18.26a.39.39 0 0 0-.07.56c.14.18.38.21.56.07a.39.39 0 0 0 .07-.56.39.39 0 0 0-.56-.07Zm5.8 4.98a.39.39 0 0 0-.56-.07.39.39 0 0 0-.07.56c.14.18.38.21.56.07a.39.39 0 0 0 .07-.56Zm6.61 8.78a.39.39 0 0 0-.07.56c.14.18.38.21.56.07.18-.14.21-.38.07-.56s-.38-.21-.56-.07Zm-8.48-12.14a.39.39 0 0 0-.07.56c.14.18.38.21.56.07a.39.39 0 0 0 .07-.56.39.39 0 0 0-.56-.07ZM41.07 6.04a.39.39 0 0 0-.07.56c.14.18.38.21.56.07a.39.39 0 0 0 .07-.56.39.39 0 0 0-.56-.07ZM37.55-.09a.39.39 0 0 0-.56-.07.39.39 0 0 0-.07.56c.14.18.38.21.56.07a.39.39 0 0 0 .07-.56Zm24.23 30.66a.39.39 0 0 0-.07.56c.14.18.38.21.56.07a.39.39 0 0 0 .07-.56.39.39 0 0 0-.56-.07Zm-3.85-6.38a.39.39 0 0 0-.07.56c.14.18.38.21.56.07a.39.39 0 0 0 .07-.56.39.39 0 0 0-.56-.07Zm-4.23-5.57a.39.39 0 0 0-.07.56c.14.18.38.21.56.07a.39.39 0 0 0 .07-.56.39.39 0 0 0-.56-.07Zm13.45 15.74a.39.39 0 0 0-.07.56c.14.18.38.21.56.07s.21-.38.07-.56a.39.39 0 0 0-.56-.07ZM46.31 6.25a.39.39 0 0 0-.07.56c.14.18.38.21.56.07a.39.39 0 0 0 .07-.56.39.39 0 0 0-.56-.07Zm-.72-4a.39.39 0 0 0-.56-.07.39.39 0 0 0-.07.56c.14.18.38.21.56.07a.39.39 0 0 0 .07-.56Zm19.37 24.43a.39.39 0 0 0-.56-.07.39.39 0 0 0-.07.56c.14.18.38.21.56.07a.39.39 0 0 0 .07-.56Zm7.45 9.53a.39.39 0 0 0-.07.56c.14.18.38.21.56.07a.39.39 0 0 0 .07-.56.39.39 0 0 0-.56-.07ZM53.14 10.93a.39.39 0 0 0-.07.56c.14.18.38.21.56.07a.39.39 0 0 0 .07-.56.39.39 0 0 0-.56-.07Zm7.28 8.01a.39.39 0 0 0-.07.56c.14.18.38.21.56.07a.39.39 0 0 0 .07-.56.39.39 0 0 0-.56-.07Zm-1.25-6.63a.39.39 0 0 0-.56-.07.39.39 0 0 0-.07.56c.14.18.38.21.56.07a.39.39 0 0 0 .07-.56Zm7.41 8.66a.39.39 0 0 0-.56-.07.39.39 0 0 0-.07.56c.14.18.38.21.56.07a.39.39 0 0 0 .07-.56Zm4.97 5.38a.39.39 0 0 0-.56-.07.39.39 0 0 0-.07.56c.14.18.38.21.56.07a.39.39 0 0 0 .07-.56ZM55.17 6.55c.14.18.38.21.56.07a.39.39 0 0 0 .07-.56.39.39 0 0 0-.56-.07.39.39 0 0 0-.07.56Zm19.99 24.09a.39.39 0 0 0-.07.56c.14.18.38.21.56.07a.39.39 0 0 0 .07-.56.39.39 0 0 0-.56-.07ZM51.89-.4a.39.39 0 0 0-.07.56c.14.18.38.21.56.07a.39.39 0 0 0 .07-.56.39.39 0 0 0-.56-.07Zm12.62 13.86a.39.39 0 0 0-.56-.07.39.39 0 0 0-.07.56c.14.18.38.21.56.07a.39.39 0 0 0 .07-.56Zm5.45 6.64a.39.39 0 0 0-.07.56c.14.18.38.21.56.07a.39.39 0 0 0 .07-.56.39.39 0 0 0-.56-.07Zm5.19 3.56a.39.39 0 0 0-.07.56c.14.18.38.21.56.07s.21-.38.07-.56a.39.39 0 0 0-.56-.07ZM62 4.89a.39.39 0 0 0-.56-.07c-.18.14-.21.38-.07.56s.38.21.56.07a.39.39 0 0 0 .07-.56Zm6.5 7.99a.39.39 0 0 0-.07.56c.14.18.38.21.56.07a.39.39 0 0 0 .07-.56.39.39 0 0 0-.56-.07Z"/></g><g opacity=".34"><path d="m36.15 66.56-11.41-1.48.04-.03 8.37-6.69v.03l3 8.17Zm-11.31-1.5 11.25 1.46-2.96-8.08-8.29 6.62Z"/><path d="m36.12 66.6-3.02-8.24 4.8 2.53v.02l-1.78 5.7Zm-2.94-8.16 2.94 8.03 1.74-5.57-4.68-2.46Z"/><path d="m39.18 69.05-3.08-2.5 1.76-5.66h.04l1.28 8.16Zm-3.04-2.52 2.98 2.41-1.25-7.96-1.73 5.55ZM24.8 65.14l-7.31-16.22 8.87 4.67-1.55 11.55Zm-7.23-16.12L24.78 65l1.53-11.38-8.73-4.6Z"/><path d="m43.44 59.65-5.57 1.27-2.51-5.53 8.09 4.26Zm-5.55 1.22 5.43-1.24-7.88-4.15 2.45 5.39Zm-4.72-2.47-.02.02-8.39 6.7 1.55-11.55.03.02 6.83 4.81Zm-8.35 6.62 8.29-6.62-6.76-4.76-1.53 11.38Zm37.81-.47-.04.02-10.03 5.5 3.75-7.46h.02l6.3 1.93Zm-9.98 5.43 9.87-5.42-6.19-1.89-3.67 7.31Z"/><path d="m24.81 65.06-.03.02L1.37 38.94l.03-.03 16.15 10.06 7.26 16.1ZM1.5 39.02l23.22 25.94-7.2-15.97L1.5 39.02Z"/><path d="m17.55 48.96-.03.03L1.35 38.92l4.07-2.75h.01l12.12 12.79ZM1.42 38.92l15.98 9.95-12-12.65-3.98 2.69Zm34.01 16.5-2.28 3.01h-.02l-6.81-4.81.02-.04 9.09 1.84Zm-2.29 2.95 2.22-2.92-8.93-1.81 6.71 4.73Z"/><path d="m37.92 60.94-4.81-2.53 2.29-3.01 2.53 5.54Zm-4.75-2.55 4.66 2.45-2.45-5.37-2.22 2.92Zm40.33 20.4-20.94-8.76.04-.02 9.98-5.48L73.5 78.79Zm-20.85-8.76 20.72 8.67-10.8-14.11-9.91 5.44Zm3.73-7.39-.05.03-5.83 3.17h-.01l-7.12-6.18.02-.04 12.99 3.02Zm-5.87 3.15 5.75-3.13-12.8-2.98 7.05 6.11Z"/><path d="m39.14 69.07-1.28-8.19 5.56-1.27-.02.04-4.26 9.42Zm-1.24-8.16 1.25 8.01 4.19-9.25-5.44 1.24Z"/><path d="m50.55 65.82-11.44 3.21.02-.04 4.24-9.38 7.17 6.21Zm-11.37 3.14 11.28-3.16-7.07-6.13-4.2 9.29Zm40.83-8.9-.02.02L73.05 67v-.02L65.1 52.04l.06.03L80 60.06Zm-6.94 6.87 6.88-6.87-14.74-7.93 7.86 14.79ZM19.7 19.36l-8.17-3.07.03-.02 4.47-3.55v.02l3.67 6.63Zm-8.08-3.09 7.99 3.01-3.59-6.51-4.41 3.5ZM5.45 36.2l-4.07 2.75-2.4-7.73 6.47 4.98ZM1.4 38.89l3.98-2.69-6.33-4.87 2.34 7.56Z"/><path d="m52.61 70.08-2.13-4.27 5.89-3.2-3.76 7.48Zm-2.08-4.26 2.07 4.16 3.66-7.29-5.74 3.12Zm22.55 1.14-.03.03-11.62-7.85 3.73-7.09 7.92 14.91Zm-11.6-7.84L73 66.9l-7.84-14.77-3.68 6.99Z"/><path d="m61.49 59.13-.02.02-5.16 3.53v-.02l-7.6-13.5.03-.03 12.75 10Zm-5.17 3.49 5.1-3.49-12.62-9.9 7.53 13.39Zm-12.91-2.94-8.05-4.24v-.02l4.33-9.2 3.72 13.45Zm-7.99-4.25 7.93 4.17-3.66-13.25-4.26 9.08Zm-9.06-1.79-8.86-4.67.02-.02 7.13-5.97 1.71 10.65Zm-8.79-4.67 8.74 4.6-1.68-10.5-7.05 5.9Z"/><path d="m24.67 43.03-.03.02L17.52 49h-.01L5.39 36.21l.02-.03 19.26 6.85Zm-7.14 5.92 7.06-5.91-19.11-6.79 12.05 12.7Zm39.51-5.32-.04.03-8.3 5.53 1.25-7.02 7.09 1.46Zm-8.28 5.47 8.18-5.45-6.95-1.43-1.23 6.89Zm24.69 29.71-.04-.05-10.89-14.23h.06l10.5 2.42v.02l.37 11.84ZM62.63 64.59l10.78 14.09-.37-11.7-10.42-2.39Z"/><path d="M81.97 67.52h-.03l-8.93-.53.03-.03 6.94-6.93 1.98 7.49Zm-8.86-.57 8.81.52-1.95-7.37-6.86 6.85ZM62.6 64.59h-.03l-6.3-1.93.04-.02 5.16-3.54v.03l1.13 5.46Zm-6.24-1.95 6.18 1.89-1.1-5.37-5.08 3.48Z"/><path d="m73.06 66.99-10.5-2.41-1.13-5.49.04.03 11.61 7.84-.02.04Zm-10.47-2.45 10.37 2.38-11.47-7.75 1.11 5.37ZM35.4 55.46h-.02l-9.12-1.85.05-.03 13.41-7.35-4.33 9.22Zm-9.01-1.86 8.99 1.82 4.26-9.08-13.25 7.26Z"/><path d="m39.75 46.28-13.43 7.36v-.03l-1.71-10.6 15.14 3.27Zm-13.4 7.29 13.29-7.28-14.97-3.24 1.69 10.52ZM8.22 23.68l-9.23 7.64.31-4.91h.01l8.88-2.76.02.04Zm-9.18 7.55 9.07-7.51-8.77 2.72-.3 4.79Z"/><path d="m5.42 36.24-6.44-4.96.02-.02 9.24-7.65-2.81 12.62Zm-6.37-4.96 6.35 4.89 2.77-12.44-9.12 7.55ZM43.37 59.7l-3.71-13.44h.04l9.06 2.88v.02L43.37 59.7Zm-3.65-13.38 3.67 13.26 5.32-10.43-8.98-2.84Z"/><path d="M56.36 62.68h-.05l-12.96-3.02v-.02l5.38-10.53 7.63 13.58Zm-12.95-3.05 12.87 2.99-7.55-13.43-5.32 10.44Zm-3.66-13.31h-.07l-15.1-3.28.03-.03 6.43-5.63 8.7 8.93Zm-15.07-3.3 14.95 3.23-8.58-8.81-6.37 5.57Z"/><path d="M65.22 52.12h-.06l-16.48-2.96.04-.03 8.27-5.52H57l8.22 8.51Zm-16.44-2.98 16.32 2.92-8.12-8.39-8.2 5.47Zm44.91 18.12-.03.02-8.5 5.25v-.04l1.59-9.92 6.94 4.7Zm-8.47 5.19 8.39-5.19-6.83-4.62-1.56 9.81Z"/><path d="m67.06 39.06-10.1 4.62.37-7.99h.03l9.7 3.38Zm-10.05 4.55 9.94-4.55-9.57-3.32-.37 7.87Zm28.2 28.93-3.29-5.05h.01l4.87-4.95v.06l-1.59 9.94Zm-3.24-5.04 3.21 4.94 1.56-9.77-4.77 4.84Zm-49.6-50.17h-.08l-12.63 2.01-.02-.04 5.85-4.54h.01l6.86 2.57Zm-12.64 1.96 12.48-1.97-6.71-2.51-5.77 4.48Zm5.7 11.51-.06.02-19.99 5.41 2.81-12.59h.02l17.22 7.16ZM5.44 36.17l19.87-5.38-17.09-7.1-2.78 12.48Zm59.75 15.9-3.73 7.09h-.02l-12.73-10 .02-.04 16.46 2.95Zm-3.74 7.03 3.68-6.99-16.32-2.92 12.64 9.92Z"/><path d="M24.65 43.06 5.34 36.2l20.05-5.42v.03l-.74 12.26ZM5.48 36.2 24.62 43l.73-12.18L5.48 36.2Zm61.59 2.9-.07-.02-9.67-3.36 3.01-5.05 6.73 8.43Zm-9.68-3.4 9.56 3.32-6.61-8.27-2.95 4.95Z"/><path d="m31.08 37.42-6.47 5.66v-.05l.74-12.28 5.73 6.67Zm-6.42 5.56 6.36-5.57-5.63-6.56-.73 12.13Zm62.15 19.61-.02.02-4.85 4.92v-.04l-1.99-7.47h.04l6.82 2.56Zm-4.85 4.86 4.78-4.85-6.72-2.51 1.95 7.36Z"/><path d="m80 60.05-.03.03-14.85-7.99.03-.02 5.71-3.93v.02L80 60.05Zm-14.8-7.96L79.91 60l-9.06-11.8-5.65 3.89Zm-16.45-2.92h-.02l-9.1-2.88L50 42.16l-1.25 7.01Zm-9-2.88 8.96 2.83 1.23-6.89-10.19 4.06Zm20.53-30.5-8.02 4.66v-.03L50.62 9.67l.04.02 9.62 6.1Zm-7.99 4.59 7.91-4.59-9.52-6.04 1.61 10.63Z"/><path d="M50 42.2h-.02L39.7 46.31l-.02-.03 7.92-8.13 2.41 4.06Zm-10.23 4.03 10.17-4.05-2.35-3.98-7.82 8.03Z"/><path d="m47.64 38.16-.03.03-7.92 8.13-.02-.02-8.68-8.91h.05l16.59.76Zm-7.95 8.1 7.85-8.07-16.45-.75 8.59 8.82ZM19.71 19.32 8.16 23.7l3.4-7.45h.02l8.13 3.07ZM8.24 23.63l11.35-4.31-8.01-3.02-3.34 7.33Z"/><path d="M25.41 30.84 8.15 23.67l11.52-4.37v.02l5.75 11.53ZM8.26 23.67l17.06 7.09-5.68-11.41-11.38 4.32Zm85.4 43.62h-.02l-6.91-4.69.02-.02 12.02-9.31-5.11 14.01ZM86.8 62.6l6.84 4.63 5.05-13.83-11.88 9.2ZM52.3 20.44l-5.22-1.7 3.58-9.12 1.64 10.82Zm-5.17-1.72 5.11 1.66-1.61-10.6-3.51 8.94Z"/><path d="m8.22 23.68-8.89 2.76-.02-.04 12.25-10.15.03.02-3.37 7.4Zm-8.81 2.69 8.78-2.72 3.33-7.3L-.59 26.37Zm40.22 2.71-.04.04-8.54 8.32v-.02l-5.72-6.65h.04l14.26-1.7Zm-8.58 8.31 8.46-8.25-14.1 1.68 5.64 6.57Z"/><path d="M47.64 38.2 31 37.44l8.57-8.36 8.07 9.12Zm-16.54-.8 16.45.75-7.98-9.01-8.47 8.26Zm25.91 6.26h-.02l-7.06-1.46 7.46-6.54v.05l-.37 7.95Zm-7-1.48 6.95 1.43.37-7.86-7.32 6.42Z"/><path d="m57.37 35.72-7.41 6.5-2.41-4.06h.03l9.77-2.47.02.04Zm-7.39 6.44 7.31-6.41-9.66 2.44 2.35 3.97ZM86.8 62.63l-6.84-2.56v-.02l4.16-10.86 2.69 13.44Zm-6.79-2.58 6.74 2.52-2.64-13.23-4.09 10.71Z"/><path d="m79.99 60.1-.02-.03-9.15-11.93h.05l13.28 1.1v.03L80 60.1ZM70.9 48.2l9.08 11.83 4.1-10.73-13.18-1.09Z"/><path d="M70.88 48.18h-.01l-5.73 3.95v-.05L67 38.97l3.88 9.2Zm-5.69 3.87 5.64-3.88-3.81-9.03-1.83 12.91Z"/><path d="m65.17 52.13-.03-.03-8.19-8.47h.03l10.05-4.61v.04l-1.86 13.07Zm-8.15-8.48 8.12 8.4 1.83-12.95-9.96 4.55Zm41.76 9.68-.03.03-11.99 9.28v-.03l-2.68-13.36h.03l14.67 4.09Zm-12 9.23 11.9-9.22-14.56-4.05 2.65 13.27Z"/><path d="m73.37 34.6-.03.02L67 39.08h-.01l-6.71-8.42.06.02 13.03 3.91Zm-6.36 4.43 6.27-4.42-12.88-3.87 6.62 8.28ZM21.28 8.08l-5.23 4.68-.03-.02 8.24-15.02.04.02-3.02 10.34Zm-5.18 4.57 5.14-4.6L24.21-2.1l-8.1 14.75Zm31.08 6.11-14.92-1.41 3.25-7.17 11.67 8.58Zm-14.86-1.45 14.72 1.39-11.51-8.46-3.21 7.07Z"/><path d="m25.54 14.78-.04.03-5.86 4.55v-.02l-3.66-6.62 9.56 2.06Zm-5.88 4.51 5.79-4.49-9.38-2.03 3.59 6.52ZM37.42 3.75 21.23 8.09l3.04-10.4h.02l13.13 6.05ZM21.29 8.03 37.3 3.74 24.29-2.25l-3 10.28Z"/><path d="m25.37 30.85-.02-.04-5.73-11.5 12.7-2.01-.02.04-6.94 13.51Zm-5.68-11.51 5.68 11.42 6.88-13.4-12.56 1.98Z"/><path d="M39.6 29.13h-.03l-14.24 1.7.02-.03 6.94-13.51.02.03 7.3 11.81Zm-14.2 1.64 14.13-1.68-7.25-11.73-6.88 13.41Zm31.99 4.95-9.82 2.48v-.03l4.71-17.83.02.07 5.09 15.32Zm-9.77 2.43 9.71-2.45-5.06-15.21-4.66 17.66Z"/><path d="m52.32 20.41-.03.02-12.7 8.7-.03-.03 7.55-10.39h.01l5.21 1.7Zm-12.67 8.62 12.57-8.61-5.11-1.66-7.46 10.27ZM25.54 14.82h-.05l-9.51-2.06 5.28-4.72v.02l4.28 6.77Zm-9.47-2.09 9.38 2.03-4.2-6.66-5.18 4.64Zm79.61 27.05-.02.03-10.4-3.57v-.04l6.52-.21 3.89 3.78Zm-10.3-3.54 10.2 3.5-3.82-3.71-6.38.2Zm-1.23 13.05h-.04l-13.27-1.1v-.02l2.49-13.61.03.04 10.81 14.7Zm-13.27-1.14 13.18 1.09-10.72-14.59-2.46 13.5Z"/><path d="m70.86 48.24-.03-.06-3.85-9.13 6.37-4.49v.05l-2.49 13.63Zm-3.83-9.17 3.81 9.03 2.45-13.45-6.27 4.41Zm-19.43-.85-.03-.03-8.04-9.08h.02l12.75-8.74v.05l-4.71 17.8Zm-8-9.11 7.98 9.02 4.66-17.67-12.64 8.65Z"/><path d="m47.14 18.71-.02.03-7.56 10.41-.02-.03-7.3-11.82h.04l14.86 1.41Zm-7.57 10.36 7.5-10.33-14.74-1.4 7.24 11.72ZM35.59 10.2l-.06.03-10.03 4.59v-.02l-4.27-6.76L35.6 10.2ZM25.5 14.76l9.94-4.54L21.3 8.09l4.2 6.67Z"/><path d="M35.53 10.23 21.26 8.08v-.04L37.4 3.71v.03l-1.86 6.48ZM21.36 8.06l14.14 2.13 1.83-6.41-15.97 4.28Zm39 22.65-3 5.05v-.04l-5.1-15.3.04-.02 8.07 10.31Zm-3 4.95 2.95-4.95-7.98-10.19 5.04 15.14Z"/><path d="M32.3 17.35h-.02l-6.84-2.56.05-.02 10.07-4.6-3.26 7.19Zm-6.75-2.56 6.73 2.51 3.2-7.05-9.92 4.54Zm58.57 34.53L73.28 34.57h.05l11.96 1.63-1.17 13.12ZM73.37 34.63l10.72 14.58 1.16-12.97-11.87-1.61ZM60.24 15.84l-.02-.04-5.2-10.9.05.02 8.31 2.99v.02l-3.13 7.92ZM55.1 4.97l5.14 10.76 3.08-7.81-8.22-2.95Z"/><path d="M98.76 53.37h-.03l-14.67-4.09.03-.03 11.58-9.5v.03l3.09 13.58Zm-14.61-4.11 14.56 4.05-3.06-13.48-11.5 9.43Z"/><path d="m95.7 39.79-.03.02-11.6 9.51v-.05l1.17-13.07 10.45 3.59Zm-11.57 9.43 11.49-9.42-10.33-3.55-1.16 12.97ZM50.65 9.72l-15.16.51 1.86-6.51h.02l13.29 5.97v.04Zm-15.11.47 15.02-.5-13.18-5.91-1.83 6.41ZM24.3-2.26l-8.25 15.02-4.45 3.54-.03-.03L24.26-2.29l.04.02Zm-8.29 14.99 8.05-14.65-12.39 18.09 4.34-3.45Z"/><path d="M24.3-2.26 11.59 16.3-.67 26.44l-.03-.03 24.96-28.7.03.03ZM11.56 16.26l12.5-18.25L-.5 26.25l12.06-9.98Zm35.56 2.5-.02-.02-11.64-8.56h.06l15.16-.51-3.56 9.08Zm-11.55-8.53 11.52 8.47 3.52-8.97-15.04.5Zm49.72 26.02h-.02l-11.99-1.63.04-.03 12.47-9.21v.04l-.5 10.82Zm-11.91-1.66 11.87 1.61.5-10.74-12.36 9.13ZM53.69 4.02l-2.81.99L49.29 1l4.41 3.03Zm-2.79.94 2.7-.95-4.23-2.9 1.53 3.85Zm9.46 25.81-8.12-10.36h.02l8-4.65.1 15.02ZM52.3 20.42l8.01 10.23-.1-14.82-7.91 4.59Z"/><path d="M50.67 9.73h-.03L37.35 3.76v-.04L50.9 4.96v.02l-.24 4.75ZM37.48 3.78l13.15 5.89.23-4.67-13.38-1.23Z"/><path d="M50.91 5.01h-.03L37.36 3.77v-.04l11.98-2.7v.02l1.58 3.96ZM37.49 3.74l13.36 1.23-1.54-3.89-11.82 2.66Zm58.2 36.1-3.94-3.82 3.43-5.54v.07l.5 9.3Zm-3.89-3.83 3.84 3.73-.49-9.13-3.36 5.4Z"/><path d="M95.2 30.54v.02l-3.43 5.5-6.06-10.69 9.49 5.17Zm-3.43 5.44 3.37-5.42-9.32-5.08 5.95 10.5ZM49.36 1.07h-.04l-12 2.71v-.03l3.41-11.73.02.03 8.61 9.02ZM37.39 3.72l11.89-2.68-8.52-8.95-3.37 11.63Zm17.7 1.26-1.47-.95 1.04-1.97.44 2.92Zm-1.42-.97 1.36.88-.4-2.71L53.67 4Z"/><path d="M91.81 36.04h-.03l-6.53.21v-.02l.5-10.87.04.06 6.02 10.62Zm-6.52.16 6.45-.2-5.95-10.5-.5 10.71Zm2.65-34.89h-.02l-7.95 5.55v-.04L79.6-8.64l.04.04 8.29 9.91Zm-7.93 5.48 7.87-5.48-8.23-9.83.36 15.31Z"/><path d="M88.67 13.45h-.04l-8.47 1.62-.17-8.28 8.69 6.67Zm-8.48 1.57 8.38-1.59-8.55-6.56.17 8.15Zm-6.84 19.62h-.04L60.3 30.73v-.02l7.39-17.97.02.06 5.64 21.84Zm-12.98-3.95 12.93 3.88-5.61-21.71-7.32 17.83Z"/><path d="M60.36 30.72h-.04l-.1-14.94 7.51-3.02-7.37 17.96Zm-.1-14.92.1 14.8 7.3-17.77-7.39 2.97ZM54.67 2.11l-1.02 1.94h-.02l-4.32-2.98.02-.04 5.34 1.07Zm-1.04 1.88.97-1.85-5.19-1.04 4.22 2.89Z"/><path d="M60.29 15.84 50.62 9.7l4.45-4.81v.03l5.22 10.92ZM50.68 9.7l9.51 6.03-5.14-10.76-4.37 4.73Z"/><path d="m55.11 4.92-.03.04-4.45 4.81.24-4.79h.02l4.22-.05Zm-4.44 4.73 4.34-4.69-4.11.05-.23 4.64Z"/><path d="m55.13 4.96-4.24.05v-.04L53.65 4l1.47.96Zm-4.12 0 3.98-.05-1.35-.88-2.63.92Zm16.72 7.84h-.03l-7.5 3.02 3.14-7.95 4.39 4.93Zm-7.46 2.95 7.38-2.96-4.3-4.83-3.08 7.8Zm.2-11.76-.06-.02-5.81-1.84 2.9-2.51v.02l2.97 4.35Zm-5.79-1.88 5.69 1.8L57.5-.33 54.69 2.1Z"/><path d="m60.42 3.97-5.38.99v-.02l-.43-2.85h.03l5.78 1.84v.04Zm-5.34.94 5.26-.96-5.67-1.8.41 2.76Zm30.71 20.52h-.01l-12.49 9.23.02-.06 6.86-19.61.02.04 5.61 10.4Zm-12.42 9.12 12.37-9.13-5.57-10.32-6.8 19.46Z"/><path d="m73.32 34.68-.02-.07-5.64-21.84h.03l12.5 2.25v.02l-6.87 19.63Zm-5.6-21.86 5.61 21.71 6.81-19.48-12.42-2.23ZM63.4 7.96l-.06-.02-8.36-3 5.45-1 2.97 4.03Zm-8.26-3.02 8.15 2.93-2.88-3.9-5.27.97ZM37.37 3.78h-.02L24.22-2.27l16.56-5.71v.04L37.37 3.78ZM24.33-2.27l13.01 5.99 3.37-11.64-16.38 5.65Zm70.86 32.85-9.47-5.16 9.66-3.8-.19 8.96Zm-9.38-5.16 9.34 5.09.18-8.83-9.52 3.74ZM57.52-.34l-2.9 2.51.1-8.12h.04l2.76 5.61Zm-2.86 2.42 2.81-2.43-2.71-5.51-.1 7.94Z"/><path d="M54.66 2.15h-.02l-5.35-1.08.02-.03 5.45-7.05-.1 8.16Zm-5.3-1.11 5.26 1.06.1-7.99-5.36 6.93Zm14 6.94-.04-.05-2.94-3.98h.02l3.02-2.09v.04l-.06 6.08Zm-2.91-4.02 2.88 3.89.06-5.92-2.94 2.02Zm25.32 21.52-5.64-10.45h.03l8.48-1.61-2.87 12.07ZM80.2 15.06l5.56 10.31 2.83-11.9-8.39 1.59Z"/><path d="M95.39 21.66h-.03l-9.63 3.79v-.04l2.87-12.02.03.03 6.76 8.24Zm-9.59 3.73 9.53-3.74-6.7-8.16L85.8 25.4ZM54.78-5.97l-5.45 7.05-.02-.02-8.61-9.05h.06l14.02 2.02Zm-5.46 6.99 5.38-6.96-13.89-1.99 8.51 8.95ZM62.73-.4l-2.31 4.39-2.96-4.36 5.27-.03Zm-2.32 4.31 2.25-4.27-5.13.03 2.88 4.24Z"/><path d="M63.43 1.9h-.01l-2.99 2.07-.03-.03 2.3-4.38.72 2.33Zm-2.96 1.99 2.9-2-.69-2.21-2.22 4.21Zm19.54 2.92-.03.03L71.29.01l.97-3.52.03.03 7.72 10.29ZM71.33 0l8.55 6.71-7.6-10.13L71.33 0Z"/><path d="m71.32.03-7.93 1.89V1.9l-.72-2.3 8.64.39v.04Zm-7.9 1.84L71.16.02l-8.44-.38.69 2.23Zm16.77 13.2h-.03l-12.54-2.26L80.01 6.8v.03l.17 8.24Zm-12.43-2.28 12.39 2.23-.17-8.16-12.22 5.93Z"/><path d="m80.03 6.83-12.38 6v-.04L71.3-.03l.02.02 8.71 6.84Zm-12.31 5.93 12.23-5.94L71.32.04l-3.6 12.72Z"/><path d="m71.38-.03-8.05 8 .06-6.09h.02l7.97-1.91Zm-8.01 7.9L71.24.04l-7.82 1.87-.06 5.95Z"/><path d="m67.7 12.84-4.38-4.92h.01l8.02-7.98-.02.08-3.63 12.83Zm-4.33-4.92 4.31 4.84L71.27.08l-7.9 7.84Zm16.65-1.03-.04-.05-7.74-10.31 7.41-5.15v.04l.37 15.47ZM72.3-3.46l7.67 10.22-.36-15.3-7.31 5.08Z"/><path d="M71.33.03h-.02L62.7-.36V-.4l9.61-3.1v.04L71.33.03Zm-8.52-.42 8.49.38.95-3.42-9.44 3.04ZM95.37 21.7l-.03-.04-6.76-8.24h.03l8.21-1.76v.03L95.37 21.7Zm-6.72-8.25 6.69 8.15 1.43-9.89-8.12 1.73Z"/><path d="m102.87 8.12-.03.02-6.04 3.58h-.01L87.91 1.33l.02-.03 14.95 6.83Zm-6.07 3.55 5.98-3.54-14.79-6.76 8.81 10.3Z"/><path d="M81.03-10.28 87.76 1.1l-8.11-9.69.21-1.69h-.04l-.21 1.7v.01l8.29 9.89.03-.02-6.85-11.58h-.05z"/><path d="m81.95-10.28 20.76 18.33-14.78-6.76-6.85-11.57h-.05l6.86 11.6.01.01 14.91 6.81.03-.03-20.83-18.39h-.06z"/><path d="m88.64 13.48-.04-.03-8.64-6.63 7.97-5.55v.04l.71 12.17Zm-8.61-6.65 8.56 6.57-.7-12.05-7.86 5.48Z"/><path d="m96.83 11.71-8.24 1.76v-.02l-.71-12.19.04.05 8.91 10.41Zm-8.19 1.7 8.12-1.73-8.82-10.31.7 12.04Z"/><path d="M25.08 64.53c-.31-.16-.66-.05-.83.26s-.05.66.26.83c.31.16.66.05.83-.26.16-.31.05-.66-.26-.83Zm8.6-5.84c.16-.31.05-.66-.26-.83-.31-.16-.66-.05-.83.26s-.05.66.26.83c.31.16.66.05.83-.26Zm4.48 1.66a.606.606 0 0 0-.83.26c-.16.31-.05.66.26.83.31.16.66.05.83-.26.16-.31.05-.66-.26-.83ZM18.07 49.26c.16-.31.05-.66-.26-.83s-.66-.05-.83.26c-.16.31-.05.66.26.83.31.16.66.05.83-.26Zm8.8 4.63c.16-.31.05-.66-.26-.83a.606.606 0 0 0-.83.26c-.16.31-.05.66.26.83.31.16.66.05.83-.26ZM.84 38.64c-.16.31-.05.66.26.83.31.16.66.05.83-.26.16-.31.05-.66-.26-.83a.606.606 0 0 0-.83.26Zm35.09 17.08c.16-.31.05-.66-.26-.83a.606.606 0 0 0-.83.26c-.16.31-.05.66.26.83.31.16.66.05.83-.26Zm7.73 3.38a.606.606 0 0 0-.83.26c-.16.31-.05.66.26.83.31.16.66.05.83-.26.16-.31.05-.66-.26-.83ZM5.7 35.66a.606.606 0 0 0-.83.26c-.16.31-.05.66.26.83.31.16.66.05.83-.26.16-.31.05-.66-.26-.83Zm50.08 26.7c-.16.31-.05.66.26.83.31.16.66.05.83-.26.16-.31.05-.66-.26-.83a.606.606 0 0 0-.83.26Zm6.25 1.91c-.16.31-.05.66.26.83.31.16.66.05.83-.26.16-.31.05-.66-.26-.83a.606.606 0 0 0-.83.26ZM24.09 42.75c-.16.31-.05.66.26.83.31.16.66.05.83-.26.16-.31.05-.66-.26-.83s-.66-.05-.83.26Zm36.82 16.09c-.16.31-.05.66.26.83.31.16.66.05.83-.26.16-.31.05-.66-.26-.83a.606.606 0 0 0-.83.26ZM39.97 45.75a.606.606 0 0 0-.83.26c-.16.31-.05.66.26.83s.66.05.83-.26.05-.66-.26-.83Zm8.22 3.11c-.16.31-.05.66.26.83.31.16.66.05.83-.26.16-.31.05-.66-.26-.83s-.66-.05-.83.26ZM30.5 37.13c-.16.31-.05.66.26.83.31.16.66.05.83-.26.16-.31.05-.66-.26-.83s-.66-.05-.83.26ZM7.66 23.38c-.16.31-.05.66.26.83s.66.05.83-.26c.16-.31.05-.66-.26-.83a.606.606 0 0 0-.83.26Zm71.78 36.4c-.16.31-.05.66.26.83.31.16.66.05.83-.26s.05-.66-.26-.83a.606.606 0 0 0-.83.26ZM65.7 52.37c.16-.31.05-.66-.26-.83a.606.606 0 0 0-.83.26c-.16.31-.05.66.26.83.31.16.66.05.83-.26ZM25.91 31.08c.16-.31.05-.66-.26-.83a.606.606 0 0 0-.83.26c-.16.31-.05.66.26.83.31.16.66.05.83-.26Zm60.32 31.23c-.16.31-.05.66.26.83.31.16.66.05.83-.26.16-.31.05-.66-.26-.83a.606.606 0 0 0-.83.26Zm-36.8-20.4c-.16.31-.05.66.26.83.31.16.66.05.83-.26.16-.31.05-.66-.26-.83a.606.606 0 0 0-.83.26Zm7.02 1.44c-.16.31-.05.66.26.83.31.16.66.05.83-.26s.05-.66-.26-.83a.606.606 0 0 0-.83.26Zm-9.4-5.46c-.16.31-.05.66.26.83.31.16.66.05.83-.26.16-.31.05-.66-.26-.83a.606.606 0 0 0-.83.26Zm23.26 10c-.16.31-.05.66.26.83.31.16.66.05.83-.26.16-.31.05-.66-.26-.83a.606.606 0 0 0-.83.26Zm-59.28-31.9c-.16.31-.05.66.26.83.31.16.66.05.83-.26s.05-.66-.26-.83a.606.606 0 0 0-.83.26Zm8.91 2.79a.606.606 0 0 0-.83.26c-.16.31-.05.66.26.83.31.16.66.05.83-.26s.05-.66-.26-.83Zm19.09 10.05c-.16.31-.05.66.26.83.31.16.66.05.83-.26.16-.31.05-.66-.26-.83a.606.606 0 0 0-.83.26Zm18.61 6.34a.606.606 0 0 0-.83.26c-.16.31-.05.66.26.83.31.16.66.05.83-.26.16-.31.05-.66-.26-.83Zm25.92 13.81c-.16.31-.05.66.26.83.31.16.66.05.83-.26.16-.31.05-.66-.26-.83a.606.606 0 0 0-.83.26ZM16.57 13.03c.16-.31.05-.66-.26-.83s-.66-.05-.83.26-.05.66.26.83c.31.16.66.05.83-.26Zm49.89 25.74c-.16.31-.05.66.26.83.31.16.66.05.83-.26.16-.31.05-.66-.26-.83a.606.606 0 0 0-.83.26Zm-40.42-23.7c.16-.31.05-.66-.26-.83-.31-.16-.66-.05-.83.26s-.05.66.26.83c.31.16.66.05.83-.26Zm5.71 1.97c-.16.31-.05.66.26.83.31.16.66.05.83-.26.16-.31.05-.66-.26-.83a.606.606 0 0 0-.83.26ZM59.8 30.42c-.16.31-.05.66.26.83.31.16.66.05.83-.26.16-.31.05-.66-.26-.83s-.66-.05-.83.26ZM21.54 7.52a.606.606 0 0 0-.83.26c-.16.31-.05.66.26.83.31.16.66.05.83-.26.16-.31.05-.66-.26-.83Zm52.07 26.54a.606.606 0 0 0-.83.26c-.16.31-.05.66.26.83.31.16.66.05.83-.26.16-.31.05-.66-.26-.83ZM47.39 18.19c-.31-.16-.66-.05-.83.26s-.05.66.26.83c.31.16.66.05.83-.26.16-.31.05-.66-.26-.83Zm4.34 1.94c-.16.31-.05.66.26.83.31.16.66.05.83-.26.16-.31.05-.66-.26-.83a.606.606 0 0 0-.83.26Zm-15.67-9.64c.16-.31.05-.66-.26-.83a.606.606 0 0 0-.83.26c-.16.31-.05.66.26.83s.66.05.83-.26Zm48.67 25.45c-.16.31-.05.66.26.83.31.16.66.05.83-.26.16-.31.05-.66-.26-.83a.606.606 0 0 0-.83.26Zm6.5-.21c-.16.31-.05.66.26.83.31.16.66.05.83-.26.16-.31.05-.66-.26-.83a.606.606 0 0 0-.83.26ZM37.08 4.29c.31.16.66.05.83-.26.16-.31.05-.66-.26-.83-.31-.16-.66-.05-.83.26s-.05.66.26.83ZM59.7 15.5c-.16.31-.05.66.26.83.31.16.66.05.83-.26.16-.31.05-.66-.26-.83s-.66-.05-.83.26Zm-8.77-6.34a.606.606 0 0 0-.83.26c-.16.31-.05.66.26.83s.66.05.83-.26.05-.66-.26-.83Zm34.29 15.98c-.16.31-.05.66.26.83.31.16.66.05.83-.26.16-.31.05-.66-.26-.83a.606.606 0 0 0-.83.26ZM51.42 5.27c.16-.31.05-.66-.26-.83s-.66-.05-.83.26c-.16.31-.05.66.26.83.31.16.66.05.83-.26Zm15.73 7.24c-.16.31-.05.66.26.83.31.16.66.05.83-.26.16-.31.05-.66-.26-.83s-.66-.05-.83.26ZM54.52 4.65c-.16.31-.05.66.26.83.31.16.66.05.83-.26.16-.31.05-.66-.26-.83a.606.606 0 0 0-.83.26Zm-.34-.35c.16-.31.05-.66-.26-.83a.606.606 0 0 0-.83.26c-.16.31-.05.66.26.83s.66.05.83-.26Zm-4.32-2.96c.16-.31.05-.66-.26-.83a.606.606 0 0 0-.83.26c-.16.31-.05.66.26.83.31.16.66.05.83-.26Zm13.77 6.03a.606.606 0 0 0-.83.26c-.16.31-.05.66.26.83s.66.05.83-.26c.16-.31.05-.66-.26-.83Zm-8.45-4.96c.16-.31.05-.66-.26-.83a.606.606 0 0 0-.83.26c-.16.31-.05.66.26.83.31.16.66.05.83-.26Zm24.45 12.35c-.16.31-.05.66.26.83.31.16.66.05.83-.26.16-.31.05-.66-.26-.83s-.66-.05-.83.26ZM60.96 4.24c.16-.31.05-.66-.26-.83s-.66-.05-.83.26c-.16.31-.05.66.26.83.31.16.66.05.83-.26ZM57.78-.89a.606.606 0 0 0-.83.26c-.16.31-.05.66.26.83.31.16.66.05.83-.26.16-.31.05-.66-.26-.83Zm5.08 2.5c-.16.31-.05.66.26.83.31.16.67.05.83-.26.16-.31.05-.66-.26-.83s-.66-.05-.83.26ZM88.9 12.9a.606.606 0 0 0-.83.26c-.16.31-.05.66.26.83s.66.05.83-.26c.16-.31.05-.66-.26-.83ZM63.24-.09c.16-.31.05-.66-.26-.83a.606.606 0 0 0-.83.26c-.16.31-.05.66.26.83.31.16.66.05.83-.26Zm16.47 7.46c.31.16.66.05.83-.26.16-.31.05-.66-.26-.83a.606.606 0 0 0-.83.26c-.16.31-.05.66.26.83ZM70.77-.28c-.16.31-.05.66.26.83s.66.05.83-.26c.16-.31.05-.66-.26-.83a.606.606 0 0 0-.83.26ZM88.2.77a.606.606 0 0 0-.83.26c-.16.31-.05.66.26.83s.66.05.83-.26c.16-.31.05-.66-.26-.83Z"/></g><g opacity=".39"><path d="m95.21 43.27-2.52 4.46-1.47-9.54.05.06 3.94 5.02Zm-2.5 4.33 2.45-4.33-3.87-4.94 1.42 9.27Z"/><path d="m103.5 52.12-.03.03-8.3-8.86-3.93-5.01.03-.03 12.23 13.87Zm-11.79-13.3 3.49 4.44 7.36 7.86-10.84-12.3Z"/><path d="m91.26 38.28-10.23 6.24 1.15-5.51h.02l9.05-.77v.04Zm-10.17 6.16 10.07-6.15-8.95.76-1.13 5.39Z"/><path d="M92.72 47.7h-.03l-11.68-3.21.04-.02 10.22-6.24v.03l1.46 9.44Zm-11.6-3.23 11.56 3.16-1.44-9.34-10.12 6.18Zm1.1-5.42L64.21 56.19l-16.47 5.68-.02-.04L82.2 39.01l.03.03ZM64.18 56.16l17.84-16.98-34.15 22.6 16.31-5.62Z"/><path d="m81.08 44.49-2.54 3.85-.04-.02 3.68-9.3h.04l-1.14 5.47Zm-2.47 3.66 2.43-3.68 1.09-5.21-3.52 8.89Z"/><path d="m78.54 48.34-14.33 7.85-.02-.03L82.2 39.02l.03.02-3.69 9.3Zm-14.22 7.74 14.18-7.76 3.65-9.2-17.83 16.97Z"/><path d="m92.77 47.64-.06.04-14.55 10.53v-.04l.34-9.87h.02l14.25-.67ZM78.2 58.13l14.43-10.44-14.09.66-.34 9.79Z"/><path d="M86.15 63.78h-.02l-7.98-5.6.02-.02 14.58-10.55-.03.07-6.57 16.1Zm-7.94-5.6 7.91 5.54 6.53-15.99-14.44 10.45ZM44.72 72.2l-5.23 4.68-.03-.03 8.25-15.02.04.02-3.02 10.34Zm-5.18 4.57 5.14-4.6 2.97-10.15-8.1 14.75Z"/><path d="m60.86 67.88-16.19 4.34 3.04-10.4h.02l13.13 6.05Zm-16.13 4.28 16.01-4.29-13.01-5.99-3 10.28Z"/><path d="m47.74 61.86-8.25 15.02-4.45 3.54-.03-.03 12.7-18.55.04.02Zm-8.29 15 8.05-14.65L35.11 80.3l4.34-3.45Zm56.29-16.18-9.64 3.1.02-.04 6.59-16.14 3.03 13.08Zm-9.57 3.03 9.52-3.07-2.99-12.91-6.52 15.98Z"/><path d="M47.74 61.86 35.03 80.41 22.78 90.56l-.03-.03 24.96-28.7.03.03ZM35 80.39l12.5-18.26-24.56 28.24L35 80.39Zm37.8-15.2h-.04l-12 2.71v-.03l3.41-11.73.03.03 8.6 9.03Zm-11.97 2.65 11.89-2.68-8.52-8.95-3.37 11.63ZM92.7 47.69l-14.22.66.02-.03 2.55-3.86h.01l11.63 3.19v.04Zm-14.14.62 14.01-.65-11.5-3.15-2.51 3.8Zm5.35 19.81-.06-.02-5.81-1.84 2.9-2.51v.02l2.97 4.35Zm-5.79-1.88 5.69 1.8-2.87-4.24-2.81 2.43Z"/><path d="M60.81 67.9h-.02l-13.13-6.05 16.56-5.71v.04L60.81 67.9Zm-13.04-6.05 13.01 5.99 3.37-11.64-16.39 5.65Zm33.19 1.93-2.9 2.51.1-8.12h.04l2.76 5.61ZM78.1 66.2l2.81-2.43-2.71-5.51-.1 7.94Z"/><path d="M78.1 66.27h-.02l-5.35-1.08.02-.03 5.45-7.05-.1 8.16Zm-5.3-1.1 5.26 1.06.1-7.99-5.36 6.93Z"/><path d="m78.22 58.16-5.45 7.05-.02-.02-8.61-9.05h.06l14.02 2.02Zm-5.46 6.99 5.38-6.96-13.89-1.99 8.51 8.95Zm13.41-1.42-2.31 4.39-2.96-4.36 5.27-.03Zm-2.32 4.31 2.25-4.27-5.13.03 2.88 4.24Z"/><path d="M86.87 66.03h-.01l-2.99 2.07-.03-.03 2.3-4.38.73 2.33Zm-2.96 1.98 2.9-2-.69-2.21-2.22 4.21Z"/><path d="M86.2 63.77h-.06l-5.21.03-2.76-5.61.03-.03 8.01 5.61Zm-5.25-.01 5.12-.03-7.84-5.49 2.72 5.52Z"/><path d="m94.75 64.15-7.93 1.89v-.02l-.72-2.3 8.64.39v.04ZM86.86 66l7.75-1.85-8.44-.38.69 2.23Z"/><path d="M94.77 64.15h-.02l-8.61-.39v-.04l9.61-3.1v.04l-.98 3.49Zm-8.52-.42 8.48.38.95-3.42-9.43 3.04ZM78.2 58.2h-.02l-14.05-2.01.05-.03 14.36-7.86-.34 9.91Zm-13.94-2.04 13.9 1.99.34-9.79-14.24 7.8Z"/><path d="M48 61.31a.606.606 0 0 0-.83.26c-.16.31-.05.66.26.83.31.16.66.05.83-.26.16-.31.05-.66-.26-.83Zm25.3 4.15c.16-.31.05-.66-.26-.83a.606.606 0 0 0-.83.26c-.16.31-.05.66.26.83.31.16.66.05.83-.26Zm-9.65-9.57c-.16.31-.05.66.26.83.31.16.66.05.83-.26.16-.31.05-.66-.26-.83s-.66-.05-.83.26Zm17.57 7.34a.606.606 0 0 0-.83.26c-.16.31-.05.66.26.83.31.16.66.05.83-.26.16-.31.05-.66-.26-.83Zm5.46.8c.16-.31.05-.66-.26-.83a.606.606 0 0 0-.83.26c-.16.31-.05.66.26.83.31.16.66.05.83-.26Zm-7.96-5.57c.16-.31.05-.66-.26-.83a.606.606 0 0 0-.83.26c-.16.31-.05.66.26.83.31.16.66.05.83-.26Zm.34-9.85c.16-.31.05-.66-.26-.83a.606.606 0 0 0-.83.26c-.16.31-.05.66.26.83s.66.05.83-.26Zm2.29-4.67a.606.606 0 0 0-.83.26c-.16.31-.05.66.26.83.31.16.66.05.83-.26.16-.31.05-.66-.26-.83Zm.31-5.19c-.16.31-.05.66.26.83s.66.05.83-.26c.16-.31.05-.66-.26-.83a.606.606 0 0 0-.83.26Zm9.05-.77c-.16.31-.05.66.26.83.31.16.66.05.83-.26.16-.31.05-.66-.26-.83a.606.606 0 0 0-.83.26Z"/></g></g></svg>