<?xml version="1.0" encoding="UTF-8"?>
<svg id="Capa_2" data-name="Capa 2" xmlns="http://www.w3.org/2000/svg" viewBox="0 0 414.02 246.77">
  <defs>
    <style>
      .cls-1 {
        fill: #444;
      }

      .cls-2 {
        fill: #01403d;
      }
    </style>
  </defs>
  <g id="Layer_1" data-name="Layer 1">
    <g>
      <path class="cls-2" d="M364.22.83c7.56-1.21,15.78-1.51,22.79,2.05,7.17,3.52,12.12,10.03,17.6,15.61,6.87,7.14,9.93,17.33,9.34,27.11-1.9,20-4.33,39.94-6.29,59.93-1.7,12.71-2.43,25.51-4.2,38.2-1.07,7.52-.68,15.41-3.68,22.53-4.6,13.07-17.31,23.28-31.36,23.6-34.83.16-69.68-.18-104.5.19-5.3,8.46-11.35,16.41-16.83,24.75-3.12-2.87-5.76-6.21-8.83-9.14-.32-5.19-.62-10.38-.97-15.57-8.2-.17-16.3-3.88-21.46-10.29l-.29-.38c-4.77-5.27-10.46-10.05-13.14-16.83-3.53-7.12-3.16-15.22-4.08-22.91-1.82-13.62-2.37-27.36-4.05-40.99-1.46-15.13-2.85-30.28-4.32-45.4-.24-11.51,4.3-23.36,13.06-31.02,5.59-4.89,13.01-7.44,20.42-7.27,21.31-2.4,42.66-4.17,63.97-6.65,11.03-.55,21.95-2.43,32.97-3.21,14.62-1.2,29.2-3.3,43.85-4.31ZM291.66,47.96c-12.73,29.64-25.51,59.27-38.3,88.89-1.42,2.4.14,5.4,2.42,6.57,2.06,1.29,4.95-.18,5.92-2.19,4.65-10.58,9.21-21.2,13.8-31.8,16.37-.21,32.74-.02,49.12-.09,4.16,9.86,8.56,19.61,12.68,29.49.99,2.29,2.35,5.16,5.28,5.11,3.65-.09,5.67-4.44,4.05-7.53-12.64-29.37-25.3-58.75-38.01-88.09-2.68-7.14-13.92-7.32-16.96-.36Z"/>
      <path class="cls-2" d="M299.72,53.8c.21.04.65.12.86.16,6.56,15.19,13.22,30.33,19.7,45.56-13.46-.12-26.93.03-40.4-.01,6.54-15.26,13.11-30.53,19.84-45.71Z"/>
      <path class="cls-1" d="M24.4,38.37c6.22-1.74,12.69-.52,18.97.15,48.87,4.78,97.71,9.93,146.58,14.77,1.47,15.12,2.86,30.27,4.32,45.4,1.68,13.63,2.23,27.37,4.05,40.99.92,7.69.55,15.79,4.08,22.91,2.68,6.78,8.37,11.56,13.14,16.83l.29.38c.09,5.97-1.04,11.88-1.42,17.84-.93,11.94-8.25,24.03-19.87,28.18-6.02,2.6-12.68,1.1-19.01,1.66.23,6.44.74,12.87,1.29,19.29-6.81-6.11-12.84-13.07-19.44-19.41-34.35.03-68.7-.04-103.05.02-12.99.02-20-7.64-25.34-12.33-10.88-9.56-14.95-21.48-16.9-27.43-3.34-10.2-1.44-12.75-4.41-41.93-.92-9.03-2.33-18-2.96-27.06-1.27-13.18-3.16-26.29-4.16-39.5-1.3-8.54-.48-17.77,3.94-25.35,4.1-7.59,11.43-13.51,19.9-15.41ZM104.85,84.61c-.15,3.99-.02,7.99-.06,11.98-11.52-.02-23.04-.06-34.56-.01-4.24.14-7.17,5.36-4.94,9.06,1.44,2.44,4.3,3.42,7.02,3.28,21.55-.13,43.1-.07,64.65-.05-6.43,12.69-14.93,24.33-25.25,34.12-.92,1.2-2.2.09-2.9-.7-4.49-4.55-8.89-9.22-12.77-14.31-1.35-1.55-2.56-3.71-4.79-4-3.39-.88-6.97,2.19-6.75,5.65-.46,3.31,2.36,5.5,4.11,7.89,4.26,5,8.47,10.09,13.39,14.47-9.18,8.41-18.99,16.14-29.15,23.33-4.22,2.58-2.75,10.69,2.53,10.84,2.85.46,5.02-1.72,7.16-3.21,8.87-6.42,17.47-13.22,25.57-20.59.98-.7,2.36-2.54,3.56-1.09,9.87,8.88,20.28,17.2,31.22,24.74,5.64,2.09,10.75-5.88,6.12-9.91-10.16-7.75-20.71-15.15-29.81-24.17,12.2-12.39,24.17-26.08,29.78-42.83,2.17-.55,4.78-.62,6.16-2.68,2.83-3.34.65-9.06-3.65-9.76-11.79-.29-23.61.18-35.4-.25,0-4.58.33-9.18-.15-13.74-.75-2.23-3.18-4.17-5.62-3.94-3.01-.03-5.68,2.88-5.47,5.88Z"/>
    </g>
  </g>
</svg>