<?xml version="1.0" encoding="UTF-8"?>
<svg id="Capa_2" data-name="Capa 2" xmlns="http://www.w3.org/2000/svg" viewBox="0 0 800 800">
  <defs>
    <style>
      .cls-1 {
        fill: #fff;
      }
    </style>
  </defs>
  <g id="Layer_1" data-name="Layer 1">
    <g>
      <g>
        <path class="cls-1" d="M0,0h800v800H0V0ZM62,62v189h189V62H62ZM305,62c0,9,0,18-.01,27,9-.01,18-.01,27.01.01-.01-9.01-.01-18.01,0-27.01-9,.01-18.01.01-27,0ZM359,62v27c17.99-.03,35.99.03,53.99,0-.01,9,0,18,.01,27,8.99-.02,17.99-.01,27,.01.01-18,.01-36.01,0-54.01-27.01-.01-54-.01-81,0ZM548,62v189h189V62h-189ZM278,88.99c-.01,27.01-.01,54.01,0,81.02,9-.02,17.99-.02,26.99-.01.01,9,.01,18,.01,27,9-.01,18-.01,27.01,0-.03-9-.03-18.01-.01-27.01,8.99,0,17.99.02,26.99.02,0,9,.02,18,.03,27,8.99-.02,17.98-.02,26.98-.01-.02,18-.01,36,0,54,8.99-.01,17.99-.01,26.99.01,0-9,.02-18,.03-26.99,8.99-.02,17.98-.03,26.99-.03-.03-9-.03-17.99-.01-26.99,9-.01,18-.01,27,0-.01-9-.02-18.01,0-27.01-9,.02-18,.02-27,0-.01-8.99-.01-17.98.01-26.98-9.01,0-18.01-.02-27-.03,0-8.99-.01-17.99-.01-26.98-9,.01-18,0-26.99-.01,0,9-.02,18-.02,27.01-18-.02-36,.02-53.99-.01-.01-8.99-.01-17.98.01-26.98-9,0-18-.02-26.99-.03-.02-8.99-.03-17.99-.03-26.98-9,.02-17.99.01-26.99-.01ZM494.01,89c-.01,8.99-.03,17.99-.02,26.99-9.01,0-18,.02-26.99.02v26.99c17.99.01,35.99.01,54-.01,0-17.99.01-35.99-.01-53.99h-26.98ZM494.01,170c-.02,27,0,54-.01,81-9-.01-18-.01-26.99,0-.01-9-.03-18-.03-27-9,.01-17.99,0-26.97-.01-.01,18-.04,36-.01,54.01-9,0-18,0-26.99-.01-.01,9-.03,17.99-.02,27-9.01,0-18,.02-27,.03.02,8.98.02,17.97.01,26.97-9.01.02-18.01.02-27,.01.01,9,.01,18-.01,27.01,9-.03,18-.03,27.01-.01-.01,18-.02,36,.01,54,8.99-.01,17.98-.01,26.98.01.01-18.01.03-36.01.02-54.01,26.99.01,53.99,0,80.99.01,0,8.99-.01,17.99-.01,26.99-9,.01-18,0-26.99-.01.02,18-.03,36,0,54-9.01,0-18.01.01-27,.02v26.98c8.99-.01,17.99.01,27,.02-.01,8.99-.01,17.99,0,26.99-18-.03-36.01.03-54.01,0,.02,8.99.03,17.99.01,27-9,.01-18,0-27-.01-.03-18,.03-35.99,0-53.98,9-.01,18-.03,27-.02-.01-9-.02-18,0-26.98-26.99-.02-53.99,0-80.98-.02-.02-9-.03-18-.03-26.99-8.99.01-17.99,0-26.98-.01,0,9-.03,17.99-.03,27-8.99-.01-17.98.01-26.97.02-.02-9.01-.02-18.02-.01-27.01h-27c.01,8.99.01,17.99,0,27-18.01-.01-36.01-.02-54.01.01.02,8.99.02,17.99.01,26.99-18-.02-36-.01-53.99.01,0,8.98-.02,17.98-.03,26.98-8.99-.01-17.99.01-26.98.02v26.99c17.99,0,35.99.01,53.99-.01,0-9,.02-17.99.03-26.98,8.99,0,17.98-.02,26.98-.01.01,8.99,0,17.99-.01,27,18.01.01,36.01.01,54.02,0-.02-9.01-.03-18.01-.01-27.01,9,0,18,.02,27,.02-.03,18,.03,35.99,0,53.99,9-.01,17.99-.01,26.99.01.01,8.98.01,17.97.01,26.98,8.99-.01,17.99.01,26.99.03-.01,8.99.01,17.98.02,26.99-9.01,0-18.01-.01-27.01-.02,0,9,.01,18.01,0,27.02,8.99-.03,17.99-.04,27-.01,0,8.99,0,17.99-.01,27,9-.03,18.01-.03,27.02.01-.02,17.99-.04,35.99,0,54,8.99-.03,17.98-.03,26.98,0,.01,8.98.02,17.98.01,26.99h80.99c.02-27,0-53.99.02-80.99,8.99-.01,17.98-.02,26.98-.02,0,27,0,54,.01,81.01,27,0,53.99.01,80.99,0-.01-9.01.01-18.01.02-27,18,.03,35.99-.04,53.99,0-.03-9.01-.03-18.01,0-27-36-.02-71.99.01-107.99,0,0-9.01-.01-18.01-.01-27,17.99,0,35.99.01,53.99-.01-.01-9,.01-18,.03-26.99,17.99.02,35.98-.03,53.98,0v-135c8.99,0,17.98.01,26.99.01-.01,8.99.01,17.99.02,26.99,8.99-.01,17.98-.01,26.98.01.01-18.01.03-36.01.01-54.01,8.98,0,17.98.01,26.99.01-.01,8.99.01,17.99.02,26.99,8.99-.01,17.98-.01,26.99,0,0-18,.01-35.99-.01-53.99-9-.01-17.99-.03-26.98-.03-.01-9-.02-17.99-.01-26.98,8.99-.02,17.99-.02,27,.01,0-27,.01-54,0-81-9.01,0-18.01-.02-27-.03.03-17.99-.03-35.98,0-53.98-27-.01-53.99-.01-80.99,0-.01,9-.03,18-.02,27-18-.03-36,.02-53.99,0-.01-9-.01-18,.01-26.99-18.01-.02-36.02-.03-54.02-.01.02-36,.01-72,.01-108-9.01.01-18,.01-26.99,0ZM278,224c0,27-.02,54,0,81,9-.02,18-.02,27,.01,0-27.01.01-54.01,0-81.01h-27ZM332,224c0,9,.01,18,0,27.01,8.99-.02,17.99-.03,27-.01-.02-9.01-.01-18,.01-27h-27.01ZM359,251c.01,9,0,18-.01,27,9-.01,18.01-.01,27.01,0-.01-9-.02-18,0-27-9,.02-18,.02-27,0ZM62,278c-.01,18-.02,36,.01,54,8.99-.01,17.99-.01,26.99,0,.01-18,.02-36-.01-54h-26.99ZM224,278c0,9,0,18-.01,27-18-.01-35.99-.02-53.99.01.03,17.99-.03,35.98,0,53.98-9,0-17.99.01-26.99.02,0,8.99-.02,17.98-.02,26.98-9,0-18,.01-26.99.02v26.99c17.99,0,35.99.01,53.99-.01,0-8.99.02-17.99.03-26.98,8.99,0,17.98-.01,26.97-.01.01,8.99.01,17.99,0,26.99,18,.02,36.01.02,54.01.01-.02-9.01-.02-18.01.01-27,17.99.01,35.99.02,53.99-.01.01-18,.01-36,0-54-9,.02-18,.02-26.99.01-.02-9.01-.02-18.01-.01-27-9,.02-18,.01-27-.01-.01-9-.01-18,.01-26.99-9.01.01-18.01.01-27.01,0ZM116,305v27c9-.01,18-.01,27,0-.01-9,0-18,0-27h-27ZM332,305c0,9,.01,18,0,27.01,8.99-.03,17.99-.03,27-.01-.02-9-.01-18,.01-27h-27.01ZM62,359c-.01,54,0,108,0,162,9-.01,18-.01,27,0v-162h-27ZM332,386c0,8.99,0,17.99-.01,27,9-.02,18-.01,27.01.01-.01-9.01-.01-18.01,0-27.01h-27ZM116,440c.01,9,.01,18,0,27,9-.01,18-.01,27.01.01-.02-9.01-.01-18.01-.01-27.01h-27ZM62,548v189h189v-189H62ZM710,548c0,8.99,0,17.99-.01,27,9-.02,18-.01,27.01.01-.01-9.01-.01-18.02,0-27.01h-27ZM683.01,574.99c-.01,8.99-.03,17.99-.02,27-9.01-.01-18,.01-26.99.02,0,8.99-.01,17.98,0,26.98,8.99-.01,17.98.01,26.98.03.01,8.98.02,17.97.03,26.98,8.99-.01,17.98.01,26.98.01.02,27-.01,53.99.01,80.99,8.99-.01,17.99-.01,27,0v-134.99c-9.01-.01-18-.03-26.98-.03-.02-9-.04-17.99-.03-26.98-9,.01-17.99,0-26.98-.01ZM305.01,655.99c-.03,18-.02,36-.01,54.01,9-.02,17.99-.02,26.99.01.02-18.01.02-36.01,0-54.01-9,.01-17.99,0-26.98-.01ZM628.99,656.01c.01,8.99.02,17.98.01,26.99,18,.01,36,.01,54-.01-.02-9.01-.01-18,.01-26.99-18.01-.02-36.02-.01-54.02.01ZM278,709.99v27.01c9-.02,18-.02,27,0-.01-9.01-.01-18.01,0-27-9,0-18,0-27-.01ZM629,710c0,8.99,0,17.99-.01,27,9-.01,18-.01,27.01,0-.02-9.01-.02-18.01,0-27.01-9.01.01-18,.01-27,.01Z"/>
        <path class="cls-1" d="M89,89c45-.01,90-.01,135,0v135H89c-.01-45-.01-90,0-135ZM116,116c-.01,27-.01,54,0,81,27,.01,54,.01,81,0,.01-27,.01-54,0-81-27-.01-54-.01-81,0Z"/>
        <path class="cls-1" d="M575,89c45-.01,90-.01,135,0v135h-135c-.01-45-.01-90,0-135ZM602,116c-.01,27-.01,54,0,81,27,.01,54,.01,81,0,0-27,.01-54,0-81-27-.01-54-.01-81,0Z"/>
        <path class="cls-1" d="M305.01,143.02c9,0,17.99-.03,26.99-.03v27c-9.01.01-18.01.01-27.01.01,0-9,.01-17.99.02-26.98Z"/>
        <path class="cls-1" d="M386.01,170.01c17.99-.01,35.99-.03,53.99-.02v27.01c-18-.01-36,0-54,0,0-9,0-18,.01-26.99Z"/>
        <path class="cls-1" d="M440,278h80.99c0,8.99.01,17.99.03,26.99,17.99.02,35.98.01,53.98.01,0,18-.02,36.01,0,54.02-9-.02-17.99-.03-26.97-.04-.02-9-.05-17.99-.06-26.98h-26.94c-.02,8.99-.05,17.99-.06,26.99-9-.01-17.98.01-26.97.02,0-18,.01-36-.01-54-17.99-.01-35.99-.01-53.98-.02-.01-9-.02-18-.01-26.99Z"/>
        <path class="cls-1" d="M223.99,305c9,0,18-.01,27.01-.01v27.02c-9-.01-17.99-.02-26.98-.02-.01-9-.03-18-.03-26.99Z"/>
        <path class="cls-1" d="M251,332.01c9-.01,18-.02,27.01-.01,0,8.99-.02,17.99-.03,26.99-9,0-17.99.01-26.98.02-.01-9.01-.01-18.01,0-27Z"/>
        <path class="cls-1" d="M386,331.99c8.99,0,17.98.01,26.99.02-.01,9,.01,17.99.02,26.99h-27.01c-.01-9.01-.01-18.01,0-27.01Z"/>
        <path class="cls-1" d="M602.03,332c8.98,0,17.96-.01,26.96-.01.01,18,0,36,.03,54.01,8.98-.01,17.97,0,26.97.01.01-18.01,0-36.01.03-54.01h26.95c0,8.99.03,17.98.06,26.97,8.98,0,17.97.04,26.96.06.01,17.98.01,35.97.01,53.97-9.01-.01-18,0-26.99.01-.01,18-.02,35.99-.01,53.99-9-.01-17.99-.02-26.97-.01-.02-9-.05-17.99-.06-26.98-17.99-.02-35.98-.01-53.96-.02-.02-17.99-.01-35.98-.03-53.96-8.99-.02-17.98-.05-26.97-.06-.01-8.99-.02-17.98-.01-26.95,8.98-.02,17.97-.03,26.97-.03,0-9,.03-18,.06-26.99Z"/>
        <path class="cls-1" d="M197.01,359.01c18-.02,35.99-.02,53.99,0,0,8.99,0,17.99.01,26.99h-54.02c0-9.01.01-18,.02-26.99Z"/>
        <path class="cls-1" d="M493.99,386c17.99-.01,35.98,0,53.98.01,0,8.98.03,17.97.06,26.96,8.98,0,17.97.04,26.97.06-.01,8.97-.01,17.96,0,26.94-9,0-17.99.04-26.97.06-.02,8.98-.05,17.97-.06,26.96-17.99.02-35.98.02-53.97.01v-26.97c9-.02,17.99-.05,27-.06-.01-8.98-.01-17.97,0-26.94-9-.02-17.99-.05-26.98-.06-.02-9-.04-17.99-.03-26.97Z"/>
        <path class="cls-1" d="M251,440c9,0,18,0,27.01.01-.01,8.98-.02,17.98-.02,26.97-9,0-18,.02-26.99.03-.01-9.01-.01-18.01,0-27.01Z"/>
        <path class="cls-1" d="M197,467c18,0,36,0,54,.01v26.98c-18,.01-36,0-54,.01-.01-9.01-.01-18.01,0-27Z"/>
        <path class="cls-1" d="M305,467h27c-.01,8.99-.01,17.99,0,27-9-.01-18-.01-27,0v-27Z"/>
        <path class="cls-1" d="M602,467c8.99,0,17.98-.01,26.99-.01-.01,9,.01,18,.01,27.01-9.01-.01-18.01-.02-27-.01v-26.99Z"/>
        <path class="cls-1" d="M305.01,521h26.99c-.01,8.99,0,17.98.01,26.98-9.01.01-18.02.02-27.02.03,0-9.01.02-18.02.02-27.01Z"/>
        <path class="cls-1" d="M358.99,521.02c9-.02,18-.04,27.01-.03v27.03c-9-.02-18-.03-27-.03,0-9-.01-17.99-.01-26.97Z"/>
        <path class="cls-1" d="M413,521c18-.01,35.99,0,53.99.01,0,8.98.01,17.98.01,26.97-9,.01-18,.02-26.99.03-.01,18-.03,35.99-.02,53.99-8.99-.01-17.98-.02-26.96-.01-.02-9-.05-17.99-.06-26.97-9-.02-17.99-.03-26.97-.04-.01-8.99,0-17.98,0-26.96,8.99-.02,17.99-.03,26.99-.03-.01-9.01,0-18,.01-26.99Z"/>
        <path class="cls-1" d="M521,521c27-.01,54-.01,81,0,.01,27,0,54,0,81-27,.01-54,0-81,0-.01-27-.01-54,0-81ZM548,548v27c8.99-.01,17.99-.01,27,0-.01-9.01-.01-18.01,0-27h-27Z"/>
        <path class="cls-1" d="M467,547.98c9,.01,17.99.02,27,.03-.01,8.99-.01,17.99,0,26.99-9-.01-18,0-26.99.01-.01-9.02-.02-18.02-.01-27.03Z"/>
        <path class="cls-1" d="M89,575c45-.01,90-.01,135,0v135H89c-.01-45-.01-90,0-135ZM116,602c-.01,27-.01,54,0,81,27,0,54,.01,81,0,.01-27,.01-54,0-81-27-.01-54-.01-81,0Z"/>
        <path class="cls-1" d="M359.03,575.02c8.99-.02,17.98-.03,26.97-.04-.01,18-.01,35.99.01,53.99,8.99,0,17.99.03,26.99.06v26.96c-18,0-36,.02-53.99.02-.01-9.01-.02-18.01-.03-27-9-.01-17.99-.01-26.98-.01-.01-9.01,0-18.01.01-26.99,8.98-.02,17.97-.03,26.96-.02,0-9,.04-17.99.06-26.97Z"/>
        <path class="cls-1" d="M439.99,602c9-.01,18,0,27.01.01-.01,8.99-.01,17.99,0,26.99-9-.01-18,0-26.99.01-.01-9.01-.02-18.02-.02-27.01Z"/>
        <path class="cls-1" d="M494.01,629c8.99-.01,17.98-.01,26.98-.01-.01,9,0,18,.01,27.01-9.01-.01-18.01-.01-27.01-.01,0-9,.02-18,.02-26.99Z"/>
        <path class="cls-1" d="M386.01,683.01c17.99-.02,35.99-.03,53.99-.01v26.99c-18,0-36.01.02-54.01.02,0-9.01.01-18.01.02-27Z"/>
      </g>
      <g>
        <path d="M62,62h189v189H62V62ZM89,89c-.01,45-.01,90,0,135h135V89c-45-.01-90-.01-135,0Z"/>
        <path d="M305,62c8.99.01,18,.01,27,0-.01,9-.01,18,0,27.01-9.01-.02-18.01-.02-27.01-.01.01-9,.01-18,.01-27Z"/>
        <path d="M359,62c27-.01,53.99-.01,81,0,.01,18,.01,36.01,0,54.01-9.01-.02-18.01-.03-27-.01-.01-9-.02-18-.01-27-18,.03-36-.03-53.99,0v-27Z"/>
        <path d="M548,62h189v189h-189V62ZM575,89c-.01,45-.01,90,0,135h135V89c-45-.01-90-.01-135,0Z"/>
        <path d="M278,88.99c9,.02,17.99.03,26.99.01,0,8.99.01,17.99.03,26.98,8.99,0,17.99.03,26.99.03-.02,9-.02,17.99-.01,26.98-9,0-17.99.02-26.99.03-.01,8.99-.02,17.98-.02,26.98-9-.01-17.99-.01-26.99.01-.01-27.01-.01-54.01,0-81.02Z"/>
        <path d="M494.01,89h26.98c.02,18,.01,36,.01,53.99-18.01.02-36.01.02-54,.01v-26.99c8.99,0,17.98-.02,26.99-.02-.01-9,.01-18,.02-26.99Z"/>
        <path d="M116,116c27-.01,54-.01,81,0,.01,27,.01,54,0,81-27,.01-54,.01-81,0-.01-27-.01-54,0-81Z"/>
        <path d="M386.01,115.99c8.99.01,17.99.02,26.99.01,0,8.99.01,17.99.01,26.98,8.99,0,17.99.03,27,.03-.02,9-.02,17.99-.01,26.98-18,0-36,.01-53.99.02-.01,8.99-.01,17.99-.01,26.99-9-.01-17.99-.01-26.98.01-.01-9-.03-18-.03-27-9,0-18-.02-26.99-.02v-27c17.99.03,35.99,0,53.99.01,0-9.01.02-18.01.02-27.01Z"/>
        <path d="M602,116c27-.01,54-.01,81,0,.01,27,0,54,0,81-27,.01-54,.01-81,0-.01-27-.01-54,0-81Z"/>
        <path d="M304.99,170c9,0,18,0,27.01-.01-.02,9-.02,18.01.01,27.01-9.01-.01-18.01-.01-27.01,0,0-9,0-18-.01-27Z"/>
        <path d="M440,169.99c9,.02,18,.02,27,0-.02,9-.01,18.01,0,27.01-9-.01-18-.01-27,0v-27.01Z"/>
        <path d="M494.01,170c8.99.01,17.98.01,26.99,0,0,36,.01,72-.01,108h-80.99c-.03-18.01,0-36.01.01-54.01,8.98.01,17.97.02,26.97.01,0,9,.02,18,.03,27,8.99-.01,17.99-.01,26.99,0,.01-27-.01-54,.01-81Z"/>
        <path d="M386,197c18,0,36-.01,54,0-.02,9-.02,17.99.01,26.99-9.01,0-18,.01-26.99.03-.01,8.99-.03,17.99-.03,26.99-9-.02-18-.02-26.99-.01-.01-18-.02-36,0-54Z"/>
        <path d="M278,224h27c.01,27,0,54,0,81.01-9-.03-18-.03-27-.01-.02-27,0-54,0-81Z"/>
        <path d="M332,224h27.01c-.02,9-.03,17.99-.01,27-9.01-.02-18.01-.01-27,.01.01-9.01,0-18.01,0-27.01Z"/>
        <path d="M359,251c9,.02,18,.02,27,0-.02,9-.01,18,0,27-9-.01-18.01-.01-27.01,0,.01-9,.02-18,.01-27Z"/>
        <path d="M62,278h26.99c.03,18,.02,36,.01,54-9-.01-18-.01-26.99,0-.03-18-.02-36-.01-54Z"/>
        <path d="M224,278c9,.01,18,.01,27.01,0-.02,8.99-.02,17.99-.01,26.99-9.01,0-18.01.01-27.01.01.01-9,.01-18,.01-27Z"/>
        <path d="M413.01,277.99c8.99.01,17.99.01,26.99.01-.01,8.99,0,17.99.01,26.99,17.99.01,35.99.01,53.98.02.02,18,.01,36,.01,54-27-.01-54,0-80.99-.01-.01-9-.03-17.99-.02-26.99-9.01-.01-18-.02-26.99-.02.01-9,.01-17.99-.01-26.97,9-.01,17.99-.03,27-.03-.01-9.01.01-18,.02-27Z"/>
        <path d="M520.99,278c18-.02,36.01-.01,54.02.01-.02,8.99-.02,17.99-.01,26.99-18,0-35.99.01-53.98-.01-.02-9-.03-18-.03-26.99Z"/>
        <path d="M629.01,278c27-.01,53.99-.01,80.99,0-.03,18,.03,35.99,0,53.98,8.99.01,17.99.03,27,.03.01,27,0,54,0,81-9.01-.03-18.01-.03-27-.01,0-18,0-35.99-.01-53.97-8.99-.02-17.98-.05-26.96-.06-.03-8.99-.05-17.98-.06-26.97h-26.95c-.03,18-.02,36-.03,54.01-9-.01-17.99-.02-26.97-.01-.03-18.01-.02-36.01-.03-54.01-9,0-17.98.01-26.96.01-.03,8.99-.05,17.99-.06,26.99-9,0-17.99.01-26.97.03-.02-18.01,0-36.02,0-54.02,17.99.02,35.99-.03,53.99,0-.01-9,.01-18,.02-27Z"/>
        <path d="M116,305h27c0,9-.01,18,0,27-9-.01-18-.01-27,0v-27Z"/>
        <path d="M170,305.01c18-.03,35.99-.02,53.99-.01,0,8.99.02,17.99.03,26.99,8.99,0,17.98.01,26.98.02-.01,8.99-.01,17.99,0,27-18-.02-35.99-.02-53.99,0-.01,8.99-.02,17.98-.02,26.99-8.99,0-17.98.01-26.97.01,0,8.99-.03,17.99-.03,26.98-18,.02-36,.01-53.99.01v-26.99c8.99-.01,17.99-.02,26.99-.02,0-9,.02-17.99.02-26.98,9-.01,17.99-.02,26.99-.02-.03-18,.03-35.99,0-53.98Z"/>
        <path d="M251,304.99c9,.02,18,.03,27,.01-.01,8.99-.01,17.99.01,27-9.01-.01-18.01,0-27.01.01v-27.02Z"/>
        <path d="M332,305h27.01c-.02,9-.03,18-.01,27-9.01-.02-18.01-.02-27,.01.01-9.01,0-18.01,0-27.01Z"/>
        <path d="M278.01,332c8.99.01,17.99.01,26.99-.01.01,18,.01,36,0,54-18,.03-36,.02-53.99.01-.01-9-.01-18-.01-26.99,8.99-.01,17.98-.02,26.98-.02.01-9,.03-18,.03-26.99Z"/>
        <path d="M359,332c8.99.01,17.99.01,27-.01-.01,9-.01,18,0,27.01-9.01-.02-18.01-.02-27.01.01.02-9.01.02-18.01.01-27.01Z"/>
        <path d="M521.03,332h26.94c0,8.99.04,17.98.06,26.98,8.98.01,17.97.02,26.97.04-.01,8.97,0,17.96.01,26.95,8.99,0,17.98.04,26.97.06.02,17.98.01,35.97.03,53.96,17.98.01,35.97,0,53.96.02,0,8.99.04,17.98.06,26.98,8.98-.01,17.97,0,26.97.01.02,18,0,36-.01,54.01-9-.02-17.99-.02-26.98-.01-.01-9-.03-18-.02-26.99-9.01,0-18-.01-26.99-.01,0-9.01-.02-18.01-.01-27.01-9.01,0-18,.01-26.99.01v26.99c8.99-.01,17.99,0,27,.01v135c-18-.03-35.99.02-53.98,0-.02,8.99-.04,17.99-.03,26.99-18,.02-36,.01-53.99.01-.01-9.01-.02-18.01-.01-27.01-9,0-17.99,0-26.98.01,0,8.99-.02,17.99-.02,26.99-9,0-17.99.01-26.98.02-.02,27,0,53.99-.02,80.99h-80.99c.01-9.01,0-18.01-.01-26.99,18,0,36.01-.02,54.01-.02v-26.99c-18-.02-36-.01-53.99.01-.01,8.99-.02,17.99-.02,27-9-.03-17.99-.03-26.98,0-.04-18.01-.02-36.01,0-54,17.99,0,35.99-.02,53.99-.02v-26.96c-9-.03-18-.05-26.99-.06-.02-18-.02-35.99-.01-53.99,8.98.01,17.97.02,26.97.04,0,8.98.04,17.97.06,26.97,8.98-.01,17.97,0,26.96.01,0,8.99.01,18,.02,27.01,8.99-.01,17.99-.02,26.99-.01-.01-9-.01-18,0-26.99-9.01-.01-18.01-.02-27.01-.01-.01-18,.01-35.99.02-53.99,8.99-.01,17.99-.02,26.99-.03-.01,9.01,0,18.01.01,27.03,8.99-.01,17.99-.02,26.99-.01-.01-9-.01-18,0-26.99-9.01-.01-18-.02-27-.03,0-8.99-.01-17.99-.01-26.97-18-.01-35.99-.02-53.99-.01.02-9.01.01-18.01-.01-27,18,.03,36.01-.03,54.01,0-.01-9-.01-18,0-26.99-9.01-.01-18.01-.03-27-.02v-26.98c8.99-.01,17.99-.02,27-.02-.03-18,.02-36,0-54,8.99.01,17.99.02,26.99.01-.01,8.98.01,17.97.03,26.97,8.99,0,17.98.04,26.98.06-.01,8.97-.01,17.96,0,26.94-9.01,0-18,.04-27,.06v26.97c17.99.01,35.98.01,53.97-.01,0-8.99.04-17.98.06-26.96,8.98-.02,17.97-.05,26.97-.06-.01-8.98-.01-17.97,0-26.94-9-.02-17.99-.05-26.97-.06-.03-8.99-.05-17.98-.06-26.96-18-.01-35.99-.02-53.98-.01,0-9,.01-18,.01-26.99,8.99-.01,17.97-.03,26.97-.02,0-9,.04-18,.06-26.99ZM521,521c-.01,27-.01,54,0,81,27,0,54,.01,81,0,0-27,.01-54,0-81-27-.01-54-.01-81,0Z"/>
        <path d="M62,359h27v162c-9-.01-18-.01-27,0,0-54-.01-108,0-162Z"/>
        <path d="M386,359h27.01c.01,18-.01,36-.02,54.01-9-.02-17.99-.02-26.98-.01-.03-18-.02-36-.01-54Z"/>
        <path d="M196.99,386h54.02c-.03,8.99-.03,17.99-.01,27-18,.01-36.01.01-54.01-.01.01-9,.01-18,0-26.99Z"/>
        <path d="M332,386h27c-.01,9-.01,18,0,27.01-9.01-.02-18.01-.03-27.01-.01.01-9.01.01-18.01.01-27Z"/>
        <path d="M251,413h27c-.01,8.99-.01,18,.01,27.01-9.01-.01-18.01-.01-27.01-.01.01-9.01.01-18.01,0-27Z"/>
        <path d="M305.01,412.99c8.99.01,17.99.02,26.98.01,0,8.99.01,17.99.03,26.99,26.99.02,53.99,0,80.98.02-.02,8.98-.01,17.98,0,26.98-9-.01-18,.01-27,.02.03,17.99-.03,35.98,0,53.98-9.01-.01-18.01.01-27.01.03,0,8.98.01,17.97.01,26.97,9,0,18,.01,27,.03,0,8.98-.01,17.97,0,26.96-8.99.01-17.98.02-26.97.04-.02,8.98-.05,17.97-.06,26.97-8.99-.01-17.98,0-26.96.02-.01-9.01-.03-18-.02-26.99-9-.02-18-.04-26.99-.03,0-9.01,0-18-.01-26.98,9-.01,18.01-.02,27.02-.03-.01-9-.02-17.99-.01-26.98h-26.99c0,8.99-.02,18-.02,27.01-9-.02-17.99-.02-26.99-.01.03-18-.03-35.99,0-53.99-9,0-18-.02-27-.02v-26.98c8.99-.01,17.99-.03,26.99-.03,0-8.99.01-17.99.02-26.97,8.99-.01,17.98-.03,26.97-.02,0-9.01.03-18,.03-27ZM305,467v27c9-.01,18-.01,27,0-.01-9.01-.01-18.01,0-27h-27Z"/>
        <path d="M683.01,413.01c8.99-.01,17.98-.02,26.99-.01-.01,8.99,0,17.98.01,26.98,8.99,0,17.98.02,26.98.03.02,18,.01,35.99.01,53.99-9.01-.01-18-.01-26.99,0-.01-9-.03-18-.02-26.99-9.01,0-18.01-.01-26.99-.01-.01-18,0-35.99.01-53.99Z"/>
        <path d="M116,440h27c0,9-.01,18,.01,27.01-9.01-.02-18.01-.02-27.01-.01.01-9,.01-18,0-27Z"/>
        <path d="M196.99,440.01c18-.03,36-.02,54.01-.01-.01,9-.01,18,0,27.01-18-.01-36-.01-54-.01.01-9,.01-18-.01-26.99Z"/>
        <path d="M143.01,467.01c17.99-.02,35.99-.03,53.99-.01-.01,8.99-.01,17.99,0,27-9-.01-17.99.01-26.98.01,0,8.99-.03,17.98-.03,26.98-18,.02-36,.01-53.99.01v-26.99c8.99-.01,17.99-.03,26.98-.02,0-9,.03-18,.03-26.98Z"/>
        <path d="M197,494c18-.01,36,0,54-.01-.02,9-.01,18,.01,27.01-18.01.01-36.01.01-54.02,0,.01-9.01.02-18.01.01-27Z"/>
        <path d="M386,520.99c9,.01,18,.02,27,.01-.01,8.99-.02,17.98-.01,26.99-9,0-18,.01-26.99.03v-27.03Z"/>
        <path d="M62,548h189v189H62v-189ZM89,575c-.01,45-.01,90,0,135h135v-135c-45-.01-90-.01-135,0Z"/>
        <path d="M548,548h27c-.01,8.99-.01,17.99,0,27-9.01-.01-18.01-.01-27,0v-27Z"/>
        <path d="M710,548h27c-.01,8.99-.01,18,0,27.01-9.01-.02-18.01-.03-27.01-.01.01-9.01.01-18.01.01-27Z"/>
        <path d="M683.01,574.99c8.99.01,17.98.02,26.98.01-.01,8.99.01,17.98.03,26.98,8.98,0,17.97.02,26.98.03v134.99c-9.01-.01-18.01-.01-27,0-.02-27,.01-53.99-.01-80.99-9,0-17.99-.02-26.98-.01-.01-9.01-.02-18-.03-26.98-9-.02-17.99-.04-26.98-.03-.01-9,0-17.99,0-26.98,8.99-.01,17.98-.03,26.99-.02-.01-9.01.01-18.01.02-27Z"/>
        <path d="M116,602c27-.01,54-.01,81,0,.01,27,.01,54,0,81-27,.01-54,0-81,0-.01-27-.01-54,0-81Z"/>
        <path d="M305,601.99c9,.01,18,.02,27.01.02-.01,8.98-.02,17.98-.01,26.99-9.01-.03-18.01-.02-27,.01.01-9.01,0-18.02,0-27.02Z"/>
        <path d="M332,629c8.99,0,17.98,0,26.98.01.01,8.99.02,17.99.03,27-9.01-.04-18.02-.04-27.02-.01.01-9.01.01-18.01.01-27Z"/>
        <path d="M305.01,655.99c8.99.01,17.98.02,26.98.01.02,18,.02,36,0,54.01-9-.03-17.99-.03-26.99-.01-.01-18.01-.02-36.01.01-54.01Z"/>
        <path d="M493.99,655.99c9,0,18,0,27.01.01,0,8.99.01,17.99.01,27,36,.01,71.99-.02,107.99,0-.03,8.99-.03,17.99,0,27-18-.04-35.99.03-53.99,0-.01,8.99-.03,17.99-.02,27-27,.01-53.99,0-80.99,0-.01-27.01-.01-54.01-.01-81.01Z"/>
        <path d="M628.99,656.01c18-.02,36.01-.03,54.02-.01-.02,8.99-.03,17.98-.01,26.99-18,.02-36,.02-54,.01.01-9.01,0-18-.01-26.99Z"/>
        <path d="M278,709.99c9,.01,18,.01,27,.01-.01,8.99-.01,17.99,0,27-9-.02-18-.02-27,0v-27.01Z"/>
        <path d="M629,710c9,0,17.99,0,27-.01-.02,9-.02,18,0,27.01-9.01-.01-18.01-.01-27.01,0,.01-9.01.01-18.01.01-27Z"/>
      </g>
    </g>
  </g>
</svg>