<?xml version="1.0" encoding="UTF-8"?>
<svg id="Capa_2" data-name="Capa 2" xmlns="http://www.w3.org/2000/svg" viewBox="0 0 667 667">
  <defs>
    <style>
      .cls-1 {
        fill: #f99b2b;
      }
    </style>
  </defs>
  <g id="Layer_1" data-name="Layer 1">
    <g>
      <path d="M0,0c30,.01,60,0,90,.01,7.99-.03,16.04.32,23.86,2.04,13.2,2.95,24.91,11.94,31.02,24.02,5.97,11.55,6.34,24.85,7.71,37.48,2.77,32.52,5.72,65.01,8.49,97.53-35.99-3.11-71.99-6.26-107.96-9.47-9.7-1.18-19.72-2.5-28.34-7.42-11.71-6.39-20.25-18.12-22.91-31.17C.38,105.79,0,98.37.01,91,0,60.67.01,30.33,0,0ZM18.61,18.61c.15,26.12-.26,52.25.22,78.36-.09,9.4,1.73,19.63,8.82,26.39,6.37,6.67,15.82,8.46,24.59,9.45,29.47,2.94,59.04,5.14,88.52,7.95-2.81-29.48-5.01-59.04-7.95-88.5-1-8.32-2.49-17.25-8.48-23.58-6.24-7.22-16.1-9.82-25.33-9.78-26.79-.62-53.59-.11-80.39-.29Z"/>
      <path d="M184,0h46v23h23v46h-23v23h23v-23h46v23h-23v23h-92v-23h23v-23h-23V0Z"/>
      <path d="M276,0h23v23h-23V0Z"/>
      <path d="M322,0h92v23h-23v23h-23v-23h-46V0Z"/>
      <path d="M553.14,2.06c7.82-1.73,15.87-2.08,23.86-2.05,30-.01,60,0,90-.01-.01,30,0,60-.01,90-.02,12.04-.46,24.76-6.42,35.56-5.15,9.89-14.14,17.6-24.54,21.52-7.18,2.68-14.85,3.64-22.42,4.57-35.88,3.16-71.78,6.35-107.68,9.42,3.12-35.84,6.26-71.69,9.43-107.52,1.16-9.6,2.4-19.51,7.12-28.12,6.19-11.76,17.71-20.48,30.66-23.37ZM541.76,29.76c-6.82,8.23-7.02,19.43-8.32,29.52-2.36,27.16-4.68,54.34-7.17,81.48,29.47-2.8,59.01-5.01,88.47-7.95,8.78-1,18.25-2.76,24.62-9.45,7.4-7.01,8.95-17.69,8.89-27.4.38-25.78.07-51.57.17-77.35-27.16.2-54.33-.37-81.48.33-9.36.04-19.24,3.21-25.18,10.82Z"/>
      <path d="M414,23h46v23h-23v23h23v-23h23v115h-23v-46h-46v-23h-69v-23h69V23Z"/>
      <path d="M322,92h23v23h-23v-23Z"/>
      <path d="M184,138h23v23h-23v-23Z"/>
      <path d="M230,138h23v23h-23v-23Z"/>
      <path d="M276,138h23v23h-23v-23Z"/>
      <path d="M322,138h23v23h-23v-23Z"/>
      <path d="M368,138h23v46h23v23h-46v-23h-23v-23h23v-23Z"/>
      <path d="M414,138h23v23h-23v-23Z"/>
      <path d="M253,161h23v23h23v-23h23v138h23v-23h23v23h69v23h-69v23h-23v-23h-23v23h-23v-115h-46v-69Z"/>
      <path d="M437,161h23v23h-23v-23Z"/>
      <path d="M0,184h23v23H0v-23Z"/>
      <path d="M69,184h161v46h23v23h-23v23h23v23h-46v-92h-23v23h-23v-23h-92v-23Z"/>
      <path d="M483,184h23v23h-23v-23Z"/>
      <path d="M552,184h23v69h23v23h-46v23h92v-46h23v115h-23v-46h-23v46h-23v-46h-23c0,7.66-.01,15.33,0,23h-23v-23h-23v23h23v46h-23c0-7.67-.01-15.34,0-23h-46v23h23v23h-23c0,7.66-.01,15.33,0,23h-69v-23h-23v-23h69v-23h-46v-23h23v-23h46v23h23v-69h23v-23h23v-23h-23v-23h23v-23Z"/>
      <path d="M598,184h69v23h-23v23h-23c0,7.67-.01,15.33,0,23h-23v-69Z"/>
      <path d="M46,207h23v23h23v23h23v46h-23v23h-23v23h-23v46h46v46h-23v-23h-23v69H0v-138h23v-23H0v-92h23v69h46v-46h-23v-46Z"/>
      <path d="M345,207h23v46h-23v-46Z"/>
      <path d="M414,207h46v23h-46v-23Z"/>
      <path d="M115,230h46v23h-46v-23Z"/>
      <path d="M391,230h23v46h-23v-46Z"/>
      <path d="M483,230h23v46h-23v23h-23v-23h-23v-23h46v-23Z"/>
      <path d="M253,253h23v23h-23v-23Z"/>
      <path d="M138,276h46v23h23v23h23v23h-23v23h-46v-23h-46v-23h46v-23h-23v-23Z"/>
      <path d="M253,322h23v23h-23v-23Z"/>
      <path d="M69,345h23v23h-23v-23Z"/>
      <path d="M230,345h23v23h-23v-23Z"/>
      <path d="M368,345h23v23h-23v-23Z"/>
      <path d="M138,368h23v23h-23v-23Z"/>
      <path d="M207,368h23v23h-23v-23Z"/>
      <path d="M276,368h23v23h-23v-23Z"/>
      <path d="M322,368h23v23c7.66-.01,15.33,0,23,0-.01,7.66,0,15.33,0,23h23v46c7.66-.01,15.33,0,23,0-.01,7.66,0,15.33,0,23,7.66-.01,15.33,0,23,0v23h-46v-23h-23v-23h-23v23h23v23h23v23h-46v23h46v46h46v-46c7.66,0,15.33-.01,23,0v-23c-7.67,0-15.34-.01-23,0v-23h23c-.01-15.33,0-30.67,0-46,15.33,0,30.67-.01,46,0v-46h46v46h23v-46h23v23h23v23h23v23h-46v46h-23v23h23v23h-92v46h-23v-23h-23v46h23v23h-46v-46h-92v-46c-15.33,0-30.67-.01-46,0v-23h23v-69h-23v23h-23v-23h-23v-23h23v-23h-23v23h-23v-69h23v23h46v46h23v-23h23v-23h-46v-23h23v-23ZM483,483v69h69v-69h-69Z"/>
      <path d="M575,368h23v23h-23v-23Z"/>
      <path d="M184,391h23v23h-23v-23Z"/>
      <path d="M552,391h23v23h-23v-23Z"/>
      <path d="M598,391h46v23h-46v-23Z"/>
      <path d="M115,414h46v23h-23v23h23v23h-46v-69Z"/>
      <path d="M644,414h23v23h-23v-23Z"/>
      <path d="M184,437h23v23h23v23h23v23h-23v23h23v23h-46v23h69v23h-23v23h23v23h-23v23h-23v-23h-23v-23h23v-23h-46v-161Z"/>
      <path d="M69,460h23v23h-23v-23Z"/>
      <path d="M67.93,514.01c31.06-2.54,62.08-5.44,93.14-8.08-2.58,31.06-5.54,62.07-8.05,93.13-1.32,11.38-1.58,23.01-4.94,34.06-3.59,11.85-12.05,22.21-23.15,27.78-8.83,4.77-19.07,5.7-28.92,6.05-32,.1-64,.01-96.01.05.01-30,0-60,.01-90,0-8.83.35-17.79,2.69-26.35,3.9-13.94,14.7-25.67,28.27-30.7,11.83-4.35,24.59-4.51,36.96-5.94ZM53.14,534.11c-8.59,1.01-17.88,2.39-24.45,8.57-7.21,6.23-9.82,16.07-9.79,25.29-.63,26.81-.1,53.63-.29,80.45,24.13-.02,48.26.04,72.38-.03,8.3-.34,17.08.16,24.73-3.63,8.12-3.74,13.86-11.7,15.5-20.41,2.62-12.92,2.97-26.15,4.33-39.23,1.73-19.62,3.37-39.25,5.21-58.85-29.18,2.76-58.44,4.98-87.62,7.84Z"/>
      <path d="M253,506h23v23h-23v-23Z"/>
      <path d="M506,506h23v23h-23v-23Z"/>
      <path d="M276,529h23v23h-23v-23Z"/>
      <path d="M391,529h23v23h-23v-23Z"/>
      <path d="M644,529h23v115h-23v-23h-23v23h-46c0,7.66-.01,15.33,0,23h-23v-23c-7.67,0-15.34-.01-23,0v-46h46v23h23v-23h46v-69Z"/>
      <path d="M276,598h46v23h23v23h46v23h-115v-23h23v-23h-23v-23Z"/>
      <path d="M184,644h23v23h-23v-23Z"/>
    </g>
    <g>
      <path class="cls-1" d="M71.2,39.08c1.51,1.16,3.02,2.32,4.54,3.47,1.54-1.13,3.1-2.24,4.66-3.36,1.13,1.46,2.27,2.9,3.44,4.34,1.83-.63,3.66-1.27,5.49-1.88.66,1.74,1.33,3.47,1.99,5.21,1.85-.35,3.71-.68,5.57-.99.39,2.01.78,4.02,1.15,6.03,1.8.09,3.6.17,5.4.26-.18,2.03-.36,4.06-.53,6.09,1.76.73,3.51,1.45,5.29,2.15-.76,1.78-1.51,3.56-2.29,5.33,1.48,1.14,2.95,2.29,4.43,3.43-1.03,1.56-2.18,3.07-3.07,4.72.87,1.61,2.03,3.03,3.09,4.52-1.49,1.21-2.99,2.41-4.48,3.62.8,1.73,1.56,3.48,2.34,5.22-1.78.7-3.57,1.4-5.36,2.07.19,1.87.4,3.74.62,5.61-1.83.41-3.67.81-5.51,1.2-.33,1.8-.67,3.6-1,5.41-1.86-.27-3.72-.51-5.59-.72-.72,1.8-1.45,3.6-2.19,5.39-1.74-.76-3.48-1.51-5.21-2.28-1.22,1.51-2.45,3.01-3.7,4.5-1.48-1.14-2.96-2.27-4.44-3.39-1.53,1.14-3.07,2.28-4.63,3.38-1.18-1.5-2.36-3-3.53-4.5-1.76.78-3.53,1.54-5.3,2.3-.7-1.75-1.41-3.5-2.13-5.24-1.77.11-3.53.28-5.3.31-1.25-1.37-.8-3.5-1.24-5.2-1.91-.37-3.8-.76-5.7-1.16.24-1.83.5-3.65.77-5.47-1.68-.76-3.51-1.29-4.98-2.44.46-1.78,1.1-3.5,1.66-5.24-1.41-1.11-2.84-2.2-4.27-3.29,1.12-1.59,2.23-3.18,3.36-4.77-1.16-1.51-2.33-3-3.5-4.49,1.54-1.15,3.07-2.29,4.63-3.42-.75-1.8-1.48-3.6-2.22-5.4,1.74-.71,3.49-1.4,5.22-2.12-.22-2.01-.43-4.01-.6-6.02,1.9-.15,3.8-.29,5.71-.42.2-1.99.41-3.98.64-5.96,1.92.29,3.83.6,5.74.94.75-1.75,1.48-3.51,2.23-5.27,1.81.69,3.62,1.38,5.44,2.07,1.11-1.52,2.23-3.03,3.36-4.54Z"/>
      <path class="cls-1" d="M586.7,39.29c1.54,1.08,3.09,2.16,4.64,3.26,1.5-1.16,3-2.32,4.5-3.47,1.13,1.51,2.25,3.02,3.36,4.55,1.8-.7,3.61-1.4,5.43-2.08.74,1.75,1.48,3.51,2.23,5.27,1.91-.34,3.82-.66,5.75-.95.21,1.98.4,3.96.6,5.94,1.92.16,3.85.31,5.78.48-.2,2.01-.42,4.01-.64,6.01,1.73.71,3.47,1.4,5.22,2.09-.75,1.8-1.49,3.6-2.22,5.41,1.54,1.12,3.07,2.27,4.61,3.41-1.14,1.47-2.27,2.94-3.38,4.42,1.01,1.62,2.24,3.16,2.88,4.98-1.25,1.18-2.62,2.22-3.92,3.33.63,1.7,1.33,3.39,1.81,5.16-1.69.88-3.43,1.63-5.14,2.44.31,1.79.6,3.59.9,5.38-2,.4-4,.81-6,1.18-.11,1.82-.23,3.63-.32,5.45-1.99-.28-3.98-.51-5.97-.7-.75,1.78-1.48,3.56-2.19,5.36-1.78-.76-3.55-1.52-5.31-2.31-1.17,1.51-2.34,3.01-3.51,4.52-1.57-1.11-3.12-2.24-4.65-3.39-1.48,1.13-2.95,2.27-4.4,3.41-1.27-1.49-2.5-3-3.72-4.51-1.73.76-3.47,1.51-5.19,2.26-.76-1.78-1.51-3.56-2.25-5.34-1.88.18-3.74.39-5.6.63-.31-1.79-.63-3.59-.96-5.37-1.82-.38-3.63-.78-5.44-1.18.18-1.87.36-3.75.53-5.63-1.79-.67-3.56-1.37-5.32-2.07.77-1.74,1.53-3.49,2.33-5.22-1.54-1.23-3.07-2.47-4.58-3.73,1.15-1.47,2.32-2.93,3.49-4.39-1.18-1.53-2.34-3.07-3.47-4.62,1.5-1.19,3.01-2.38,4.52-3.56-.76-1.74-1.5-3.47-2.26-5.2,1.71-.82,3.65-1.33,5.09-2.62.06-1.92-.1-3.84-.18-5.75,1.74-.08,3.49-.16,5.25-.25.37-2.01.75-4.02,1.15-6.03,1.85.32,3.7.66,5.56,1,.62-1.69,1.27-3.38,1.91-5.07,1.76.5,3.51,1.1,5.32,1.47,1.48-1.08,2.56-2.59,3.76-3.97Z"/>
      <path class="cls-1" d="M71.23,558.61c1.53,1.09,3.05,2.22,4.56,3.36,1.42-1.08,2.82-2.2,4.34-3.15,1.47,1.25,2.67,2.77,3.95,4.22,1.7-.75,3.4-1.48,5.11-2.21.73,1.77,1.46,3.55,2.18,5.34,1.88-.2,3.75-.41,5.63-.65.32,1.81.66,3.63.99,5.45,1.83.35,3.67.73,5.5,1.11-.23,1.86-.44,3.73-.63,5.61,1.79.68,3.57,1.39,5.36,2.1-.78,1.73-1.55,3.47-2.34,5.21,1.5,1.21,3,2.42,4.49,3.66-1.07,1.46-2.23,2.87-3.1,4.47.9,1.65,2.04,3.15,3.08,4.73-1.48,1.13-2.96,2.28-4.44,3.42.77,1.77,1.52,3.54,2.29,5.32-1.77.7-3.53,1.43-5.29,2.18.17,2.04.35,4.08.52,6.14-1.8.05-3.59.11-5.38.18-.39,2.03-.79,4.06-1.2,6.1-1.85-.33-3.7-.67-5.54-1.03-.65,1.73-1.32,3.45-1.97,5.19-1.86-.61-3.71-1.25-5.56-1.87-1.12,1.43-2.22,2.87-3.31,4.33-1.59-1.11-3.17-2.23-4.74-3.34-1.53,1.15-3.05,2.31-4.56,3.47-1.12-1.52-2.23-3.04-3.32-4.56-1.84.69-3.67,1.39-5.51,2.09-.72-1.77-1.43-3.53-2.15-5.28-1.91.34-3.83.66-5.75.95-.24-2-.45-3.99-.66-5.98-1.91-.13-3.81-.26-5.72-.4.19-2,.4-4,.64-5.98-1.74-.75-3.49-1.47-5.24-2.18.74-1.8,1.47-3.6,2.21-5.39-1.55-1.13-3.08-2.28-4.61-3.42,1.17-1.49,2.34-2.99,3.49-4.48-1.09-1.55-2.17-3.09-3.25-4.63,1.32-1.19,2.81-2.24,3.84-3.7-.3-1.68-.83-3.3-1.13-4.96,1.31-1.29,3.18-1.75,4.78-2.56-.3-1.77-.58-3.54-.85-5.3,1.98-.44,3.96-.87,5.95-1.26.13-1.81.26-3.62.4-5.41,1.97.25,3.94.46,5.93.64.73-1.78,1.45-3.56,2.15-5.34,1.77.76,3.55,1.52,5.32,2.31,1.17-1.51,2.36-3.01,3.54-4.5Z"/>
    </g>
  </g>
</svg>