<?xml version="1.0" encoding="UTF-8"?>
<svg id="Capa_2" data-name="Capa 2" xmlns="http://www.w3.org/2000/svg" viewBox="0 0 149.03 148.98">
  <defs>
    <style>
      .cls-1 {
        fill: #ffc10f;
      }
    </style>
  </defs>
  <g id="Layer_1" data-name="Layer 1">
    <g>
      <path class="cls-1" d="M72.1.07c1.56-.05,3.13-.07,4.7-.07,1.18,5.39.63,11,0,16.43-1.23.27-2.22.97-3.21,1.67-.61-.77-1.17-1.59-1.67-2.43-1.08-5.15-.54-10.43.18-15.6Z"/>
      <path class="cls-1" d="M21.07,24.87c-1.31-2.51,1.5-5.08,3.91-3.8,3.63,3.09,6.95,6.57,10.04,10.21l-1.28,2.88c-1.19.02-2.38.05-3.57.07-2.96-3.19-6.32-6.02-9.1-9.36Z"/>
      <path class="cls-1" d="M115.43,29.48c2.94-2.91,5.7-6.04,8.94-8.64,2.75-.96,5.09,2.45,3.18,4.62-3.2,3.28-6.34,6.65-9.9,9.56-.73-.32-2.2-.95-2.93-1.27.02-1.43-.53-3.18.71-4.27Z"/>
      <path class="cls-1" d="M67.7,26.72c14.74-2.22,30.45,2.82,40.9,13.51,10,9.48,15.32,23.53,14.47,37.24-.57,21.15-16.98,40.38-37.56,44.89-16.11,3.63-34.22-1.18-45.63-13.34-8.92-9.1-14.35-21.76-13.96-34.57-.09-11.26,4.17-22.46,11.44-31.02,7.69-8.94,18.59-15.2,30.34-16.71Z"/>
      <path class="cls-1" d="M0,76.82c0-1.6.02-3.19.07-4.79,5.21-.67,10.46-.32,15.7-.35.97,1.52,1.83,3.76.27,5.22-5.3.72-10.73.56-16.04-.08Z"/>
      <path class="cls-1" d="M131.86,74.41c.35-.66,1.06-1.97,1.42-2.63,5.22-.11,10.47-.41,15.68.23.02,1.57.04,3.15.07,4.73-5.26,1-10.64.55-15.94.29-.31-.65-.93-1.96-1.23-2.62Z"/>
      <path class="cls-1" d="M21.45,123.45c3.18-3.24,6.31-6.53,9.78-9.45.63.26,1.91.8,2.54,1.07.31.61.94,1.83,1.25,2.45-2.65,3.52-5.96,6.47-9.02,9.62-1.21,1.57-3.21.74-4.83.59.05-1.39-.84-3.14.28-4.28Z"/>
      <path class="cls-1" d="M114.94,114.79c1.5.11,3.38-.66,4.57.62,2.69,2.61,5.38,5.24,7.93,7.99,1.22,1.16.37,2.95.4,4.4-4.08,1.56-6.31-2.47-8.85-4.81-1.48-1.52-3.16-2.87-4.35-4.63.05-1.2.15-2.39.3-3.57Z"/>
      <path class="cls-1" d="M71.81,133.05l2.68-1.04c.68.24,2.03.73,2.7.97.15,5.25.28,10.51-.1,15.76-1.73.28-3.49.32-5.22.09-.34-5.26-.28-10.53-.06-15.78Z"/>
    </g>
  </g>
</svg>