<?xml version="1.0" encoding="UTF-8"?>
<svg id="Capa_2" data-name="Capa 2" xmlns="http://www.w3.org/2000/svg" viewBox="0 0 1282.66 129.25">
  <defs>
    <style>
      .cls-1 {
        fill: #fff;
      }

      .cls-2 {
        fill: #fed700;
      }
    </style>
  </defs>
  <g id="Layer_1" data-name="Layer 1">
    <g>
      <path class="cls-1" d="M366.15.81c41.76-1.75,83.8-.96,125.2,5.22,6.01.93,12,2.02,17.93,3.4,0,39.55,0,79.11,0,118.66h-33.15c-.01-32.37.01-64.73-.01-97.1-23.85-2.94-47.9-3.9-71.91-4-25.64-.19-51.33.7-76.8,3.76,0,32.44,0,64.89,0,97.34-10.96.01-21.93-.01-32.89.01-.02-39.56,0-79.12-.01-118.67,23.5-5.36,47.62-7.35,71.65-8.62Z"/>
      <path class="cls-1" d="M0,.93c10.97-.02,21.94,0,32.91-.01,0,32.37,0,64.73,0,97.09,24.65,3.06,49.51,3.96,74.33,4.02,24.83.12,49.71-.63,74.38-3.53,0-32.53,0-65.05,0-97.58h33.16c0,39.64.01,79.27,0,118.9-19.54,4.39-39.53,6.33-59.47,7.72-31.68,1.97-63.49,1.99-95.17,0-20.17-1.4-40.36-3.4-60.14-7.72C0,80.19.01,40.56,0,.93Z"/>
      <path class="cls-1" d="M845.2,1.82c30.65-1.45,61.4-1.18,92,1.27,16.93,1.45,33.88,3.38,50.49,7.05-.01,9-.01,18,0,27-24.22-4.8-48.87-7.07-73.51-8.36-35.33-1.57-70.82-1.08-106.01,2.69.08,22.34.14,44.68.24,67.03,24.48,2.9,49.17,3.49,73.8,3.52,35.31-.23,70.83-2.21,105.48-9.43-.01,9.07-.01,18.15,0,27.22-19.58,4.25-39.55,6.29-59.5,7.71-31.32,2.02-62.77,2.01-94.08-.05-19.65-1.42-39.34-3.43-58.61-7.66.01-36.56,0-73.12.01-109.68,22.9-4.99,46.32-7.03,69.69-8.31Z"/>
      <path class="cls-1" d="M1134.29,2.58c29.62-1.65,59.35-1.58,88.97.3,19.91,1.41,39.87,3.41,59.4,7.73,0,36.55-.01,73.11,0,109.66-20.86,4.42-42.15,6.42-63.4,7.76-31.96,1.86-64.06,1.59-95.98-.84-17.71-1.44-35.43-3.37-52.81-7.14V10.61c20.94-4.76,42.42-6.71,63.82-8.03ZM1103.16,31.93v67.02c23.58,2.63,47.31,3.69,71.03,3.79,25.14.02,50.32-.7,75.31-3.54.07-22.26.16-44.52.23-66.77-24.36-3.07-48.94-3.97-73.47-4.04-24.4-.09-48.86.66-73.1,3.54Z"/>
    </g>
    <path class="cls-2" d="M587.58,5.88c24.39-3.32,49.01-4.99,73.62-4.94,9.63-.03,19.26.18,28.9.21.02,42.55.01,85.1.01,127.64-11.13,0-22.26.01-33.39,0-.01-33.47.01-66.94-.01-100.41-23.11.09-46.19,1.94-69.12,4.75,0-9.09,0-18.17,0-27.25Z"/>
  </g>
</svg>